<svg version="1.2" xmlns="http://www.w3.org/2000/svg" viewBox="0 0 800 400" width="800" height="400"><defs><clipPath clipPathUnits="userSpaceOnUse" id="cp1"><path d="m800 400h-800v-400h800z"/></clipPath><linearGradient id="P" gradientUnits="userSpaceOnUse"/><linearGradient id="g1" x2="1" href="#P" gradientTransform="matrix(0,-174.27,609.172,0,374.947,174.27)"><stop stop-color="#0f0621"/><stop offset=".32" stop-color="#39225e"/><stop offset="1" stop-color="#ac6488"/></linearGradient><linearGradient id="g2" x2="1" href="#P" gradientTransform="matrix(7.502,-183.27,677.189,27.721,362.655,192.228)"><stop stop-color="#fff"/><stop offset="1" stop-color="#570029"/></linearGradient><linearGradient id="g3" x2="1" href="#P" gradientTransform="matrix(352.984,0,0,377.324,-1.132,0)"><stop stop-color="#140f26"/><stop offset="1" stop-color="#1c0738"/></linearGradient><linearGradient id="g4" x2="1" href="#P" gradientTransform="matrix(355.878,0,0,368.5,444.122,368.5)"><stop stop-color="#110324"/><stop offset="1" stop-color="#5e3675"/></linearGradient><linearGradient id="g5" x2="1" href="#P" gradientTransform="matrix(0,-137.75,801.132,0,388.157,400)"><stop stop-color="#926762"/><stop offset="1" stop-color="#3b1b54"/></linearGradient><linearGradient id="g6" x2="1" href="#P" gradientTransform="matrix(-10.129,-166.569,724.233,-44.041,377.306,403.841)"><stop stop-color="#ffd8c9"/><stop offset="1" stop-color="#100041"/></linearGradient><linearGradient id="g7" x2="1" href="#P" gradientTransform="matrix(-7.009,171.718,-614.24,-25.071,623.521,255.139)"><stop stop-color="#fffefe"/><stop offset="1" stop-color="#ca8ca9"/></linearGradient><linearGradient id="g8" x2="1" href="#P" gradientTransform="matrix(-6.774,165.972,-623.3,-25.441,619.484,253.837)"><stop stop-color="#fffefe"/><stop offset="1" stop-color="#ca8ca9"/></linearGradient><linearGradient id="g9" x2="1" href="#P" gradientTransform="matrix(-6.429,157.512,-390.867,-15.954,510.125,257.794)"><stop stop-color="#fffefe"/><stop offset="1" stop-color="#ca8ca9"/></linearGradient><linearGradient id="g10" x2="1" href="#P" gradientTransform="matrix(-6.186,151.546,-426.666,-17.415,456.129,258.214)"><stop stop-color="#fffefe"/><stop offset="1" stop-color="#ca8ca9"/></linearGradient><linearGradient id="g11" x2="1" href="#P" gradientTransform="matrix(-6.023,147.566,-287.296,-11.726,372.202,258.513)"><stop stop-color="#fffefe"/><stop offset="1" stop-color="#ca8ca9"/></linearGradient><linearGradient id="g12" x2="1" href="#P" gradientTransform="matrix(-6.217,152.313,-323.947,-13.222,432.002,258.609)"><stop stop-color="#fffefe"/><stop offset="1" stop-color="#ca8ca9"/></linearGradient><linearGradient id="g13" x2="1" href="#P" gradientTransform="matrix(-6.8,166.601,-573.412,-23.405,516.805,256.836)"><stop stop-color="#fffefe"/><stop offset="1" stop-color="#ca8ca9"/></linearGradient><linearGradient id="g14" x2="1" href="#P" gradientTransform="matrix(-7.285,178.474,-903.101,-36.861,602.32,256.802)"><stop stop-color="#fffefe"/><stop offset="1" stop-color="#ca8ca9"/></linearGradient><linearGradient id="g15" x2="1" href="#P" gradientTransform="matrix(-6.859,168.045,-586.506,-23.939,751.655,259.447)"><stop stop-color="#fffefe"/><stop offset="1" stop-color="#ca8ca9"/></linearGradient><linearGradient id="g16" x2="1" href="#P" gradientTransform="matrix(-6,147,-454.027,-18.532,276.718,254.928)"><stop stop-color="#fffefe"/><stop offset="1" stop-color="#ca8ca9"/></linearGradient><linearGradient id="g17" x2="1" href="#P" gradientTransform="matrix(-6.097,149.371,-333.514,-13.613,332.904,255.934)"><stop stop-color="#fffefe"/><stop offset="1" stop-color="#ca8ca9"/></linearGradient><linearGradient id="g18" x2="1" href="#P" gradientTransform="matrix(-6,147,-422.861,-17.26,240.398,253.485)"><stop stop-color="#fffefe"/><stop offset="1" stop-color="#ca8ca9"/></linearGradient><linearGradient id="g19" x2="1" href="#P" gradientTransform="matrix(-6,147,-583.679,-23.824,111.475,248.182)"><stop stop-color="#fffefe"/><stop offset="1" stop-color="#ca8ca9"/></linearGradient><linearGradient id="g20" x2="1" href="#P" gradientTransform="matrix(-6.104,149.549,-593.719,-24.233,105.625,246.442)"><stop stop-color="#fffefe"/><stop offset="1" stop-color="#ca8ca9"/></linearGradient><linearGradient id="g21" x2="1" href="#P" gradientTransform="matrix(-6.079,148.934,-442.609,-18.066,241.556,252.354)"><stop stop-color="#fffefe"/><stop offset="1" stop-color="#ca8ca9"/></linearGradient><linearGradient id="g22" x2="1" href="#P" gradientTransform="matrix(-6.373,156.15,-547.843,-22.361,316.376,254.207)"><stop stop-color="#fffefe"/><stop offset="1" stop-color="#ca8ca9"/></linearGradient><linearGradient id="g23" x2="1" href="#P" gradientTransform="matrix(-6.813,166.928,-737.99,-30.122,251.687,247.422)"><stop stop-color="#fffefe"/><stop offset="1" stop-color="#ca8ca9"/></linearGradient><linearGradient id="g24" x2="1" href="#P" gradientTransform="matrix(-6.008,147.189,-369.106,-15.066,381.881,259.155)"><stop stop-color="#fffefe"/><stop offset="1" stop-color="#ca8ca9"/></linearGradient><linearGradient id="g25" x2="1" href="#P" gradientTransform="matrix(-6.556,160.62,-480.88,-19.628,454.709,258.463)"><stop stop-color="#fffefe"/><stop offset="1" stop-color="#ca8ca9"/></linearGradient><linearGradient id="g26" x2="1" href="#P" gradientTransform="matrix(-7.131,174.707,-711.552,-29.043,518.942,257.741)"><stop stop-color="#fffefe"/><stop offset="1" stop-color="#ca8ca9"/></linearGradient><linearGradient id="g27" x2="1" href="#P" gradientTransform="matrix(-7.285,178.492,-915.042,-37.349,514.343,259.354)"><stop stop-color="#fffefe"/><stop offset="1" stop-color="#ca8ca9"/></linearGradient><linearGradient id="g28" x2="1" href="#P" gradientTransform="matrix(-6.68,163.666,-612.395,-24.996,464.7,259.52)"><stop stop-color="#fffefe"/><stop offset="1" stop-color="#ca8ca9"/></linearGradient><linearGradient id="g29" x2="1" href="#P" gradientTransform="matrix(-6.14,150.442,-446.53,-18.226,414.105,259.744)"><stop stop-color="#fffefe"/><stop offset="1" stop-color="#ca8ca9"/></linearGradient><linearGradient id="g30" x2="1" href="#P" gradientTransform="matrix(-6.283,153.944,-488.948,-19.957,358.493,256.996)"><stop stop-color="#fffefe"/><stop offset="1" stop-color="#ca8ca9"/></linearGradient><linearGradient id="g31" x2="1" href="#P" gradientTransform="matrix(-6.283,153.931,-625.017,-25.511,305.047,254.428)"><stop stop-color="#fffefe"/><stop offset="1" stop-color="#ca8ca9"/></linearGradient><linearGradient id="g32" x2="1" href="#P" gradientTransform="matrix(-6.012,147.287,-585.549,-23.9,342.5,257.572)"><stop stop-color="#fffefe"/><stop offset="1" stop-color="#ca8ca9"/></linearGradient><linearGradient id="g33" x2="1" href="#P" gradientTransform="matrix(-6,146.999,-443.881,-18.118,386.132,259.393)"><stop stop-color="#fffefe"/><stop offset="1" stop-color="#ca8ca9"/></linearGradient><linearGradient id="g34" x2="1" href="#P" gradientTransform="matrix(271.629,0,0,7.07,261.733,309.994)"><stop stop-color="#8b1356"/><stop offset="1" stop-color="#a43d72"/></linearGradient><linearGradient id="g35" x2="1" href="#P" gradientTransform="matrix(30.131,0,0,8.233,438.314,322.405)"><stop stop-color="#8b1356"/><stop offset="1" stop-color="#a43d72"/></linearGradient><linearGradient id="g36" x2="1" href="#P" gradientTransform="matrix(9.918,0,0,3.622,345.651,322.827)"><stop stop-color="#8b1356"/><stop offset="1" stop-color="#a43d72"/></linearGradient><linearGradient id="g37" x2="1" href="#P" gradientTransform="matrix(-0.29,-2.332,18.747,-2.327,214.261,371.673)"><stop stop-color="#b9c0d8"/><stop offset=".98" stop-color="#a194c3"/></linearGradient><linearGradient id="g38" x2="1" href="#P" gradientTransform="matrix(-0.097,-0.782,4.799,-0.596,432.676,284.393)"><stop stop-color="#d1dbe7"/><stop offset="1" stop-color="#d4dee7"/></linearGradient><linearGradient id="g39" x2="1" href="#P" gradientTransform="matrix(-0.105,-0.844,2.436,-0.302,390.87,294.956)"><stop stop-color="#d1dbe7"/><stop offset="1" stop-color="#d4dee7"/></linearGradient><linearGradient id="g40" x2="1" href="#P" gradientTransform="matrix(-0.053,-0.429,1.237,-0.154,428.65,271.272)"><stop stop-color="#d1dbe7"/><stop offset="1" stop-color="#d4dee7"/></linearGradient><linearGradient id="g41" x2="1" href="#P" gradientTransform="matrix(-0.205,-1.649,4.76,-0.591,453.667,382.398)"><stop stop-color="#d1dbe7"/><stop offset="1" stop-color="#d4dee7"/></linearGradient><linearGradient id="g42" x2="1" href="#P" gradientTransform="matrix(0,-6.111,7.71,0,493.069,304.444)"><stop offset=".01" stop-color="#5136b8"/><stop offset=".99" stop-color="#7283e3"/></linearGradient><linearGradient id="g43" x2="1" href="#P" gradientTransform="matrix(0,-4.968,7.102,0,333.614,276.635)"><stop offset=".01" stop-color="#5136b8"/><stop offset=".99" stop-color="#7283e3"/></linearGradient><linearGradient id="g44" x2="1" href="#P" gradientTransform="matrix(352.047,0,0,218.278,447.953,0)"><stop stop-color="#0b0429"/><stop offset="1" stop-color="#8b275e"/></linearGradient><linearGradient id="g45" x2="1" href="#P" gradientTransform="matrix(349.99,0,0,218.278,-1.132,0)"><stop stop-color="#644186"/><stop offset="1" stop-color="#0e0726"/></linearGradient><linearGradient id="g46" x2="1" href="#P" gradientTransform="matrix(0,-122.343,357.208,0,600.445,383.503)"><stop stop-color="#14000a"/><stop offset="1" stop-color="#0d0422"/></linearGradient><linearGradient id="g47" x2="1" href="#P" gradientTransform="matrix(357.208,0,0,122.089,442.792,261.414)"><stop stop-color="#140016"/><stop offset="1" stop-color="#3b2c75"/></linearGradient><linearGradient id="g48" x2="1" href="#P" gradientTransform="matrix(0,-118.824,353.071,0,196.53,381.333)"><stop stop-color="#14000a"/><stop offset="1" stop-color="#0d0422"/></linearGradient><linearGradient id="g49" x2="1" href="#P" gradientTransform="matrix(-353.071,0,0,-123.806,353.071,262.869)"><stop stop-color="#140016"/><stop offset="1" stop-color="#3b2c75"/></linearGradient><linearGradient id="g50" x2="1" href="#P" gradientTransform="matrix(0,-218.877,78.204,0,333.781,339.197)"><stop stop-color="#140016"/><stop offset="1" stop-color="#160157"/></linearGradient><linearGradient id="g51" x2="1" href="#P" gradientTransform="matrix(0,-192.153,54.346,0,311.831,329.481)"><stop stop-color="#4d1651"/><stop offset="1" stop-color="#140016"/></linearGradient><linearGradient id="g52" x2="1" href="#P" gradientTransform="matrix(73.96,0,0,41.315,605.219,120.32)"><stop stop-color="#ff936a"/><stop offset="1" stop-color="#890041"/></linearGradient><linearGradient id="g53" x2="1" href="#P" gradientTransform="matrix(0,-121.884,24.282,0,307.212,315.952)"><stop stop-color="#14000a"/><stop offset="1" stop-color="#0d0422"/></linearGradient><linearGradient id="g54" x2="1" href="#P" gradientTransform="matrix(39.55,-68.502,51.995,30.019,567.929,197.865)"><stop stop-color="#7a598b"/><stop offset="1" stop-color="#311597"/></linearGradient><linearGradient id="g55" x2="1" href="#P" gradientTransform="matrix(0,-61.004,3.343,0,81.407,237.35)"><stop stop-color="#14000a"/><stop offset="1" stop-color="#0d0422"/></linearGradient><linearGradient id="g56" x2="1" href="#P" gradientTransform="matrix(-3.205,-8.089,4.905,-1.944,620.162,257.271)"><stop stop-color="#a1606a"/><stop offset="1" stop-color="#890041"/></linearGradient><linearGradient id="g57" x2="1" href="#P" gradientTransform="matrix(3.412,0,0,3.715,627.308,244.694)"><stop stop-color="#14000a"/><stop offset="1" stop-color="#0d0422"/></linearGradient><linearGradient id="g58" x2="1" href="#P" gradientTransform="matrix(5.55,0,0,8.321,624.435,242.657)"><stop stop-color="#14000a"/><stop offset="1" stop-color="#0d0422"/></linearGradient><linearGradient id="g59" x2="1" href="#P" gradientTransform="matrix(0,-8.208,5.037,0,619.555,250.98)"><stop stop-color="#140016"/><stop offset="1" stop-color="#3b2c75"/></linearGradient><linearGradient id="g60" x2="1" href="#P" gradientTransform="matrix(0,-6.209,3.84,0,620.796,249.765)"><stop offset=".02" stop-color="#685e75"/><stop offset="1" stop-color="#4f3b64"/></linearGradient><linearGradient id="g61" x2="1" href="#P" gradientTransform="matrix(33.87,0,0,44.04,639.32,193.333)"><stop stop-color="#97c8dc"/><stop offset="1" stop-color="#443869"/></linearGradient><linearGradient id="g62" x2="1" href="#P" gradientTransform="matrix(0,-83.502,44.889,0,724.498,328.333)"><stop stop-color="#112040"/><stop offset="1" stop-color="#160a30"/></linearGradient><linearGradient id="g63" x2="1" href="#P" gradientTransform="matrix(0,-4.819,2.137,0,669.766,269.923)"><stop stop-color="#2b0924"/><stop offset="1" stop-color="#2a1130"/></linearGradient><linearGradient id="g64" x2="1" href="#P" gradientTransform="matrix(-13.025,0,0,-63.977,660.457,247.748)"><stop stop-color="#2b0924"/><stop offset="1" stop-color="#2a1130"/></linearGradient><linearGradient id="g65" x2="1" href="#P" gradientTransform="matrix(-2.999,83.226,-51.559,-1.858,719.837,316.122)"><stop stop-color="#b86a6d"/><stop offset="1" stop-color="#fff"/></linearGradient><linearGradient id="g66" x2="1" href="#P" gradientTransform="matrix(0,-91.853,35.799,0,364.189,279.403)"><stop stop-color="#140016"/><stop offset="1" stop-color="#160157"/></linearGradient><linearGradient id="g67" x2="1" href="#P" gradientTransform="matrix(0,-78.714,26.668,0,369.867,274.7)"><stop stop-color="#140016"/><stop offset="1" stop-color="#3b2c75"/></linearGradient><linearGradient id="g68" x2="1" href="#P" gradientTransform="matrix(17.624,-26.975,20.476,13.378,453.148,218.212)"><stop stop-color="#5074c2"/><stop offset="1" stop-color="#311597"/></linearGradient><linearGradient id="g69" x2="1" href="#P" gradientTransform="matrix(1.369,-24.813,1.361,.075,254.573,223.365)"><stop stop-color="#14000a"/><stop offset="1" stop-color="#0d0422"/></linearGradient><linearGradient id="g70" x2="1" href="#P" gradientTransform="matrix(0,-54.629,13.693,0,361.999,269.615)"><stop stop-color="#14000a"/><stop offset="1" stop-color="#0d0422"/></linearGradient><linearGradient id="g71" x2="1" href="#P" gradientTransform="matrix(0,-105.992,31.978,0,476.132,286.33)"><stop stop-color="#140016"/><stop offset="1" stop-color="#160157"/></linearGradient><linearGradient id="g72" x2="1" href="#P" gradientTransform="matrix(0,-90.83,22.847,0,477.019,280.902)"><stop stop-color="#140016"/><stop offset="1" stop-color="#3b2c75"/></linearGradient><linearGradient id="g73" x2="1" href="#P" gradientTransform="matrix(-19.959,-30.549,24.465,-15.984,336.875,214.774)"><stop stop-color="#5074c2"/><stop offset="1" stop-color="#311597"/></linearGradient><linearGradient id="g74" x2="1" href="#P" gradientTransform="matrix(-1.566,-28.387,2.503,-0.138,464.231,226.977)"><stop stop-color="#14000a"/><stop offset="1" stop-color="#0d0422"/></linearGradient><linearGradient id="g75" x2="1" href="#P" gradientTransform="matrix(0,-63.032,10.493,0,121.891,276.625)"><stop stop-color="#14000a"/><stop offset="1" stop-color="#0d0422"/></linearGradient><linearGradient id="g76" x2="1" href="#P" gradientTransform="matrix(0,-271.609,103.45,0,-277.947,363.276)"><stop stop-color="#ffae8a"/><stop offset="1" stop-color="#e37f98"/></linearGradient><linearGradient id="g77" x2="1" href="#P" gradientTransform="matrix(98.61,0,0,56.333,31.724,91.667)"><stop stop-color="#d4544a"/><stop offset="1" stop-color="#c7312e"/></linearGradient><linearGradient id="g78" x2="1" href="#P" gradientTransform="matrix(76.406,0,0,235.821,26.88,123.62)"><stop stop-color="#ffeacd"/><stop offset="1" stop-color="#fddade"/></linearGradient><linearGradient id="g79" x2="1" href="#P" gradientTransform="matrix(-3.018,83.761,-115.905,-4.177,243.537,302.602)"><stop stop-color="#7c61b3"/><stop offset="1" stop-color="#fff"/></linearGradient><linearGradient id="g80" x2="1" href="#P" gradientTransform="matrix(-2.407,66.795,-95.405,-3.438,564.438,288.63)"><stop stop-color="#7c61b3"/><stop offset="1" stop-color="#fff"/></linearGradient><linearGradient id="g81" x2="1" href="#P" gradientTransform="matrix(0,-181.879,57.67,0,-119.97,337.699)"><stop stop-color="#890041"/><stop offset="1" stop-color="#ce776a"/></linearGradient><linearGradient id="g82" x2="1" href="#P" gradientTransform="matrix(0,-137.787,32.499,0,860.346,315.263)"><stop stop-color="#140016"/><stop offset="1" stop-color="#180754"/></linearGradient><linearGradient id="g83" x2="1" href="#P" gradientTransform="matrix(0,-136.903,62.717,0,673.737,314.379)"><stop stop-color="#140016"/><stop offset="1" stop-color="#65296f"/></linearGradient><linearGradient id="g84" x2="1" href="#P" gradientTransform="matrix(0,-22.099,9.139,0,491.461,237.655)"><stop stop-color="#a392b8"/><stop offset="1" stop-color="#813b99"/></linearGradient><linearGradient id="g85" x2="1" href="#P" gradientTransform="matrix(3.761,0,0,1.875,517.528,227.362)"><stop stop-color="#56326e"/><stop offset="1" stop-color="#714d78"/></linearGradient><linearGradient id="g86" x2="1" href="#P" gradientTransform="matrix(0,-6.455,5.815,0,515.356,237.655)"><stop stop-color="#56326e"/><stop offset="1" stop-color="#714d78"/></linearGradient><linearGradient id="g87" x2="1" href="#P" gradientTransform="matrix(7.943,0,0,9.466,514.08,216.535)"><stop stop-color="#efecf3"/><stop offset="1" stop-color="#612c73"/></linearGradient><linearGradient id="g88" x2="1" href="#P" gradientTransform="matrix(3.761,0,0,3.864,517.528,228.492)"><stop stop-color="#efecf3"/><stop offset="1" stop-color="#612c73"/></linearGradient><linearGradient id="g89" x2="1" href="#P" gradientTransform="matrix(0,-184.597,43.54,0,-219.422,337.93)"><stop stop-color="#520043"/><stop offset="1" stop-color="#e95054"/></linearGradient><linearGradient id="g90" x2="1" href="#P" gradientTransform="matrix(0,-183.412,84.023,0,30.584,336.745)"><stop stop-color="#140016"/><stop offset="1" stop-color="#65296f"/></linearGradient><linearGradient id="g91" x2="1" href="#P" gradientTransform="matrix(0,-29.607,12.244,0,274.784,233.956)"><stop stop-color="#a392b8"/><stop offset="1" stop-color="#813b99"/></linearGradient><linearGradient id="g92" x2="1" href="#P" gradientTransform="matrix(-5.038,0,0,-2.511,239.861,220.167)"><stop stop-color="#56326e"/><stop offset="1" stop-color="#714d78"/></linearGradient><linearGradient id="g93" x2="1" href="#P" gradientTransform="matrix(0,-8.648,7.79,0,242.77,233.956)"><stop stop-color="#56326e"/><stop offset="1" stop-color="#714d78"/></linearGradient><linearGradient id="g94" x2="1" href="#P" gradientTransform="matrix(-10.641,0,0,-12.682,244.48,205.661)"><stop stop-color="#efecf3"/><stop offset="1" stop-color="#612c73"/></linearGradient><linearGradient id="g95" x2="1" href="#P" gradientTransform="matrix(-5.038,0,0,-5.177,239.861,221.68)"><stop stop-color="#efecf3"/><stop offset="1" stop-color="#612c73"/></linearGradient><linearGradient id="g96" x2="1" href="#P" gradientTransform="matrix(-2.425,-41.733,17.155,-0.997,155.282,320.374)"><stop stop-color="#a392b8"/><stop offset="1" stop-color="#612c73"/></linearGradient><linearGradient id="g97" x2="1" href="#P" gradientTransform="matrix(7.293,-0.424,.211,3.635,203.899,297.522)"><stop stop-color="#541937"/><stop offset="1" stop-color="#542e43"/></linearGradient><linearGradient id="g98" x2="1" href="#P" gradientTransform="matrix(-0.727,-12.518,11.277,-0.655,200.848,317.727)"><stop stop-color="#541937"/><stop offset="1" stop-color="#542e43"/></linearGradient><linearGradient id="g99" x2="1" href="#P" gradientTransform="matrix(15.404,-0.895,1.067,18.357,195.993,276.913)"><stop stop-color="#efecf3"/><stop offset="1" stop-color="#612c73"/></linearGradient><linearGradient id="g100" x2="1" href="#P" gradientTransform="matrix(7.293,-0.424,.435,7.494,204.026,299.712)"><stop stop-color="#efecf3"/><stop offset="1" stop-color="#612c73"/></linearGradient><linearGradient id="g101" x2="1" href="#P" gradientTransform="matrix(-1.538,42.688,-116.019,-4.181,94.405,357.827)"><stop stop-color="#b86a6d"/><stop offset="1" stop-color="#fff"/></linearGradient><linearGradient id="g102" x2="1" href="#P" gradientTransform="matrix(-1.542,42.799,-21.374,-0.77,341.053,275.609)"><stop stop-color="#b86a6d"/><stop offset="1" stop-color="#fff"/></linearGradient><linearGradient id="g103" x2="1" href="#P" gradientTransform="matrix(-1.177,32.654,-21.248,-0.766,510.931,269.9)"><stop stop-color="#b86a6d"/><stop offset="1" stop-color="#fff"/></linearGradient><linearGradient id="g104" x2="1" href="#P" gradientTransform="matrix(232.891,0,0,30.572,144.536,335.05)"><stop stop-color="#d67733"/><stop offset=".86"/></linearGradient><linearGradient id="g105" x2="1" href="#P" gradientTransform="matrix(0,-78.761,63.825,0,591.481,126.515)"><stop stop-color="#140016"/><stop offset="1" stop-color="#191059"/></linearGradient><linearGradient id="g106" x2="1" href="#P" gradientTransform="matrix(0,-55.402,51.264,0,616.421,119.554)"><stop stop-color="#7a598b"/><stop offset="1" stop-color="#311597"/></linearGradient><linearGradient id="g107" x2="1" href="#P" gradientTransform="matrix(36.806,-63.75,26.125,15.083,593.507,103.839)"><stop stop-color="#140016"/><stop offset="1" stop-color="#3b2c75"/></linearGradient><linearGradient id="g108" x2="1" href="#P" gradientTransform="matrix(48.968,0,0,51.617,623.021,66.693)"><stop stop-color="#14000a"/><stop offset="1" stop-color="#0d0422"/></linearGradient><linearGradient id="g109" x2="1" href="#P" gradientTransform="matrix(0,-28.225,22.873,0,319.188,180.567)"><stop stop-color="#140016"/><stop offset="1" stop-color="#191059"/></linearGradient><linearGradient id="g110" x2="1" href="#P" gradientTransform="matrix(-13.19,-22.846,13.046,-7.532,318.462,172.44)"><stop stop-color="#311597"/><stop offset="1" stop-color="#5074c2"/></linearGradient><linearGradient id="g111" x2="1" href="#P" gradientTransform="matrix(-13.19,-22.846,9.363,-5.405,318.462,172.44)"><stop stop-color="#140016"/><stop offset="1" stop-color="#3b2c75"/></linearGradient><linearGradient id="g112" x2="1" href="#P" gradientTransform="matrix(-17.549,0,0,-18.498,307.885,159.128)"><stop stop-color="#14000a"/><stop offset="1" stop-color="#0d0422"/></linearGradient><linearGradient id="g113" x2="1" href="#P" gradientTransform="matrix(0,-25.271,20.479,0,469.042,186.905)"><stop stop-color="#140016"/><stop offset="1" stop-color="#191059"/></linearGradient><linearGradient id="g114" x2="1" href="#P" gradientTransform="matrix(11.809,-20.454,10.983,6.341,469.692,179.63)"><stop stop-color="#311597"/><stop offset="1" stop-color="#5074c2"/></linearGradient><linearGradient id="g115" x2="1" href="#P" gradientTransform="matrix(11.809,-20.454,7.685,4.437,469.692,179.63)"><stop stop-color="#140016"/><stop offset="1" stop-color="#3b2c75"/></linearGradient><linearGradient id="g116" x2="1" href="#P" gradientTransform="matrix(15.712,0,0,16.562,479.161,167.711)"><stop stop-color="#14000a"/><stop offset="1" stop-color="#0d0422"/></linearGradient><linearGradient id="g117" x2="1" href="#P" gradientTransform="matrix(0,-60.044,67.629,0,295.197,119.833)"><stop stop-color="#140016"/><stop offset="1" stop-color="#170d33"/></linearGradient><linearGradient id="g118" x2="1" href="#P" gradientTransform="matrix(-64.812,0,0,-52.262,355.3,119.465)"><stop stop-color="#100a38"/><stop offset="1" stop-color="#822c47"/></linearGradient><linearGradient id="g119" x2="1" href="#P" gradientTransform="matrix(2.298,-56.131,66.704,2.731,290.933,117.483)"><stop stop-color="#890041"/><stop offset="1" stop-color="#ce776a"/></linearGradient><linearGradient id="g120" x2="1" href="#P" gradientTransform="matrix(0,-60.044,67.629,0,504.031,119.833)"><stop stop-color="#140016"/><stop offset="1" stop-color="#170d33"/></linearGradient><linearGradient id="g121" x2="1" href="#P" gradientTransform="matrix(-38.833,-67.261,143.896,-83.078,522.869,111.308)"><stop stop-color="#100a38"/><stop offset="1" stop-color="#822c50"/></linearGradient><linearGradient id="g122" x2="1" href="#P" gradientTransform="matrix(2.3,-56.19,61.279,2.508,449.788,117.542)"><stop stop-color="#890041"/><stop offset="1" stop-color="#ce776a"/></linearGradient><linearGradient id="g123" x2="1" href="#P" gradientTransform="matrix(0,-17.394,22.105,0,359.892,160.412)"><stop stop-color="#0e0b29"/><stop offset="1" stop-color="#23173d"/></linearGradient><linearGradient id="g124" x2="1" href="#P" gradientTransform="matrix(11.498,-19.916,43.009,24.831,354.559,159.08)"><stop stop-color="#100a38"/><stop offset="1" stop-color="#411e59"/></linearGradient><linearGradient id="g125" x2="1" href="#P" gradientTransform="matrix(.675,-16.498,21.884,.896,358.49,159.63)"><stop stop-color="#890041"/><stop offset="1" stop-color="#ce776a"/></linearGradient><linearGradient id="g126" x2="1" href="#P" gradientTransform="matrix(0,-17.152,21.572,0,437.159,160.17)"><stop stop-color="#0e0b29"/><stop offset="1" stop-color="#23173d"/></linearGradient><linearGradient id="g127" x2="1" href="#P" gradientTransform="matrix(-11.26,-19.503,40.939,-23.636,442.315,158.801)"><stop stop-color="#100a38"/><stop offset="1" stop-color="#411e59"/></linearGradient><linearGradient id="g128" x2="1" href="#P" gradientTransform="matrix(.667,-16.291,19.991,.818,423.356,159.402)"><stop stop-color="#890041"/><stop offset="1" stop-color="#ce776a"/></linearGradient><linearGradient id="g129" x2="1" href="#P" gradientTransform="matrix(0,-56.505,34.223,0,351.22,256.505)"><stop stop-color="#14000a"/><stop offset="1" stop-color="#0d0422"/></linearGradient><linearGradient id="g130" x2="1" href="#P" gradientTransform="matrix(3.141,-56.969,32.641,1.8,344.59,255.477)"><stop stop-color="#140016"/><stop offset="1" stop-color="#3b2c75"/></linearGradient><linearGradient id="g131" x2="1" href="#P" gradientTransform="matrix(0,-17.931,20.213,0,389.95,229.858)"><stop stop-color="#3b63bb"/><stop offset="1" stop-color="#311597"/></linearGradient><linearGradient id="g132" x2="1" href="#P" gradientTransform="matrix(140.132,0,0,259.883,-1.132,123.62)"><stop stop-color="#36275b"/><stop offset="1" stop-color="#251868"/></linearGradient><linearGradient id="g133" x2="1" href="#P" gradientTransform="matrix(0,-185.584,87.255,0,543.563,257.037)"><stop offset=".01" stop-color="#630743"/><stop offset=".98" stop-color="#741629"/></linearGradient><linearGradient id="g134" x2="1" href="#P" gradientTransform="matrix(0,-185.052,12,0,-643.183,256.505)"><stop offset=".01" stop-color="#2c0036"/><stop offset=".98" stop-color="#410e14"/></linearGradient><linearGradient id="g135" x2="1" href="#P" gradientTransform="matrix(0,-176.946,80.693,0,545.838,255.01)"><stop stop-color="#861a54"/><stop offset="1" stop-color="#ba3b36"/></linearGradient><linearGradient id="g136" x2="1" href="#P" gradientTransform="matrix(0,-176.946,80.693,0,545.838,255.01)"><stop offset=".01" stop-color="#2c0036"/><stop offset=".98" stop-color="#410e14"/></linearGradient><linearGradient id="g137" x2="1" href="#P" gradientTransform="matrix(49.424,-85.606,66.396,38.334,658.884,173.383)"><stop stop-color="#e57a5e"/><stop offset="1" stop-color="#bf4576"/></linearGradient><linearGradient id="g138" x2="1" href="#P" gradientTransform="matrix(0,-97.168,78.742,0,154.838,109.967)"><stop stop-color="#d4544a"/><stop offset="1" stop-color="#c7312e"/></linearGradient><linearGradient id="g139" x2="1" href="#P" gradientTransform="matrix(-45.408,-78.648,44.913,-25.93,152.339,81.991)"><stop stop-color="#ffffea"/><stop offset="1" stop-color="#fee4e7"/></linearGradient><linearGradient id="g140" x2="1" href="#P" gradientTransform="matrix(-45.408,-78.648,32.231,-18.609,152.339,81.991)"><stop stop-color="#540016"/><stop offset="1" stop-color="#771d69"/></linearGradient><linearGradient id="g141" x2="1" href="#P" gradientTransform="matrix(0,-30.367,16.127,0,373.606,271.08)"><stop stop-color="#140016"/><stop offset="1" stop-color="#3b2c75"/></linearGradient><linearGradient id="g142" x2="1" href="#P" gradientTransform="matrix(0,-30.367,9.013,0,392.613,271.08)"><stop stop-color="#140016"/><stop offset="1" stop-color="#11003d"/></linearGradient><linearGradient id="g143" x2="1" href="#P" gradientTransform="matrix(0,-7.471,11.212,0,348.93,248.775)"><stop stop-color="#14000a"/><stop offset="1" stop-color="#0d0422"/></linearGradient><linearGradient id="g144" x2="1" href="#P" gradientTransform="matrix(0,-7.471,10.304,0,348.695,248.775)"><stop stop-color="#140016"/><stop offset="1" stop-color="#271175"/></linearGradient><linearGradient id="g145" x2="1" href="#P" gradientTransform="matrix(-3.413,-5.911,5.763,-3.327,356.076,258.32)"><stop stop-color="#bda1e7"/><stop offset="1" stop-color="#e5e7ea"/></linearGradient><linearGradient id="g146" x2="1" href="#P" gradientTransform="matrix(.318,8.833,-16.636,.6,342.46,267.81)"><stop stop-color="#7c61b3"/><stop offset="1" stop-color="#fff"/></linearGradient><radialGradient id="g147" cx="0" cy="0" r="1" href="#P" gradientTransform="matrix(-74.6,-38.005,38.005,-74.6,97.689,71.273)"><stop stop-color="#ff1010"/><stop offset="1"/></radialGradient><linearGradient id="g148" x2="1" href="#P" gradientTransform="matrix(137.607,0,0,112.119,325.125,160.261)"><stop stop-color="#421c36"/><stop offset="1" stop-color="#4a1134"/></linearGradient><linearGradient id="g149" x2="1" href="#P" gradientTransform="matrix(9.368,0,0,.459,765.96,400)"><stop stop-color="#36275b"/><stop offset="1" stop-color="#251868"/></linearGradient><linearGradient id="g150" x2="1" href="#P" gradientTransform="matrix(0,-112.711,65.817,0,652.729,381.167)"><stop stop-color="#140016"/><stop offset="1" stop-color="#ae2c75"/></linearGradient><linearGradient id="g151" x2="1" href="#P" gradientTransform="matrix(0,-112.62,29,0,548.971,381.167)"><stop stop-color="#140016"/><stop offset="1" stop-color="#11003d"/></linearGradient><linearGradient id="g152" x2="1" href="#P" gradientTransform="matrix(0,-28.348,49.681,0,740.566,298.996)"><stop stop-color="#14000a"/><stop offset="1" stop-color="#0d0422"/></linearGradient><linearGradient id="g153" x2="1" href="#P" gradientTransform="matrix(0,-27.669,45.571,0,741.541,298.996)"><stop offset=".01" stop-color="#630743"/><stop offset=".98" stop-color="#92274a"/></linearGradient><linearGradient id="g154" x2="1" href="#P" gradientTransform="matrix(14.161,-24.527,23.913,13.806,711.624,340.185)"><stop stop-color="#bda1e7"/><stop offset="1" stop-color="#e5e7ea"/></linearGradient><linearGradient id="g155" x2="1" href="#P" gradientTransform="matrix(-1.175,32.605,-64.307,-2.317,756.429,367.834)"><stop stop-color="#7c61b3"/><stop offset="1" stop-color="#fff"/></linearGradient><linearGradient id="g156" x2="1" href="#P" gradientTransform="matrix(237.98,0,0,333.09,31.182,30.74)"><stop stop-color="#d60101"/><stop offset=".86"/></linearGradient><linearGradient id="g157" x2="1" href="#P" gradientTransform="matrix(0,-239.66,115.65,0,-164.155,363.28)"><stop stop-color="#140016"/><stop offset="1" stop-color="#271654"/></linearGradient><linearGradient id="g158" x2="1" href="#P" gradientTransform="matrix(0,-239.654,6.5,0,-4276.294,363.276)"><stop stop-color="#140016"/><stop offset="1" stop-color="#19042c"/></linearGradient><linearGradient id="g159" x2="1" href="#P" gradientTransform="matrix(0,-88.444,4.764,0,-776.623,252.667)"><stop stop-color="#e22121"/><stop offset="1" stop-color="#f94036"/></linearGradient><linearGradient id="g160" x2="1" href="#P" gradientTransform="matrix(59.002,-102.195,94.85,54.762,-2.921,223.959)"><stop stop-color="#ff8a8a"/><stop offset="1" stop-color="#fcb4bd"/></linearGradient><linearGradient id="g161" x2="1" href="#P" gradientTransform="matrix(5.91,-17.787,10.785,3.583,99.331,278.01)"><stop stop-color="#a1606a"/><stop offset="1" stop-color="#890041"/></linearGradient><linearGradient id="g162" x2="1" href="#P" gradientTransform="matrix(0,-16.75,13.049,0,116.937,279)"><stop stop-color="#14000a"/><stop offset="1" stop-color="#0d0422"/></linearGradient><linearGradient id="g163" x2="1" href="#P" gradientTransform="matrix(0,-13.862,10.799,0,117.666,277.556)"><stop stop-color="#140016"/><stop offset="1" stop-color="#3b2c75"/></linearGradient><linearGradient id="g164" x2="1" href="#P" gradientTransform="matrix(0,-10.439,8.132,0,119.029,275.844)"><stop offset=".02" stop-color="#685e75"/><stop offset="1" stop-color="#4f3b64"/></linearGradient><linearGradient id="g165" x2="1" href="#P" gradientTransform="matrix(0,-239.66,112.12,0,-173.738,363.28)"><stop stop-color="#ff936a"/><stop offset="1" stop-color="#890041"/></linearGradient><linearGradient id="g166" x2="1" href="#P" gradientTransform="matrix(0,-5.502,1.996,0,653.012,250.333)"><stop stop-color="#2b0924"/><stop offset="1" stop-color="#2a1130"/></linearGradient><linearGradient id="g167" x2="1" href="#P" gradientTransform="matrix(0,-38.137,587.465,0,408.93,38.583)"><stop stop-color="#210611"/><stop offset="1" stop-color="#421832"/></linearGradient><linearGradient id="g168" x2="1" href="#P" gradientTransform="matrix(-12.932,-22.398,111.401,-64.317,462.954,110.596)"><stop stop-color="#140016"/><stop offset="1" stop-color="#170d33"/></linearGradient></defs><style>.a{fill:url(#g1)}.b{opacity:.3;mix-blend-mode:multiply;fill:url(#g2)}.c{fill:url(#g3)}.d{fill:url(#g4)}.e{fill:url(#g5)}.f{opacity:.3;mix-blend-mode:screen;fill:url(#g6)}.g{fill:url(#g7)}.h{fill:url(#g8)}.i{fill:url(#g9)}.j{fill:url(#g10)}.k{fill:url(#g11)}.l{fill:url(#g12)}.m{fill:url(#g13)}.n{fill:url(#g14)}.o{fill:url(#g15)}.p{fill:url(#g16)}.q{fill:url(#g17)}.r{fill:url(#g18)}.s{fill:url(#g19)}.t{fill:url(#g20)}.u{fill:url(#g21)}.v{fill:url(#g22)}.w{fill:url(#g23)}.x{fill:url(#g24)}.y{fill:url(#g25)}.z{fill:url(#g26)}.A{fill:url(#g27)}.B{fill:url(#g28)}.C{fill:url(#g29)}.D{fill:url(#g30)}.E{fill:url(#g31)}.F{fill:url(#g32)}.G{fill:url(#g33)}.H{fill:#391b40}.I{opacity:.6;mix-blend-mode:multiply;fill:url(#g34)}.J{opacity:.6;mix-blend-mode:multiply;fill:url(#g35)}.K{opacity:.6;mix-blend-mode:multiply;fill:url(#g36)}.L{fill:#0a0020}.M{fill:#150a2c}.N{fill:#302a89}.O{fill:#459ac2}.P{fill:url(#g37)}.Q{fill:url(#g38)}.R{fill:#130923}.S{fill:url(#g39)}.T{fill:url(#g40)}.U{fill:url(#g41)}.V{fill:#e1e5d8}.W{opacity:.6;mix-blend-mode:multiply;fill:#0c005e}.X{fill:url(#g42)}.Y{opacity:.5;mix-blend-mode:multiply;fill:#8b58c6}.Z{fill:url(#g43)}.a0{fill:#27188f}.a1{fill:url(#g44)}.a2{fill:url(#g45)}.a3{fill:#1b102e}.a4{fill:url(#g46)}.a5{fill:url(#g47)}.a6{mix-blend-mode:soft-light;fill:#bec0cd}.a7{mix-blend-mode:soft-light;fill:#ffdea1}.a8{fill:#607abb}.a9{fill:url(#g48)}.aa{fill:url(#g49)}.ab{fill:#ffdea1}.ac{fill:url(#g50)}.ad{fill:#37209a}.ae{fill:url(#g51)}.af{opacity:.3;mix-blend-mode:multiply;fill:url(#g52)}.ag{fill:url(#g53)}.ah{fill:url(#g54)}.ai{fill:url(#g55)}.aj{opacity:.7;mix-blend-mode:multiply;fill:url(#g56)}.ak{opacity:.5;mix-blend-mode:multiply;fill:#b1548b}.al{fill:url(#g57)}.am{fill:url(#g58)}.an{fill:url(#g59)}.ao{fill:url(#g60)}.ap{mix-blend-mode:multiply;fill:#3d208b}.aq{mix-blend-mode:multiply;fill:url(#g61)}.ar{fill:url(#g62)}.as{fill:url(#g63)}.at{fill:url(#g64)}.au{mix-blend-mode:multiply;fill:url(#g65)}.av{fill:url(#g66)}.aw{fill:url(#g67)}.ax{fill:url(#g68)}.ay{fill:url(#g69)}.az{fill:url(#g70)}.aA{fill:url(#g71)}.aB{fill:url(#g72)}.aC{fill:url(#g73)}.aD{fill:url(#g74)}.aE{fill:url(#g75)}.aF{fill:url(#g76)}.aG{fill:#ffc3c4}.aH{fill:url(#g77)}.aI{fill:#ff5b3e}.aJ{fill:url(#g78)}.aK{mix-blend-mode:multiply;fill:url(#g79)}.aL{mix-blend-mode:multiply;fill:url(#g80)}.aM{opacity:.3;mix-blend-mode:multiply;fill:url(#g81)}.aN{fill:url(#g82)}.aO{fill:url(#g83)}.aP{fill:#1d0e60}.aQ{opacity:.3;mix-blend-mode:multiply;fill:#887cab}.aR{mix-blend-mode:soft-light;fill:#fffff4}.aS{fill:#0b0025}.aT{opacity:.2;mix-blend-mode:multiply;fill:#887cab}.aU{fill:#1a0c1b}.aV{fill:#3d2f86}.aW{mix-blend-mode:multiply;fill:url(#g84)}.aX{fill:url(#g85)}.aY{fill:url(#g86)}.aZ{opacity:.6;mix-blend-mode:multiply;fill:url(#g87)}.b0{opacity:.6;mix-blend-mode:multiply;fill:url(#g88)}.b1{fill:url(#g89)}.b2{fill:url(#g90)}.b3{mix-blend-mode:multiply;fill:url(#g91)}.b4{fill:url(#g92)}.b5{fill:url(#g93)}.b6{opacity:.6;mix-blend-mode:multiply;fill:url(#g94)}.b7{opacity:.6;mix-blend-mode:multiply;fill:url(#g95)}.b8{mix-blend-mode:multiply;fill:url(#g96)}.b9{fill:url(#g97)}.ba{fill:url(#g98)}.bb{opacity:.6;mix-blend-mode:multiply;fill:url(#g99)}.bc{opacity:.6;mix-blend-mode:multiply;fill:url(#g100)}.bd{mix-blend-mode:multiply;fill:url(#g101)}.be{opacity:.6;mix-blend-mode:multiply;fill:url(#g102)}.bf{opacity:.6;mix-blend-mode:multiply;fill:url(#g103)}.bg{mix-blend-mode:screen;fill:url(#g104)}.bh{fill:url(#g105)}.bi{fill:url(#g106)}.bj{fill:url(#g107)}.bk{fill:url(#g108)}.bl{fill:url(#g109)}.bm{fill:url(#g110)}.bn{fill:url(#g111)}.bo{fill:url(#g112)}.bp{fill:url(#g113)}.bq{fill:url(#g114)}.br{fill:url(#g115)}.bs{fill:url(#g116)}.bt{fill:#270c72}.bu{fill:url(#g117)}.bv{fill:url(#g118)}.bw{opacity:.5;mix-blend-mode:multiply;fill:#887cab}.bx{opacity:.5;mix-blend-mode:multiply;fill:url(#g119)}.by{fill:url(#g120)}.bz{fill:url(#g121)}.bA{opacity:.5;mix-blend-mode:multiply;fill:url(#g122)}.bB{fill:url(#g123)}.bC{fill:url(#g124)}.bD{opacity:.5;mix-blend-mode:multiply;fill:url(#g125)}.bE{fill:url(#g126)}.bF{fill:url(#g127)}.bG{opacity:.5;mix-blend-mode:multiply;fill:url(#g128)}.bH{fill:#020533}.bI{fill:url(#g129)}.bJ{fill:url(#g130)}.bK{fill:url(#g131)}.bL{opacity:.5;mix-blend-mode:multiply;fill:#3d208b}.bM{opacity:.8;mix-blend-mode:multiply;fill:url(#g132)}.bN{opacity:.8;mix-blend-mode:multiply;fill:#3d208b}.bO{fill:url(#g133)}.bP{fill:url(#g134)}.bQ{fill:url(#g135)}.bR{fill:url(#g136)}.bS{opacity:.5;mix-blend-mode:soft-light;fill:#ffdea1}.bT{fill:url(#g137)}.bU{fill:#6b275e}.bV{fill:url(#g138)}.bW{fill:url(#g139)}.bX{opacity:.3;mix-blend-mode:multiply;fill:#771d69}.bY{fill:url(#g140)}.bZ{fill:#ff6a4a}.c0{fill:url(#g141)}.c1{fill:url(#g142)}.c2{fill:url(#g143)}.c3{fill:url(#g144)}.c4{opacity:.4;mix-blend-mode:multiply;fill:#887cab}.c5{opacity:.3;fill:url(#g145)}.c6{mix-blend-mode:multiply;fill:url(#g146)}.c7{opacity:.9;mix-blend-mode:screen;fill:url(#g147)}.c8{opacity:.8;mix-blend-mode:multiply;fill:url(#g148)}.c9{fill:#540016}.ca{fill:url(#g149)}.cb{fill:url(#g150)}.cc{fill:url(#g151)}.cd{fill:url(#g152)}.ce{fill:url(#g153)}.cf{opacity:.5;fill:url(#g154)}.cg{mix-blend-mode:multiply;fill:url(#g155)}.ch{opacity:.5;fill:#f74545}.ci{mix-blend-mode:screen;fill:url(#g156)}.cj{fill:url(#g157)}.ck{fill:url(#g158)}.cl{fill:url(#g159)}.cm{opacity:.6;fill:url(#g160)}.cn{opacity:.7;mix-blend-mode:multiply;fill:url(#g161)}.co{fill:url(#g162)}.cp{fill:url(#g163)}.cq{fill:url(#g164)}.cr{opacity:.3;mix-blend-mode:multiply;fill:url(#g165)}.cs{opacity:.8;mix-blend-mode:soft-light;fill:#ffffa4}.ct{fill:#79404d}.cu{opacity:.3;fill:#7789b3}.cv{opacity:.3;fill:#adcce3}.cw{fill:#9e2929}.cx{opacity:.3;fill:#8da3d4}.cy{fill:url(#g166)}.cz{fill:url(#g167)}.cA{fill:#5e1c2b}.cB{fill:#3d1239}.cC{fill:url(#g168)}</style><g clip-path="url(#cp1)"><path class="a" d="m95.3 0l250.6 173.4 105.9 0.9 252.7-174.3z"/><path fill-rule="evenodd" class="b" d="m683.6 40.3l69.5 1-2.3 1.1-69.2-0.9-84.9 46 73.6 1.8v1.3l-75.8-1.9-43 23.3 35.8-0.4 0.1 0.9-37.5 0.4-37.9 20.5 42.3 0.4v0.6l-43.5-0.4-22.4 12.2 26.7 0.6v0.6l-27.8-0.6-14.7 8 15.8 0.4-0.1 0.4-16.4-0.5-8.6 4.7h14.1v0.3l-14.7 0.1-9.1 4.9h9.1v0.4l-9.8-0.1-6.5 3.6 10.1-0.1v0.4h-10.8l-3 1.7 7-0.2v0.2l-7.5 0.2-3.7 2.1 7.4-0.3v0.2l-7.9 0.3-5.8 3.2 13.9-0.4v0.3l-14.4 0.3-2.1 1.2-0.1-0.2 1.7-1-9.8 0.3-2.1 1.5-0.1-0.2 1.8-1.3-7.4 0.2-1.6 1.6-0.1-0.2 1.3-1.4-7 0.1-0.8 1.7-0.2-0.2 0.7-1.5-8 0.2v1.7h-0.2v-1.7l-7.3 0.2 0.8 1.6-0.2 0.2-0.8-1.8-6.6 0.1 1.6 1.7-0.2 0.2-1.7-1.8-7 0.1 2.3 1.7-0.1 0.3-2.6-2-5.7 0.2 3.3 1.7-0.1 0.2-3.7-1.9-16.4 0.3v-0.2l16-0.4-3.6-1.9-12.4 0.4v-0.2l11.9-0.5-4.4-2.3-7.5 0.2v-0.3l7.1-0.2-7.2-3.8h-2.6v-0.4h1.9l-8.7-4.7h-4.7v-0.4h4l-7-3.7h-6.4v-0.4h5.7l-15.9-8.6-10.7-0.2v-0.4l9.9 0.2-15.3-8.2-14.8-0.3v-0.7l13.6 0.3-18.8-10.1-14.7-0.1v-0.6l13.5 0.1-28.4-15.3-30.6 0.4v-0.9l29-0.3-68.8-37.1-49.1-1.2v-1.3l46.6 1.2-80.1-43.1-72.2-0.9 0.1-1.3 69.7 0.9-59.8-32.1 0.4-1.2 61.6 33.4 78.6 1-45.2-33.2 0.5-1.1 46.4 34.4 67.7 0.9-32.2-34.3 0.6-1 32.9 35.3 70.1 0.9-17.4-35.4 0.9-0.6 17.5 36.1 77.9 1 0.3-36.8h1l-0.5 36.8 75.7 1 18.9-38.1 0.8 0.6-18.7 37.5 71.5 1 38.1-39.3 0.6 1-37.4 38.3 56.5 0.8 53.8-40.1 0.5 1.1-52.7 39 74.3 1 75.5-41.2 0.4 1.2zm-135.6-0.7l-44.3 45.4 39.3 1 61.2-45.6zm-174 104.6l3.9 8.1 20 0.5v-8.1zm24-0.1l0.1-11.2-29.7-0.3 5.3 11zm-19.8 8.6l3.4 7h16.3v-6.5zm3.7 7.4l2 4.2 14 0.1v-4.3zm2.2 4.6l2.1 4.2h11.7v-4.1zm14 4.2h12.1l2-4-14.1-0.1zm14.3-4.3l2.3-4.5h-16.4l-0.1 4.3zm2.4-4.8l3-6.1-19.5-0.5-0.1 6.6zm3.2-6.4l4-8.1-23.6-0.5-0.1 8.1zm4.3-8.7l5.7-11.5-29.4-0.2-0.1 11.1zm5.9-12l9.3-18.6-38.7 0.4-0.3 17.9zm-30-18.1l-38.4 0.4 8.3 17.1 30 0.3zm-39.1 0.4l-34 0.4 15.4 16.6 27.1 0.2zm-18 17.6l9.9 10.6 22.2 0.5-5.4-10.9zm10.6 11.3l7.6 8.2 18.3 0.5-4-8.2zm8 8.6l7 7.5h14.6l-3.5-7.1zm7.4 7.9l3.8 4.1 12.7 0.1-2-4.2zm4.1 4.5l4.1 4.4 10.6-0.1-2.1-4.2zm4.4 4.8l3.1 3.3 8.8-0.3-1.5-3.1zm12.2 3.1l10-0.3v-2.8h-11.5zm10.2-0.3l10.7-0.3 1.3-2.5h-12zm11-0.3l9.8-0.3 2.2-2.3-10.7 0.1zm12.4-3l3.7-3.8-12.7-0.1-1.9 3.9zm4-4.2l4.5-4.6h-15l-2.3 4.5zm4.9-5l5.4-5.5-17.6-0.5-3 6zm5.7-5.9l7.8-8-21.5-0.5-4 8.1zm8.4-8.7l11.3-11.7-27.4-0.2-5.7 11.4zm11.9-12.3l18.6-19.2-37 0.4-9.3 18.6zm19.5-20.2l25.7-26.5-49-1.2-14.1 28.1zm-24-27.7l-52.8-1.4-0.3 30 39.1-0.5zm-53.4-1.3l-54.6-1.4 15.5 31.8 38.9-0.5zm-55.4-1.4l-49.9-1.3 31.1 33.5 34.4-0.4zm-50.9-1.3l-48.9-1.2 47.4 35.1 32.9-0.4zm-0.3 34.7l21.5 16 26.6 0.2-15.5-16.5zm22.4 16.6l14 10.4 22.3 0.5-10-10.7zm14.9 11.1l11.1 8.2 18.6 0.4-7.6-8.1zm11.6 8.6l10.8 8 14.7-0.1-7.1-7.5zm11.3 8.4l5.3 3.9 13.1 0.1-3.8-4zm5.8 4.3l6.1 4.5h10.9l-4.1-4.4zm6.7 4.9l4.8 3.6 9-0.2-3.1-3.4zm5.2 3.9l3.1 2.3 8-0.3-2.2-2.3zm11.5 2l7.6-0.2-1.1-2.3-8.7 0.2zm7.9-0.3l8.7-0.3 0.1-2.2-9.9 0.3zm9-0.4l9.5-0.3 1.1-2.2-10.6 0.3zm9.8-0.4l8.7-0.3 2.1-2.1-9.7 0.2zm9-0.3l8.9-0.3 2.8-2.1-9.6 0.3zm12-2.7l2.7-2h-10.1l-2.2 2.3zm3.2-2.4l4.9-3.7-11.4-0.1-3.8 3.8zm5.5-4.1l6.4-4.7h-13.5l-4.5 4.6zm6.9-5.1l6.9-5.2-15.1-0.3-5.4 5.5zm7.4-5.5l10.7-8-18.1-0.4-7.8 8zm11.5-8.6l16-11.9-22.9-0.2-11.4 11.7zm16.8-12.5l26.5-19.8-30.8 0.3-18.8 19.2zm27.8-20.6l33.6-25.2-38.9-1-25.8 26.5zm-32-73.7l-22.6 45 49.6 1.3 44-45.4zm-76.1-1l-0.6 44.7 53.3 1.4 22.4-45.1zm-78.1-1l21.6 44.3 55.3 1.4 0.4-44.7zm-70.6-0.9l40.9 43.9 50.5 1.3-21.8-44.3zm-68.4-0.9l58.8 43.5 49.5 1.3-41.2-43.9zm0 42l57.4 1.5-59.1-43.6-78-1zm70.8 38.3l36.2-0.4-47.8-35.1-56.7-1.5zm29.8 16.2l29.2 0.2-21.7-15.9-35.7 0.4zm19.9 10.8l24.2 0.5-14.1-10.4-28.9-0.3zm16.5 8.9l19.8 0.5-11.1-8.2-23.9-0.5zm16.4 8.9h14.9l-10.9-8-19.7-0.5zm7.7 4.2l13 0.1-5.4-3.9h-14.6zm9.3 5h10.3l-6.1-4.5-12.8-0.1zm7.7 4.1l8-0.2-4.9-3.6h-10.1zm4.8 2.6l6.7-0.2-3.2-2.4-7.9 0.3zm9.8 2l-2.8-2-6.5 0.2 3.6 2zm7.5-0.2l-2.1-2.2-7.8 0.3 2.8 2.1zm7-0.2l-1.2-2.3-7.5 0.2 2 2.2zm7.7-0.1v-2.5l-8.6 0.3 1.1 2.3zm8.4-0.2l1.3-2.6-9.4 0.4v2.4zm7.4-0.1l2.7-2.8-8.6 0.3-1.3 2.6zm7.9-0.2l3.9-2.9-8.7 0.3-2.8 2.8zm16.1-3.4l-11.7 0.5-3.9 2.9 9.8-0.2zm4.2-2.3l-12.6 0.4-2.9 2 11.8-0.4zm3.5-1.9h-13.1l-2.7 2 12.8-0.3zm7.2-4l-14.8-0.1-5 3.7h13.3zm9.7-5.3h-17.6l-6.4 4.8 15 0.1zm9.2-5l-19.4-0.5-6.9 5.1h17.8zm15.3-8.3l-23.4-0.6-10.8 8.1 19.5 0.5zm23.4-12.8l-29.9-0.3-16 11.9 23.7 0.6zm38.7-21.2l-41.1 0.4-26.7 19.9 30.2 0.2zm44.5-24.2l-50.5-1.3-33.9 25.1 41.5-0.5zm86.5-47.1l-73.8-1-61.5 45.6 51 1.3z"/><path class="c" d="m144.4 34l201.5 139.4 6 89.7-353 114.2 1.2-377.3z"/><path class="d" d="m655.2 34l-203.4 140.3-7.7 87.9 355.9 106.3v-368.5z"/><path class="e" d="m-0.6 377.3l1.2 22.7h800v-19.6l-355.9-118.2-92.3 0.9z"/><path fill-rule="evenodd" class="f" d="m679.9 367.7l-63.6 0.7 56 31.2-0.5 0.8-57.1-32-67.3 0.8 37.4 30.4-0.6 0.8-38.1-31.2-71.5 0.7 18.8 29.8-0.9 0.6-18.9-30.3-75.7 0.8 0.5 29.2h-1l-0.3-29.2-77.8 0.8-17.6 28.7-0.9-0.6 17.5-28.1-70.2 0.8-32.8 28-0.7-0.8 32.2-27.2-77.4 0.8-48.6 27.2-0.4-0.8 47.2-26.4-68.7 0.8-61.7 26.5-0.3-1 59.7-25.5-69.7 0.7v-1l72.1-0.7 80.1-34.3-46.6 1v-1l49.1-1 68.9-29.4-29.1-0.3v-0.7l30.7 0.3 28.3-12.1-13.5 0.1v-0.5l14.7-0.1 18.8-8.1-13.6 0.3v-0.5l14.8-0.3 15.4-6.5-10 0.2v-0.3l10.7-0.2 15.9-6.8h-5.7v-0.3h6.4l7-3.1-3.9 0.1v-0.3l4.7-0.1 8.7-3.7h-1.9v-0.3h2.6l7.1-3-7.1-0.2v-0.2l7.5 0.2 4.4-1.9-11.9-0.3v-0.2l12.4 0.3 3.6-1.5-16-0.3v-0.2l16.5 0.3 3.6-1.6 0.1 0.2-3.2 1.4 5.5 0.1 2.7-1.5 0.1 0.1-2.4 1.4 7.1 0.1 1.8-1.5 0.1 0.2-1.6 1.3 6.6 0.1 0.9-1.4 0.1 0.1-0.8 1.4 7.3 0.1v-1.3h0.2v1.3l8.1 0.1-0.8-1.2 0.2-0.1 0.8 1.3 7.1 0.2-1.4-1.2 0.1-0.1 1.6 1.3 7.5 0.1-1.8-1 0.1-0.2 2.2 1.2 9.6 0.2-1.7-0.7 0.1-0.2 2.1 0.9 14.5 0.3v0.2l-14-0.3 5.8 2.5 7.9 0.3v0.1l-7.4-0.2 3.8 1.6 7.5 0.2v0.2l-7.1-0.1 3 1.2 10.8 0.1v0.3l-10.1-0.1 6.6 2.9 9.8-0.1v0.3h-9.2l9.1 3.9 14.7 0.1v0.3l-14-0.1 8.5 3.7 16.5-0.3v0.3l-15.8 0.3 14.7 6.4 27.9-0.5v0.5l-26.7 0.4 22.4 9.7 43.5-0.3v0.5l-42.4 0.3 37.9 16.3 37.5 0.3v0.7l-35.8-0.3 43 18.5 75.7-1.5v1l-73.5 1.5 84.8 36.5 69.2-0.7 2.3 0.9-69.4 0.7 73.9 31.8-0.4 1zm-131.4-57l-36.2-0.3 35.4 19.8 43.6-0.9zm-132.5-33.2l-3-4.8h-16.6l0.1 5.2zm-19.5 0.6l0.1 6.5 23.6-0.4-4.1-6.4zm16.4-5.8l-2.3-3.6-14.2 0.1v3.5zm-2.4-3.9l-1.9-3.1-12.2-0.1 0.1 3.3zm-14.4-3.2h-11.6l-2.1 3.4 13.8-0.1zm-14 3.7l-2 3.3h16v-3.4zm-2.2 3.6l-3.5 5.6 19.8-0.4-0.1-5.2zm-3.6 5.9l-4 6.5 24-0.4-0.1-6.5zm-4.3 7l-5.3 8.7 29.7-0.2-0.1-8.9zm24.7 8.4l29.5-0.2-5.7-9.1-23.9 0.4zm29.9-0.2l27.4-0.2-11.4-9.3-21.8 0.4zm15.5-9.9l-7.8-6.4-17.8 0.3 4.1 6.4zm-8.2-6.6l-5.4-4.5h-15.2l3 4.8zm-5.7-4.7l-4.5-3.7-12.8 0.1 2.3 3.6zm-4.9-4l-3.7-3h-10.9l2 3.1zm-4.1-3.3l-2.2-1.8-9.8-0.3 1.3 2zm-12.3-2l-10.7-0.2v2.2h12zm-11-0.2l-10-0.2-1.5 2.4h11.5zm-10.2-0.2l-8.8-0.2-3.1 2.6 10.4 0.1zm-12.3 2.7l-4.1 3.5 12.6-0.1 2.1-3.4zm-4.5 3.8l-3.8 3.3h14.5l2-3.4zm-4.1 3.6l-7 5.9 18.1-0.3 3.5-5.6zm-7.4 6.3l-7.6 6.5 22-0.4 4-6.5zm-8.2 7l-10 8.5 26.8-0.2 5.4-8.7zm-10.5 9l-15.5 13.1 34.1 0.3 8.4-13.6zm19.2 13.4l38.5 0.4-0.2-14.2-29.9 0.2zm38.9 0.3l38.7 0.3-9.2-14.7-29.7 0.2zm39.3 0.3l37 0.4-18.6-15.3-27.7 0.2zm37.8 0.3l35.9 0.3-28.2-15.8-26.5 0.2zm6.8-16l-16.8-9.4-20.8 0.3 11.4 9.3zm-17.8-9.9l-11.3-6.4-17.1 0.4 7.9 6.3zm-11.9-6.6l-7.3-4.1h-15l5.4 4.4zm-7.8-4.3l-6.7-3.8-12.7 0.1 4.5 3.6zm-7.2-4l-5.3-3h-11l3.8 3.1zm-5.8-3.3l-2.8-1.5-10.2-0.3 2.2 1.8zm-3.2-1.8l-3-1.6-9.2-0.3 2.1 1.7zm-12.6-1.9l-8.7-0.3 1.1 1.7 9.7 0.3zm-8.9-0.3l-9.6-0.3v1.8l10.7 0.2zm-9.8-0.2l-8.7-0.3-1.1 1.8 9.8 0.2zm-9-0.2l-7.6-0.2-2.2 1.8 8.7 0.2zm-8-0.2l-8.2-0.3-3.3 1.9 9.3 0.2zm-11.8 1.8l-5.1 2.9h11.4l3.2-2.7zm-5.7 3.2l-6.4 3.6 13.9-0.1 4.1-3.5zm-7 3.9l-5.5 3.1 15.8 0.1 3.8-3.3zm-6 3.4l-11.4 6.4 20.3-0.4 7.1-6zm-12 6.8l-11.6 6.5 24.5-0.5 7.7-6.5zm-12.6 7.1l-14.6 8.2 29.5-0.2 10-8.5zm-15.6 8.8l-22.5 12.6 36.8 0.3 15.5-13.1zm-23.7 13.3l-50 28 55.8-1.1 31.4-26.6zm6.8 26.9l49.9-1 15.7-25.3-34.5-0.3zm50.7-1l54.7-1.1-0.3-23.8-38.9-0.4zm55.3-1.1l52.7-1.1-14-22.3-39.1-0.4zm53.4-1.1l49.1-1-25.7-21-37.5-0.3zm50-1.1l45.8-0.9-35.3-19.8-36.4-0.3zm8.5-37.4l-26.6 0.2 28.4 15.8 35.9 0.3zm-23.4-10.1l-21.2 0.4 17 9.4 26.4-0.2zm-15.8-6.8l-17.6 0.3 11.4 6.4 20.9-0.4zm-9.2-3.9h-16.3l7.3 4 17.5-0.3zm-9.6-4.2l-14 0.1 6.8 3.7 16.1 0.1zm-7.1-3.2h-12.6l5.3 3 13.8-0.1zm-3.7-1.6l-12.3-0.3 2.9 1.5 12.4 0.1zm-4.2-1.9l-11.4-0.3 3 1.7 12.1 0.2zm-16-2.8l4.2 2.3 11.3 0.3-5.8-2.5zm-8.1-0.1l2.8 2.2 9.1 0.3-4.2-2.4zm-7.5-0.1l1.3 2.1 8.6 0.2-2.7-2.2zm-8.4-0.1v1.9l9.4 0.3-1.3-2.1zm-7.6-0.1l-1.2 1.8 8.6 0.3v-2zm-6.9-0.1l-2.1 1.7 7.6 0.3 1.2-1.9zm-7.6-0.1l-2.9 1.6 8.1 0.2 2-1.7zm-9.6 1.5l6.3 0.1 2.9-1.6-5.6-0.1zm-4.8 2.1l7.4 0.1 3.4-1.8-6.4-0.2zm-7.5 3.2h9.4l5.2-2.9-7.6-0.1zm-9.3 4l11.7-0.1 6.5-3.6h-9.5zm-7.8 3.3h13.3l5.6-3.1-11.9 0.1zm-16.4 7l17.7-0.3 11.5-6.4h-13.5zm-15.9 6.8l21.4-0.3 11.7-6.6-17.9 0.4zm-19.9 8.6l25.6-0.2 14.8-8.3-21.7 0.4zm-29.4 12.7l31.6 0.2 22.5-12.6-25.9 0.2zm-69.9 30.1l49.8-1 50.4-28.1-31.9-0.3zm-13.9 34.6l61.9-34.6-50.4 1.1-79.7 34.2zm78.6-0.8l41.2-34.9-56.4 1.1-61.6 34.6zm70.9-0.8l21.8-35.2-50.5 1.1-40.9 34.9zm78.2-0.9l-0.3-35.5-55.3 1.2-21.6 35.2zm75.9-0.8l-22.3-35.8-53.4 1 0.6 35.5zm72-0.7l-44-36.1-49.6 1 22.6 35.8zm68-0.7l-64.7-36.3-46.4 1 44.4 36zm64.7-0.7l-84.3-36.5-44 0.9 65.2 36.3z"/><g style="opacity:.4;mix-blend-mode:multiply"><path class="g" d="m549.3 331.1l65.4 36.4 63.1-0.7-84.3-36.5z"/><path class="h" d="m585.3 400l-38.7-31.5 68.1-1 57.1 32.9z"/><path class="i" d="m474 369l71-0.7-44.5-36.5-49.1 1.4z"/><path class="j" d="m398.4 400l-0.6-29.2 76.2-1.8 18.5 31.3z"/><path class="k" d="m341.2 335.8l-21.3 34.8 77.9 0.2-0.6-37.1z"/><path class="l" d="m396.8 309.5l0.4 24.2 52.9-1.5-14-22.3z"/><path class="m" d="m474.9 310.2l25.7 20.9 45.9-0.8-35.4-19.8z"/><path class="n" d="m549.8 310.8l43 18.5 52.3-1-56.6-18.1z"/><path class="o" d="m681.9 367.7l75.8 32.3h42.3v-19.6l-44.2-14.7z"/><path class="p" d="m300.4 400.4l17.9-28.8-70.2 0.8-32.8 28z"/><path class="q" d="m291.5 335.3l31.2-26.6 34.3 0.5-15.7 25.3z"/><path class="r" d="m289.2 336.5l-41.2 34.9-76.9 0.8 61.6-34.5z"/><path class="s" d="m119.4 400l48.2-26.8-68.7 0.8-61.7 26.5z"/><path class="t" d="m11.5 373.2l87.4 0.8 82.7-36.3-66.4 2z"/><path class="u" d="m184.1 337.6l49.4-1.1 49.8-27.8-31.6-0.4z"/><path class="v" d="m286 307.8l36.7 0.9 16.1-13.7-30.5 0.3z"/><path class="w" d="m215.2 307.3l36.5 1 28.5-12.7-24.9-1.2z"/><path class="x" d="m358 308.5h38.8l-0.5-13.9-30 0.2z"/><path class="y" d="m436.2 309.2l-9.2-14.6 27.7-0.3 18.5 15.2z"/><path class="z" d="m511.1 309.8l-28.5-15.8 26.6-0.2 37.6 16.3z"/><path class="A" d="m486.7 283.6l22.4 9.7 28.2-0.3-29.8-9.7z"/><path class="B" d="m464.1 283.7l16.8 9.8h-26.2l-11.5-9.1z"/><path class="C" d="m426.1 293.8l-29.3 0.2-0.2-8.8 23.9-0.3z"/><path class="D" d="m366.3 294.8l5.4-9.1-22.2 0.2-9.9 8.5z"/><path class="E" d="m308.3 295.3l14.1-8.4-20.5-0.2-19.4 8.3z"/><path class="F" d="m324.3 285.9l12.1-6.4 20.6-0.4-7.5 6.8z"/><path class="G" d="m372.3 285.2l3.7-6.1 19.9-0.8v6.4z"/></g><path class="H" d="m261.7 316.4l74.8 6 13.4-2.7v4.5l-4.2 2.2 6.6-1.5 95.5 2.8 20.6 2.9-18.1-4.8-4-6.1 11.1-0.3 21.4-2.5 10.2-2 28.4 0.8 16-5.7-74.2 0.9-41.8 0.2-31.3-0.5-13.2 2.2-4.6-1.9-71.3 1.3-20.3 2.1z"/><path class="I" d="m270.1 317.1l27.4-3.8 70.8-1.5 3.6 2.3 31.1-1.6h93 30.4l7-2.5-147.3 0.6-13.2 2.2-4.6-1.9-71.3 1.3-20.3 2.1-15 2.1z"/><path class="J" d="m448.1 322.4l-9.8 1.6 9.5 2.8 20.6 3.8-18.1-4.8z"/><path class="K" d="m349.9 322.8l5.7 2.2-2.9-0.1-7 1.5 4.2-2.2z"/><path class="L" d="m446.3 319.7l-0.6 2 4.2 5.1 12 2.9 6.5 0.9-18.1-4.8z"/><path class="L" d="m349.9 319.7l0.8 2.6-0.1 2.3-2.9 1.4-2 0.4 4.2-2.2z"/><path class="L" d="m261.7 316.4l4.7 0.3 30.2-4 71.9-1.1 5 2 12.2-1.4 1.3-0.3 141.4-1.1 3.1-0.1 1.9-0.7-147.3 0.6-11.7 1.9h-2l-4.1-1.6-71.3 1.3-19.1 2z"/><path class="M" d="m351.9 263.1l-6-89.7 105.9 0.9-7.7 87.9z"/><path class="N" d="m351.4 256l93 2.6-0.3 3.6-92.2 0.9z"/><path class="O" d="m187 381.8c0 0 14.6-0.7 20.7 0 0 0-5.5 0.8-9.8 0.9-4.2 0.1-10.9-0.9-10.9-0.9z"/><path class="P" d="m207.7 370.3c0 0 9.2-0.4 13 0 0 0-3.5 0.5-6.2 0.6-2.6 0-6.8-0.6-6.8-0.6z"/><path class="O" d="m376.1 292.9c0 0 7.4-0.4 10.5 0 0 0-2.8 0.4-5 0.5-2.1 0-5.5-0.5-5.5-0.5z"/><path class="O" d="m233 372.2h15.5l7.6 1.3c0 0-14.3 0-23.1-1.3z"/><path class="Q" d="m430.5 283.9h1.9l2.4 0.2c0 0-1.9 0.2-4.3-0.2z"/><path class="R" d="m388.4 317.5c0 0 7-0.6 9 0h1.8c0 0-3.9 0.4-10.8 0z"/><path class="R" d="m372.4 318.3c0 0 11.3-0.8 14.5 0h2.8c0 0-6.2 0.7-17.3 0z"/><path class="R" d="m382.2 289.4c0 0 5.8-0.5 7.4 0h1.5c0 0-3.2 0.3-8.9 0z"/><path class="O" d="m342.9 287.4l0.9-0.7 2.1 0.2v0.5z"/><path class="S" d="m389.7 294.8v-0.6l1.5 0.1 0.9 0.5z"/><path class="O" d="m421.1 270.2c0 0 3.8-0.2 5.4 0 0 0-1.4 0.2-2.5 0.3-1.1 0-2.9-0.3-2.9-0.3z"/><path class="R" d="m424.3 268.4c0 0 2.9-0.2 3.7 0h0.7c0 0-1.6 0.2-4.4 0z"/><path class="T" d="m428 271.2v-0.3h0.8l0.5 0.3z"/><path class="O" d="m424.7 378.4c0 0 14.6-0.7 20.7 0 0 0-5.5 0.8-9.8 0.9-4.2 0.1-10.9-0.9-10.9-0.9z"/><path class="R" d="m436.8 371.5c0 0 11.3-0.9 14.4 0h2.8c0 0-6.1 0.7-17.2 0z"/><path class="U" d="m451.3 382.1v-1.1h2.9l2 1.1z"/><path class="V" d="m357 283.3v-0.5h1.5l1 0.5z"/><path class="O" d="m487.5 345l1.7-1.4 4.1 0.3v1.1z"/><path class="V" d="m515 337v-1.1h3l1.9 1.1z"/><path class="V" d="m407.1 321.1v-1.1h3l1.9 1.1z"/><path class="R" d="m307.7 353.5c0 0 7.1-0.6 9.1 0h1.7c0 0-3.8 0.4-10.8 0z"/><path class="R" d="m291.8 354.3c0 0 11.2-0.8 14.4 0h2.8c0 0-6.1 0.7-17.2 0z"/><path class="V" d="m326.5 357.1v-1.1h2.9l1.9 1.1z"/><path class="O" d="m425.4 285.6l0.8-0.7 2.1 0.1v0.6z"/><path class="W" d="m490.8 304.3c0 0 2.7-0.7 5.4-0.7 2.7 0.1 5.8 1 5.8 1 0 0-4.6 0.8-11.2-0.3z"/><path class="X" d="m493 304.2l-1.4-1 1.4-0.7v-1.3l0.7-2 1.7-0.3 2.7-0.6 0.1 1.6 1.1 1.3-1 1.4-0.8 1.8-3-0.6z"/><path class="Y" d="m498.1 298.3l-0.3 1.4h-2l-2.2-0.3 0.8 0.7 3.1 0.5 1.4 0.8-1.1 0.9-1.8-1.1 0.7 1.6-1.3 0.4-1.6-0.7-0.8-1.3v1.3l1.1 0.5 0.2 0.6-1.3 0.6 1.5-0.4 3 0.6 0.8-1.8 1-1.4-1.1-1.3z"/><path class="W" d="m332.1 276.7c0 0 2.1-0.7 4.3-0.7 2.2 0 4.6 1 4.6 1 0 0-3.7 0.8-8.9-0.3z"/><path class="Z" d="m333.8 276.5l-2-2 1.5-1.3-0.5-1.2 0.8-0.3 2.6 1.2v1.6l0.8 0.2 0.3 1.3 1.6 0.6z"/><path class="Y" d="m336.2 272.9l-1.6 0.6-1.3-0.3 1.4 1h1.5z"/><path class="Y" d="m331.8 274.5l2.1 1.5 1.5-0.4-1.1-0.8 1.4 0.5 1.3-0.6 0.3 1.3-1.5 0.2 3.1 0.4-5.1-0.1z"/><path class="a0" d="m346.3 179.3l105.5-2.5v-2.5l-105.9-0.9z"/><path class="a1" d="m448 218.3l352-54.6v-163.7h-95.5l-252.7 174.3z"/><path class="a2" d="m348.9 218.3l-350-48.6 1.2-169.7h95.2l250.6 173.4z"/><path class="a3" d="m224.3 89.3l-14.7 11.2-3.6 8.5-12.6 11.4-3 7.7-30.4 18.8-0.4 1-3.9 10.6-5.6 5.4 0.1 2.4 8.1-10.9 6.2-8.7 6-3.8 7.7-6.6 12.8-7.3 2.4-7.9 2.6-1.9 10.9-10.7 2.9-7.5 1-1 9.8-5.7 8.3-1.9z"/><path class="a4" d="m800 383.5l-357.2-121.2 1.4-1.1 355.8 106.5z"/><path class="a5" d="m800 371.4l-356.1-110-1.1 0.9 357.2 121.2z"/><path class="a6" d="m523.2 285.9l5.6 5.6 93.9 31.8v-6.7z"/><path class="a7" d="m632.1 319.6l3 7.9 23 7.8v-7.7z"/><path class="a6" d="m665.1 329.7l134.9 41.7v2.4z"/><path class="a8" d="m697.3 339.7c0 0 8.7 3.4 13.5 5 4.8 1.6 7.7 1.5 7.7 1.5z"/><path class="a9" d="m0 381.3l353.1-117.4-1.3-1.4-351.8 104.9z"/><path class="aa" d="m0 371.6l352.1-108.7 1 1-353.1 122.8z"/><path class="a6" d="m277.3 285.9l-5.5 5.6-93.9 31.8v-6.7z"/><path class="a7" d="m168.4 319.6l-2.9 7.9-23 7.8v-7.7z"/><path class="a6" d="m135.5 329.7l-135.5 41.9 0.4 3.1z"/><path class="ab" d="m103.3 339.7c0 0-9 3.7-13.8 5.3-4.8 1.6-7.4 1.2-7.4 1.2z"/><path class="ac" d="m601 316l4.2-158.3 74-37.4-7.4 211.6-2.3 7.3z"/><path class="ad" d="m601 316l23.4-0.6 48.9 14.1-1.5 2.4-2.3 7.3z"/><path class="ae" d="m624.4 315.4l1.1-153.8 53.2-24.3-5.4 192.2z"/><path class="af" d="m625.5 161.6l-20.3-3.9 74-37.4-0.5 17z"/><path class="ag" d="m604.2 194.1l21.1 1.9-0.9 119.4-23.4 0.6z"/><path class="ah" d="m636.3 177.2v60.2h34.6l1.6-70.5z"/><path class="ai" d="m636.3 177.2l2.9-0.9 0.5 61.1h-3.4z"/><path class="aj" d="m633.2 247.4c0.9 2.3 0.5 4.5-0.9 5.1-1.3 0.5-3.1-0.9-4-3.1-0.9-2.3-0.5-4.5 0.8-5 1.4-0.6 3.2 0.8 4.1 3z"/><path class="ak" d="m673.4 327.4l-49-12.5 2.4-152.3 51.9-25.3-53.2 24.3-1.1 153.8 48.9 14.1z"/><path class="al" d="m630.5 246l-3.2-1.3v3.7l3.2-0.6c0.4-0.6 0.2-1.6 0-1.8z"/><path class="am" d="m630 246.7c0 2.7-1.5 4.3-3.7 4.3-1.4 0-1.9-2.1-1.9-4.3 0-2.3-0.3-3.9 2.5-4 1.6-0.1 3.1 1.4 3.1 4z"/><path class="an" d="m625.9 242.8c-3.1 0.3-2.7 7.8 0 8.2 2.3 0.3 3.1-2.9 2.8-5.3-0.2-2.1-1.3-3-2.8-2.9z"/><path class="ao" d="m625.5 243.6c-2.1 0.5-2.2 5.9 0 6.1 1.6 0.3 2.4-2.1 2.2-3.8-0.2-1.6-1-2.6-2.2-2.3z"/><path class="ap" d="m605.2 157.7l20.1 14.8 52.8-12.9 1.1-39.3z"/><path fill-rule="evenodd" class="aq" d="m639.4 213.9v-0.6-0.3l7.4 0.3 1.3-2.1 4.1-4.5-12.9-13v-0.4l13.5 13.4h0.7l10.1 4.3 6-7.2 2.1-3 0.1 0.7-2.8 3.4-6.2 7.8-1.1 3.6 11.5 21.1-5.9-7.4-5.9-13.9-2.7-2.7 0.3 0.3-6.1 0.7-13.3-1zm23.8-2.3l-3.5-2.1-5.7-1.7 7 7 1.6-2.5zm0 0l0.4-0.5-0.4 0.5zm-10.4-4.2l-0.7-0.7zm-5.2 6.2l5.3 0.7 5.9-0.8-5.2-5.3-1.5-0.7c0 0-3.7 3.9-3.7 4-0.1 0.2-0.8 2.1-0.8 2.1z"/><path class="ar" d="m669.3 328.3l-3.9-63.2-2.1 4.8-2.2-25.1-1.5 5.5-1.5-2.6-4.3 41.5-1.4-5-5 27.5h-2.6l-20.4 3.6z"/><path class="as" d="m665.4 269.9h-2.1l2.1-4.8z"/><path class="at" d="m660.5 250.3l-4.5 39.5-2.2-0.6-4.6 22.3-1.8 0.2 5-27.5 1.4 4.5 4.3-41 1.5 2.6z"/><path class="au" d="m624.4 315.4l-2.3 59.3 50.2 24.9 1-70.1z"/><path class="av" d="m464.1 269.5l6.5-69.5 29.3-12.4-6.1 91.8z"/><path class="aw" d="m472.7 269.6l6.2-65.5 20.5-8.1-4.9 78.7z"/><path class="ad" d="m464.1 269.5h8.1l22.3 5.2-0.7 5.2z"/><path class="ap" d="m470.6 200l8.3 4.2 20.5-8.2 0.5-8.4z"/><path class="ax" d="m481.4 211.3l-1.3 24.5 14 0.8 2.3-28.6z"/><path class="ay" d="m481.4 211.3l1.2-0.2-1.2 24.8-1.3-0.1z"/><path class="az" d="m469.2 215l8.6 0.6-5.1 54-8.6-0.1z"/><path class="aA" d="m316.5 276.6l-2.7-81.9-29.3-14.4 2.3 106z"/><path class="aB" d="m307.9 275l-2.4-75.5-20.5-9.4 1.1 90.8z"/><path class="ad" d="m316.5 276.6l-8.1-1.7-22.3 6 0.7 6z"/><path class="ap" d="m313.8 194.7l-8.3 4.8-20.5-9.4-0.5-9.8z"/><path class="aC" d="m303 207.8v28.1l-14.5 0.9-0.5-32.9z"/><path class="aD" d="m303 207.8l-1.2-0.3 0.2 28.4h1z"/><path class="aE" d="m306 214.1l8.4-0.5 2.1 63-8.6-1.6z"/><path class="aF" d="m26.9 363.3l5.4-271.6 98 36-4.6 215.3z"/><path class="aG" d="m125.7 343h-33l-65.8 20.3h40.4z"/><path class="aH" d="m103.3 148l27-20.3-98-36-0.6 31.9z"/><path class="aI" d="m125.7 187.3l-24.2 2.9-6.2 152 26.4-2.5z"/><path class="aJ" d="m31.7 123.6l71.6 20.9-8 195.2-68.4 19.7z"/><path class="aK" d="m271.6 304.5l-1.1 82.3h-118v-49.9z"/><path class="aL" d="m493 290.1l-0.5 65.7h92v-40.5z"/><path class="aM" d="m152.5 155.8l-13.5 9.7-1 172.2 57.7-1.9z"/><path class="ap" d="m584.5 178.8l13 9.9v118.6l2.4 8.4-15.4 0.3-32.5-1.6z"/><path class="aN" d="m584.5 315.3v-136.5l-28.8-1.3-3.7 136.9z"/><path class="aO" d="m555.7 177.5l-61.7 25.4-1 87.2 59 24.3z"/><path class="aP" d="m536.2 307.9l4.4-124.2-0.6 0.2-2.7 68.2-1.6 55.6z"/><path class="aP" d="m520.4 301.4l3.9-111-0.4 0.2-3.8 110.7z"/><path class="aP" d="m511.1 297.5l1.2-102.2-0.2 0.1-1.4 102z"/><path class="aP" d="m503 199.2l-1.9 94.3-0.2-0.1 2-94.2z"/><path class="aP" d="m553.8 246.4l-59.4 2.3v-0.2l59.4-2.9z"/><path class="aQ" d="m558.4 177.6l-1.7 68.3-1 68.6h-0.8l1.5-68.6 1.5-68.3z"/><path class="aR" d="m540 183.9l-15.2 6.8-2.1 55.7-0.5 0.8 2.1-56.8z"/><path class="aR" d="m555.7 177.5l-14.6 6.4-1.8 61.7-0.9 0.8 2.2-62.7z"/><path class="aS" d="m539.3 245.6l13.3-0.4 2.8-67.6 0.3-0.1-1.9 68.1-15.4 0.8z"/><path class="aS" d="m553.8 246.4l-0.8 0.7-2 65.6-14.3-5.3-0.5 0.5 15.8 6.5z"/><path class="aR" d="m553.8 246.4l-15.4 0.6-2.2 60.9 0.5-0.5 2.3-60 14-0.3z"/><path class="aS" d="m540 183.9l-0.3 0.2-2.7 61.9-14.5 0.7-0.3 0.5 15.3-0.8z"/><path class="aS" d="m524 190.5l-2.1 56.7-10.2 0.5 0.2-0.3 9.6-0.6 2.2-56.2z"/><path class="aS" d="m512.1 195.4l-0.8 52.3-9.3 0.4 0.4-0.1 8.8-0.5 0.7-52z"/><path class="aR" d="m512.3 195.3l0.4-0.1-0.8 52.2-0.2 0.3z"/><path class="aR" d="m502.9 199.2l0.4-0.2-0.9 49-0.4 0.1z"/><path class="aS" d="m502.9 199.2l-0.2 0.1-1.2 48.6-7.1 0.6 7.6-0.4z"/><path class="aS" d="m537.5 247.1l-1.8 60.6-15.3-6.3h0.3l14.5 5.6 1.7-59.6z"/><path class="aS" d="m521.9 247.7l-1.8 53.6-9-3.8 0.4-0.1 8.4 3.4 1.8-53z"/><path class="aS" d="m511.3 248l-0.6 49.4-9.6-4 0.3-0.2 8.9 3.7 0.8-48.8z"/><path class="aS" d="m501.9 248.4l-1 45-7.9-3.3 0.2-0.3 7.3 3.1 1-44.2z"/><path class="aR" d="m536.9 247.4l-14.1 0.7-2.1 53.3h-0.3l1.9-53.7 15.2-0.6z"/><path class="aR" d="m521.9 247.7l-10.2 0.3-0.6 49.5 0.4-0.1 0.6-48.9 9.6-0.7z"/><path class="aR" d="m511.3 248l-0.2 0.1-8.9 0.6-0.8 44.5-0.3 0.2 0.9-45z"/><path class="aR" d="m501.5 248.7l-7.7 0.3-0.6 40.9-0.2 0.4 0.4-41.6 8.5-0.3z"/><path class="aT" d="m584.5 272.7l-27.9-14.3-0.9 56.1 28.8 0.8z"/><path class="aU" d="m520.7 301.4l1.5-38.8 0.4-10 1.4 8.2-0.6 0.4v1.3l0.6 0.6 0.4 0.3-0.4 1.7-0.4 0.9 0.5 0.6-0.5 2.2h-0.4l-0.3 0.6v0.8l0.2 0.6v0.8l-0.2 0.9 0.1 0.5-0.5 15.2 0.2 0.6 0.1 1.5v0.8l-0.4 0.5v0.8l0.4-0.8 0.9-0.5 0.8 0.5v0.8l-0.7 1.7-0.5 0.2v0.4l0.2 0.2v0.5l-0.2 0.4-0.6 1.7-0.4 0.5v1.3l0.4 1 0.8 0.2 1-0.6 1.1 0.2 0.8 1.3 1.4 0.1 0.6 0.1h0.7l4.1 4.6z"/><path class="aT" d="m555.7 251.1l-2-0.8-1.7 64.1h2.2z"/><path class="aU" d="m501.4 293.2l0.6-17.5v-16.7l1.2 6.7-0.3 0.9 0.3 1.2h0.6v1.2l-0.9-0.2-0.4 1.7 0.8 0.4-0.4 0.8-0.5 0.8 0.5 1v0.8l-0.6 0.6v-1.1l-0.2 1.8 0.8 0.1 0.9-0.3 0.9 0.7 1.7 3.5v1l-0.4 0.5 0.4 0.3 0.6-0.5 0.3 0.1 0.7 0.7-0.7 0.9-0.6-0.1-0.2 0.6 0.8 0.3-0.6 0.8-0.1 1.5 0.1 0.7 0.7 0.5-0.2 0.6h-0.3-0.4l-0.4 1 1.3 1 0.3-0.1-0.1-0.4 0.7-0.1 0.4 0.4 0.3 2.5-0.2 0.1-0.3 0.2-0.2 0.1v0.2l0.3-0.1 0.2-0.1h0.2l0.4 0.5-0.5 0.1v0.2l0.6 2.3 0.5 0.4 0.3 1.2z"/><path class="aU" d="m522.4 246.8l4.3-2.4-1.3-1.3 1.8-2.8 1.3 1.6v1.3h1.4v-2.9l1.3-1.6 0.2-1.7h-1.1l-1.8-2.8 4.2-3.4 2.1 1.2v1.5l0.8-2.7-1.6-4.6-0.6-6.1 3.9-7.4 0.8 0.9v-1.5l-1.3-1.3-0.5-2.1 1.2-1.8 1.3-1.6-1.8 40.7z"/><path class="aU" d="m501.4 247.9l-2-1.7 0.6-0.8-0.9-1.9-0.6 1v0.9h-0.7v-1.9l-0.7-1-0.1-1.2h0.6l0.9-1.9-2.1-2.2-1.1 0.8v1l-0.3-1.8 0.7-3.1 0.3-4-1.9-5-0.4 0.6v-1l0.6-0.9 0.3-1.4-0.6-1.2-0.2-1.9-0.3 29.2z"/><path class="aS" d="m542.6 243.6l7.2-0.3v-2l-7.2 0.4z"/><path class="aV" d="m549.8 241.3l-0.3 1-7.1 0.4 0.2-1z"/><path class="aS" d="m526 244.2l7.3-0.4v-1.8l-7.3 0.5z"/><path class="aV" d="m533.3 242l-0.4 0.9-7.1 0.4 0.2-0.8z"/><path class="aS" d="m513.4 244.7l6.4-0.3v-1.7l-6.4 0.5z"/><path class="aV" d="m519.8 242.7l-0.3 0.9-6.3 0.3 0.2-0.7z"/><path class="aS" d="m504.3 245.2l5.6-0.3 0.1-1.4-5.7 0.4z"/><path class="aV" d="m510 243.5l-0.4 0.7-5.5 0.4 0.2-0.7z"/><path class="aS" d="m495.6 246l4.8-0.3 0.1-1.3-4.8 0.5z"/><path class="aV" d="m500.5 244.4l-0.4 0.7-4.7 0.4 0.3-0.6z"/><path class="aT" d="m552 276.3l-58.9 4.8-0.1 9 59 24.3z"/><path class="aS" d="m539.1 305.4l8.5 2.9v-2l-8.5-2.8z"/><path class="aV" d="m547.6 306.3l-0.3 1-8.4-2.8 0.2-1z"/><path class="aS" d="m523.2 300.2l8 2.5 0.1-1.9-8.1-2.3z"/><path class="aV" d="m531.3 300.8l-0.4 1-7.9-2.4 0.2-0.9z"/><path class="aS" d="m512.5 296.1l6.3 2.3v-1.6l-6.3-2.2z"/><path class="aV" d="m518.8 296.8l-0.4 0.8-6.1-2.3 0.2-0.7z"/><path class="aS" d="m502.6 292.2l5.8 1.8v-1.4l-5.8-1.7z"/><path class="aV" d="m508.4 292.6l-0.3 0.7-5.7-1.8 0.2-0.6z"/><path class="aS" d="m494.5 289l4.5 1.4v-1.2l-4.4-1.3z"/><path class="aV" d="m499 289.2l-0.3 0.6-4.3-1.4 0.2-0.5z"/><path class="aW" d="m522.8 215.6l-4.8 4.8-3.9 5.6-0.5 1.8 2.4 8.7 4.5 1.2 1.3-0.6z"/><path class="aX" d="m521.3 229.2l-3.8-0.7 3.4-1.1z"/><path class="aY" d="m520.9 232.4l-2.5-1.2-2.4 5.3 4.5 1.2 1.3-0.6z"/><path class="aZ" d="m521.1 220.2l-7 5.8 3.9-5.6 4-3.9z"/><path class="b0" d="m517.5 228.5l0.9 2.7 2.5 1.2 0.4-3.2z"/><path class="aU" d="m511.9 247.4l0.7-39.6v-7.4l1.4 5.5-0.7 0.4v1.3l0.7 0.7 0.4 0.2-0.5 1.7-0.4 0.9 0.6 0.6-0.6 2.3-0.4-0.1-0.3 0.7v0.7l0.2 0.6v0.8l-0.2 0.9 0.2 0.5-0.6 15.3 0.3 0.6 0.1 1.4v0.8l-0.5 0.5v0.8l0.5-0.8 0.8-0.5 0.9 0.5v0.8l-0.8 1.8-0.5 0.1v0.4l0.2 0.2v0.5l-0.2 0.4-0.6 1.7-0.3 0.6-0.1 1.2 0.4 1 0.8 0.2 1.1-0.5 1.1 0.1 0.7 1.3 1.5 0.1 0.5 0.1h0.7l2 0.2z"/><path class="aU" d="m539.3 245.6l2.1-0.8 1 0.2 0.2 0.1h0.5l-0.2-0.3 0.5-0.3 1.5 0.2 0.2 0.3v0.1h0.6v-0.3h0.4l0.3 0.2 0.3-0.3 0.5-0.4h1v0.4l-0.4 0.1h0.8v-0.3l-0.2-0.7 0.2-0.2 0.6-0.1 0.2 0.5h0.8l-0.3-0.2v-0.3l0.6-0.3 0.3-1.1 0.7 0.2 0.3 0.2 0.3-0.2 0.3 0.5 0.2-0.6-0.3-0.4 0.1-0.3 0.2-0.3v-0.7l-0.3-0.2-0.1-0.8 0.2-0.7 0.2-0.6-0.2-0.3-0.3-0.5 0.2-0.6 0.3 0.3-0.2 0.2 0.2 0.1 0.1-0.3-0.2-0.3-0.1-0.4 0.2-0.7 0.4-0.3-0.4 9.8z"/><path class="aU" d="m540.6 244.1v-0.5l0.5-0.3 0.4 0.5-0.6 0.5z"/><path class="aU" d="m494.9 224.6v-0.5l0.4-0.3 0.5 0.5-0.6 0.5z"/><path class="aU" d="m519.7 246.1v-0.6l0.5-0.3 0.5 0.6-0.7 0.4z"/><path class="aU" d="m549.9 240.4v-0.5h0.6l0.2 0.5-0.3 0.2z"/><path class="aU" d="m551.3 237.5l-0.6-0.4 0.1-0.3 0.2 0.1z"/><path class="aU" d="m528.5 231.7v-0.5l0.5-0.3 0.4 0.6-0.6 0.4z"/><path class="aU" d="m532 221.2v-0.6h0.7l0.1 0.6-0.2 0.2z"/><path class="aU" d="m533.4 218.3l-0.5-0.4 0.1-0.4 0.2 0.2z"/><path class="aU" d="m513.8 215.2v-0.6h0.7l0.1 0.6-0.2 0.2z"/><path class="aU" d="m515.2 212.3l-0.5-0.4v-0.4l0.3 0.2z"/><path class="aU" d="m496.2 233.9v-0.5h0.7l0.2 0.5-0.3 0.2z"/><path class="aU" d="m497.6 231l-0.5-0.4 0.1-0.3 0.2 0.1z"/><path class="aU" d="m511.3 247.5l-0.6-0.4 0.1-0.3-0.4-0.1-1.1 0.2-0.2 0.2v0.1l-0.4 0.1v-0.2h-0.3l-0.2 0.1-0.3-0.2-0.4-0.2-0.7 0.1v0.2l0.3 0.1h-0.6v-0.2l0.1-0.5-0.2-0.2h-0.5l-0.1 0.4-0.6 0.1 0.2-0.3v-0.1l-0.5-0.3-0.3-0.8-0.6 0.2-0.2 0.2-0.2-0.1-0.2 0.4-0.2-0.4 0.2-0.4v-0.2l-0.2-0.3-0.1-0.5 0.2-0.2 0.1-0.6-0.2-0.5-0.2-0.5 0.1-0.2 0.2-0.4-0.2-0.4-0.2 0.2 0.2 0.2h-0.2l-0.1-0.2 0.2-0.2v-0.4l-0.2-0.4-0.3-0.3-0.1 7.6z"/><path class="aU" d="m510.2 245.8v-0.4l-0.4-0.2-0.4 0.5 0.6 0.2z"/><path class="aU" d="m504 239.8l-0.1-0.5-0.5 0.1-0.1 0.4 0.2 0.2z"/><path class="aU" d="m502.9 241.9l0.4-0.4-0.1-0.3-0.2 0.2z"/><path class="b1" d="m150.1 337.9v-182.7l38.7-1.9 4.9 183.4z"/><path class="b2" d="m188.8 153.3l82.6 34.1 1.4 116.8-79.1 32.5z"/><path class="aP" d="m214.8 328l-5.9-166.4 0.9 0.4 3.6 91.3 2.1 74.5z"/><path class="aP" d="m236.1 319.3l-5.3-148.7 0.6 0.3 5 148.3z"/><path class="aP" d="m248.5 314.2l-1.7-137 0.4 0.2 1.9 136.6z"/><path class="aP" d="m259.3 182.4l2.5 126.3 0.4-0.1-2.8-126.1z"/><path class="aP" d="m191.2 245.7l79.6 3v-0.2l-79.6-3.9z"/><path class="aQ" d="m185.1 153.5l2.2 91.5 1.4 91.9h1.1l-2.1-91.9-1.9-91.5z"/><path class="aR" d="m209.8 162l20.3 9 2.8 74.7 0.7 1-2.8-76.1z"/><path class="aR" d="m188.8 153.3l19.5 8.7 2.4 82.6 1.2 1-3-84z"/><path class="aS" d="m210.7 244.6l-17.8-0.6-3.7-90.5-0.4-0.2 2.4 91.3 20.7 1z"/><path class="aS" d="m191.2 245.7l1.1 1 2.8 87.8 19-7.1 0.7 0.6-21.1 8.7z"/><path class="aR" d="m191.2 245.7l20.7 0.8 2.9 81.5-0.7-0.6-3-80.4-18.8-0.3z"/><path class="aS" d="m209.8 162l0.3 0.1 3.7 83.1 19.4 0.9 0.4 0.6-20.5-1.1z"/><path class="aS" d="m231.2 170.8l2.7 75.9 13.8 0.7-0.3-0.4-12.9-0.8-3-75.2z"/><path class="aS" d="m247.2 177.4l0.9 70 12.5 0.6-0.4-0.2-11.8-0.6-1-69.7z"/><path class="aR" d="m246.8 177.2l-0.5-0.2 1.1 70 0.3 0.4z"/><path class="aR" d="m259.4 182.5l-0.5-0.3 1.3 65.6 0.4 0.2z"/><path class="aS" d="m259.4 182.5l0.4 0.1 1.6 65.1 9.4 0.8-10.2-0.5z"/><path class="aS" d="m213.1 246.7l2.4 81.1 20.6-8.5h-0.5l-19.5 7.5-2.2-79.8z"/><path class="aS" d="m234 247.4l2.4 71.8 12.1-5-0.6-0.2-11.2 4.6-2.4-71z"/><path class="aS" d="m248.2 247.9l0.9 66.1 12.7-5.3-0.3-0.3-12 5-1.1-65.4z"/><path class="aS" d="m260.8 248.3l1.4 60.3 10.6-4.4-0.4-0.4-9.7 4.1-1.3-59.2z"/><path class="aR" d="m213.9 247l18.8 1 2.9 71.3h0.5l-2.6-71.9-20.4-0.7z"/><path class="aR" d="m234 247.4l13.7 0.5 0.8 66.3-0.6-0.2-0.7-65.5-12.9-0.9z"/><path class="aR" d="m248.2 247.9l0.2 0.1 11.9 0.7 1.2 59.7 0.3 0.3-1.2-60.4z"/><path class="aR" d="m261.4 248.7l10.2 0.5 0.8 54.8 0.4 0.4-0.6-55.7-11.4-0.4z"/><path class="aT" d="m150.1 280.9l37.5-19.2 1.1 75.2-38.6 1z"/><path class="aU" d="m235.6 319.3l-2.1-51.9-0.4-13.4-2 10.9 0.9 0.5v1.9l-0.9 0.8-0.5 0.3 0.6 2.3 0.6 1.3-0.8 0.8 0.8 2.9h0.5l0.4 0.8v1.1l-0.3 0.8v1l0.3 1.2-0.2 0.7 0.7 20.4-0.3 0.8-0.2 1.9v1.2l0.7 0.7-0.1 1-0.6-1-1.1-0.8-1.1 0.8v1l1 2.3 0.7 0.3v0.5l-0.3 0.2v0.7l0.3 0.6 0.8 2.2 0.4 0.8 0.1 1.7-0.6 1.3-1 0.3-1.4-0.8-1.5 0.2-1 1.8-1.9 0.1-0.8 0.1h-0.9l-5.5 6.1z"/><path class="aT" d="m188.7 252l2.7-1.1 2.3 85.8h-2.9z"/><path class="aU" d="m261.5 308.4l-0.8-23.4v-22.4l-1.7 9 0.5 1.1-0.5 1.6h-0.7v1.7l1.2-0.3 0.5 2.2-1.1 0.6 0.6 1 0.6 1.2-0.6 1.3v1.1l0.8 0.7v-1.5l0.2 2.5-1 0.2-1.2-0.5-1.2 0.9-2.3 4.8v1.2l0.5 0.7-0.5 0.5-0.8-0.8-0.5 0.3-0.9 0.9 1 1.1 0.8-0.1 0.2 0.9-1 0.3 0.7 1.1 0.2 2-0.2 1-0.8 0.6 0.2 0.9h0.4 0.5l0.5 1.2-1.7 1.4-0.4-0.2 0.1-0.5h-0.9l-0.5 0.5-0.4 3.2 0.3 0.3 0.4 0.2 0.3 0.2-0.1 0.2-0.4-0.1-0.2-0.2h-0.3l-0.5 0.8 0.6 0.1v0.2l-0.7 3.1-0.8 0.6-0.3 1.6z"/><path class="aU" d="m233.3 246.1l-5.8-3.1 1.9-1.7-2.6-3.9-1.6 2.2v1.7h-2v-3.9l-1.6-2-0.3-2.4h1.5l2.4-3.7-5.6-4.5-2.9 1.6v2.1l-1-3.7 2.1-6.2 0.8-8.1-5.2-10-1 1.2v-2l1.6-1.7 0.8-2.8-1.7-2.5-1.7-2.1 2.4 54.6z"/><path class="aU" d="m261.5 247.7l2.7-2.2-0.9-1.2 1.2-2.5 0.9 1.4v1.1h1v-2.5l0.8-1.4 0.1-1.6h-0.7l-1.2-2.5 2.8-3 1.4 1.1v1.4l0.5-2.5-1-4.1-0.5-5.4 2.7-6.7 0.5 0.8v-1.3l-0.9-1.1-0.3-1.9 0.8-1.7 0.3-2.6 0.4 39.2z"/><path class="aS" d="m206.3 241.9l-9.7-0.4v-2.7l9.7 0.6z"/><path class="aV" d="m196.6 238.8l0.5 1.4 9.5 0.5-0.3-1.3z"/><path class="aS" d="m228.5 242.7l-9.7-0.5v-2.4l9.6 0.6z"/><path class="aV" d="m218.8 239.8l0.4 1.2 9.5 0.5-0.3-1.1z"/><path class="aS" d="m245.4 243.4l-8.6-0.5v-2.1l8.6 0.6z"/><path class="aV" d="m236.8 240.8l0.5 1.1 8.4 0.5-0.3-1z"/><path class="aS" d="m257.6 244.1l-7.5-0.4-0.1-2 7.5 0.6z"/><path class="aV" d="m250 241.7l0.5 1 7.3 0.5-0.3-0.9z"/><path class="aS" d="m269.2 245.1l-6.4-0.4-0.1-1.7 6.4 0.6z"/><path class="aV" d="m262.7 243l0.5 0.9 6.3 0.5-0.4-0.8z"/><path class="aT" d="m193.7 285.7l78.9 6.5 0.2 12-79.1 32.5z"/><path class="aS" d="m211 324.7l-11.5 3.9v-2.7l11.4-3.7z"/><path class="aV" d="m199.5 325.9l0.5 1.3 11.2-3.7-0.3-1.3z"/><path class="aS" d="m232.2 317.8l-10.7 3.3v-2.5l10.7-3.1z"/><path class="aV" d="m221.5 318.6l0.4 1.3 10.6-3.3-0.3-1.1z"/><path class="aS" d="m246.6 312.2l-8.4 3.2-0.1-2.2 8.4-3z"/><path class="aV" d="m238.1 313.2l0.5 1.1 8.2-3.1-0.3-1z"/><path class="aS" d="m259.9 307l-7.8 2.4-0.1-1.9 7.8-2.3z"/><path class="aV" d="m252 307.5l0.5 1 7.6-2.4-0.3-0.9z"/><path class="aS" d="m270.7 302.7l-6 1.9v-1.6l5.9-1.8z"/><path class="aV" d="m264.7 303l0.5 0.8 5.7-1.8-0.3-0.8z"/><path class="b3" d="m232.9 204.3l6.3 6.6 5.3 7.4 0.6 2.4-3.2 11.7-6 1.6-1.8-0.8z"/><path class="b4" d="m234.8 222.7l5.1-1-4.5-1.5z"/><path class="b5" d="m235.3 226.9l3.4-1.6 3.2 7.1-6 1.6-1.8-0.8z"/><path class="b6" d="m235.1 210.6l9.4 7.7-5.3-7.4-5.4-5.2z"/><path class="b7" d="m239.9 221.7l-1.2 3.6-3.4 1.6-0.5-4.2z"/><path class="aU" d="m247.4 247l-1-53v-9.9l-1.8 7.3 0.9 0.5v1.8l-0.9 0.9-0.5 0.3 0.6 2.3 0.6 1.2-0.8 0.8 0.8 3 0.4-0.1 0.5 0.9v1l-0.3 0.9v1l0.3 1.2-0.2 0.7 0.7 20.4-0.3 0.8-0.2 1.9v1.1l0.7 0.7-0.1 1-0.6-1-1.1-0.7-1.1 0.7v1l1 2.4 0.7 0.2v0.6l-0.4 0.2v0.7l0.4 0.5 0.8 2.3 0.4 0.7 0.1 1.8-0.6 1.3-1.1 0.2-1.3-0.7-1.5 0.2-1 1.7-1.9 0.2-0.8 0.1h-1l-2.6 0.2z"/><path class="aU" d="m210.7 244.6l-2.8-1.1-1.3 0.2-0.3 0.2h-0.7l0.2-0.4-0.6-0.4-2.1 0.2-0.2 0.4v0.2h-0.8v-0.3h-0.5l-0.4 0.1-0.5-0.4-0.6-0.4h-1.3v0.4l0.5 0.2h-1v-0.4l0.2-0.9-0.2-0.3-0.8-0.2-0.3 0.8h-1.1l0.4-0.4v-0.3l-0.8-0.4-0.5-1.5-0.9 0.3-0.4 0.2-0.4-0.2-0.4 0.6-0.2-0.7 0.3-0.5v-0.5l-0.3-0.5v-0.9l0.4-0.2 0.1-1-0.2-1-0.3-0.8 0.3-0.4 0.3-0.7-0.2-0.7-0.4 0.3 0.3 0.3-0.3 0.1-0.1-0.4 0.3-0.3v-0.7l-0.2-0.8-0.5-0.5 0.5 13.1z"/><path class="aU" d="m209 242.6v-0.7l-0.7-0.4-0.6 0.7 0.9 0.6z"/><path class="aU" d="m270.2 216.5v-0.7l-0.6-0.4-0.7 0.7 0.9 0.6z"/><path class="aU" d="m237 245.2v-0.7l-0.7-0.4-0.6 0.8 0.9 0.5z"/><path class="aU" d="m196.6 237.7v-0.8h-0.9l-0.3 0.8 0.4 0.3z"/><path class="aU" d="m194.7 233.8l0.7-0.6-0.1-0.4-0.3 0.2z"/><path class="aU" d="m225.2 226v-0.7l-0.6-0.4-0.7 0.8 0.9 0.5z"/><path class="aU" d="m220.4 211.9v-0.7h-0.8l-0.3 0.7 0.4 0.3z"/><path class="aU" d="m218.6 208l0.7-0.6-0.1-0.4-0.3 0.3z"/><path class="aU" d="m244.9 203.9v-0.8h-0.9l-0.3 0.8 0.4 0.3z"/><path class="aU" d="m243 200l0.7-0.6-0.1-0.4-0.3 0.2z"/><path class="aU" d="m268.4 229v-0.8h-0.9l-0.2 0.8 0.3 0.2z"/><path class="aU" d="m266.5 225.1l0.7-0.6-0.1-0.5-0.3 0.3z"/><path class="aU" d="m248.3 247.2l0.7-0.6-0.2-0.3 0.6-0.3 1.5 0.3 0.2 0.4v0.1h0.6v-0.2h0.4l0.3 0.2 0.4-0.3 0.5-0.3 1 0.1v0.3l-0.4 0.1 0.8 0.1v-0.3l-0.1-0.7 0.2-0.3h0.6l0.2 0.6 0.8 0.1-0.3-0.3v-0.3l0.7-0.3 0.4-1.1 0.7 0.3 0.3 0.2 0.3-0.1 0.3 0.5 0.2-0.6-0.2-0.4 0.1-0.4 0.2-0.3 0.1-0.7-0.3-0.2-0.1-0.8 0.3-0.7 0.3-0.6-0.2-0.4-0.2-0.5 0.2-0.5 0.3 0.2-0.3 0.3h0.2l0.2-0.2-0.2-0.3v-0.5l0.2-0.7 0.5-0.3 0.1 10.2z"/><path class="aU" d="m249.7 244.9v-0.6l0.6-0.2 0.4 0.6-0.7 0.4z"/><path class="aU" d="m258 236.8l0.1-0.6h0.7l0.1 0.7-0.3 0.1z"/><path class="aU" d="m259.5 239.6l-0.5-0.5 0.1-0.3 0.2 0.2z"/><path class="b8" d="m212.2 275.2l-8.1 8.8-7 11.3-0.7 3.5 5.6 16.6 8.8 1.8 2.6-1.3z"/><path class="b9" d="m211.4 300.7l-7.4-1 6.4-2.6z"/><path class="ba" d="m211 306.8l-4.9-1.9-4.1 10.5 8.8 1.8 2.6-1.3z"/><path class="bb" d="m210 283.3l-12.9 12 7-11.3 7.3-8z"/><path class="bc" d="m204 299.7l2.1 5.2 4.9 1.9 0.4-6.1z"/><path class="bd" d="m145.5 360.1v39.9h-118.6v-36.7h112.1z"/><path class="be" d="m286.1 280.9v37.4l20.9-5.1 1.4-38.3z"/><path class="bf" d="m472.7 269.6v28.9l19.8 4.1 0.5-28.3z"/><path class="bg" d="m145.5 335.4l215.6-0.4 31.7 32.5-247.3-7.4z"/><path class="bh" d="m608.2 126.5v-35.2l63.8-43.5v42.6z"/><path class="bi" d="m620.7 119.6v-24.4l51.3-31v26.2z"/><path class="ap" d="m620.7 95.2l-12.5-3.9 63.8-43.5v16.4z"/><path class="bj" d="m623 118.3v-21.7l49-29.9v-2.5l-51.3 31v24.4z"/><path class="bk" d="m623 118.3l1.1-0.5 0.1-19.7 47.8-28.4v-3l-49 29.9z"/><path class="bl" d="m313.2 180.6v-12.6l-22.9-15.7v15.3z"/><path class="bm" d="m308.7 178.1v-8.8l-18.4-11.1v9.4z"/><path class="ap" d="m308.7 169.3l4.5-1.3-22.9-15.7v5.9z"/><path class="bn" d="m307.9 177.6v-7.8l-17.6-10.7v-0.9l18.4 11.1v8.8z"/><path class="bo" d="m307.9 177.6l-0.4-0.2v-7l-17.2-10.2v-1.1l17.6 10.7z"/><path class="bp" d="m474.4 186.9l1.5-12.2 19-13.1v13.7z"/><path class="bq" d="m478.4 184.7l1.5-8.8 15-9v8.4z"/><path class="ap" d="m479.9 175.9l-4-1.2 19-13.1v5.3z"/><path class="br" d="m479.2 184.3l1.4-7.9 14.3-8.7v-0.8l-15 9-1.5 8.8z"/><path class="bs" d="m479.2 184.3l0.3-0.2 1.5-7.2 13.9-8.2v-1l-14.3 8.7z"/><path class="bt" d="m348.2 215l100.3-2.7 3.3-35.5-105.5 2.5z"/><path class="bu" d="m288 62.4v4.8l48 52.6h19.7v-2l-32-58z"/><path class="bv" d="m290.5 68.7l31.4-1.5 33.4 52.1-19 0.2z"/><path class="bw" d="m323.7 59.8l-1.8 5.9-33.9 1.5v-4.8z"/><path class="bx" d="m288 62.4l-1.8-2.6 37.5-3.8 32 61.8-32-58z"/><path class="by" d="m511.2 62.4v4.8l-48 52.6h-19.6v-2l31.9-58z"/><path class="bz" d="m508.7 68.7l-31.3-1.5-33.5 52.1 19.1 0.2z"/><path class="bw" d="m475.5 59.8l1.9 5.9 33.8 1.5v-4.8z"/><path class="bA" d="m443.6 117.8l30.8-61.8 40.3 3.5-3.5 2.9-35.7-2.6z"/><path class="bB" d="m355.7 144v1.9l14.6 14.5h7.5v-0.8l-8.5-16.6z"/><path class="bC" d="m356.6 146.4l12-0.5 9 14.3-7.2 0.1z"/><path class="bw" d="m369.3 143l-0.7 2.3-12.9 0.6v-1.9z"/><path class="bD" d="m355.7 144l-0.7-1 14.3-1.4 8.5 18-8.5-16.6z"/><path class="bE" d="m441.1 144v1.9l-14 14.3h-7.5v-0.8l7.9-16.4z"/><path class="bF" d="m440.2 146.4l-12-0.5-8.5 14.1h7.3z"/><path class="bw" d="m427.5 143l0.7 2.3 12.9 0.6v-1.9z"/><path class="bG" d="m419.6 159.4l7.4-17.8 15.5 1.3-1.4 1.1-13.6-1z"/><path class="bH" d="m351.3 255.1l93.3 1.9-0.2 1.6-93-2.6z"/><path class="bI" d="m380.8 256v-56h33.7l0.5 56.5z"/><path class="bJ" d="m383.7 256.8l-0.8-54.7h30.4l-1.2 55.5z"/><path class="bK" d="m387.8 211.9l1 17.9 18.6 0.1 0.6-18z"/><path class="bL" d="m380.8 200l2.1 2.1v5.4l30.2 3.3 1.5-4.7-0.1-6.1z"/><path class="bM" d="m139 363.3l-135 20.2-5.1-246.2 32.8-13.7-4.8 239.7z"/><path class="bN" d="m704.5 253.8v7.4l85.2 1 4-184.1h-10z"/><path class="bO" d="m697.3 257v-144.6l87.3-40.9-6.9 185z"/><path class="bP" d="m777.7 256.5h4.3l7.7-181.2-5.1-3.8z"/><path class="bQ" d="m700.5 115.5l-1 139.5 74.3-1.3 6.4-175.6z"/><path class="bR" d="m780.1 81.5l-78.4 34.6-0.3 138.9h-1.9l1-139.5 79.7-37.4z"/><path class="a7" d="m705.9 108.4l1.9 3.7 41.7-19.6v-4.6z"/><path class="a7" d="m755.6 85l-1.2 5.2 6.5-3.1 1.2-5.1z"/><path class="bS" d="m777.7 154.8l4.1-8.4-2.7 63.7-3.9 5.6z"/><path class="a7" d="m778.5 237.3c0 0 0.1-32 0.8-63 0.6-31.1 4.4-79.1 4.4-79.1z"/><path class="bN" d="m711 141v65.8l58.3-4.9v-78.8z"/><path class="bT" d="m708.7 141l60.6-17.9c0 0 1.7 42.9-4 72.9l-56.6 6.1c0 0 2.8-28.5 0-61.1z"/><path class="bU" d="m767.8 128.4c0 1.1-0.5 1.9-1.1 1.9-0.7 0-1.2-0.8-1.2-1.9 0-1 0.5-1.9 1.2-1.9 0.6 0 1.1 0.9 1.1 1.9z"/><path class="bU" d="m712.2 143.7c0 1.1-0.6 1.9-1.2 1.9-0.6 0-1.2-0.8-1.2-1.9 0-1 0.6-1.9 1.2-1.9 0.6 0 1.2 0.9 1.2 1.9z"/><path class="bV" d="m134.3 110v-43.4l-78.8-53.8v52.7z"/><path class="bW" d="m118.8 101.4v-30.1l-63.3-38.3v32.5z"/><path class="bX" d="m118.8 71.3l15.5-4.7-78.8-53.8v20.2z"/><path class="bY" d="m115.9 99.8v-26.8l-60.4-36.8v-3.2l63.3 38.3v30.1z"/><path class="bZ" d="m115.9 99.8l-1.4-0.6v-24.3l-59-35v-3.7l60.4 36.8z"/><path class="ap" d="m338.8 243.3l-3.9-0.4-0.5 24.8 1.5 0.2 1.1 2.1z"/><path class="c0" d="m353.1 268.1l-0.3-19.7c0 0-1.1-4.9-5.1-7.6l-10.7-0.1v29.3l8.9 1.1z"/><path class="c1" d="m345.9 271.1l0.1-21.4c0 0-3.5-7.7-9-9v29.3z"/><path class="c2" d="m352 248.3l-5.1 0.5c0 0-2.5-5.3-6.1-7.5l6.6 0.1c0 0 3.7 2.4 4.6 6.9z"/><path class="c3" d="m351.1 248.3c0 0-1.4-4.9-3.9-6.7l-6.4-0.3c0 0 4.2 3 6.1 7.5z"/><path class="aQ" d="m350.6 246.7l-4.3 0.9 0.6 1.2 4.2-0.5c0 0-0.4-1.4-0.5-1.6z"/><path class="c4" d="m350.9 245.2l-0.8 0.4c0 0-1-1.9-1.9-3.2l0.2-0.1c0 0 1.4 1.1 2.5 2.9z"/><path class="aT" d="m352.7 262.1l-9 6.3-6.9-5.1 0.2 6.7 8.9 1.1 7.2-3z"/><path fill-rule="evenodd" class="c5" d="m348.2 256.3l4-0.6-0.1 0.3h-0.3l-0.3 4.1-2.5 0.5-0.3-4-0.3 0.1zm2.9 3.5l0.3-3.5-0.9 0.2v3.4zm-1.9 0.4l0.8-0.2v-3.4l-1.1 0.2zm-1.1-4l0.1-0.5 3.7-0.4 0.1 0.3zm1.7-0.6l-0.1-0.5 0.7-0.1v0.5z"/><path class="c6" d="m353.1 268.1v8.6l-15.3-0.1-0.8-6.6 8.9 1.1z"/><path class="c7" d="m23.1 33.3c16.2-31.9 62.8-40.7 104-19.7 41.2 21 61.4 63.8 45.2 95.7-16.2 31.8-62.8 40.6-104 19.6-41.2-21-61.4-63.8-45.2-95.6z"/><path class="c8" d="m329.7 160.3l-4.6 112.1 135.9-3.8 1.7-103.1z"/><g style="opacity:.5;mix-blend-mode:multiply"><path class="c9" d="m144.4 34l531.4-14.2 124.2 28v-47.8h-799.9l-0.1 400h800v-28.6l-19.8-7.3-2.1 12.4-632.6-16.4-3.2 1.6-115.4 1.6 5.4-271.6z"/><path class="ca" d="m775.3 400h-9.3l9.2 0.5z"/></g><path class="ap" d="m775.2 278.1l14.5 2 3.7 85.6-11.3 1.8-4 9z"/><path class="cb" d="m716.3 369l4.7-72.5c0 0 4.1-18.1 18.8-28h42.3l-4 108-25 4.7z"/><path class="cc" d="m753.1 381.2l4.6-79.7c0 0 9.4-28.2 24.4-33l-4 108z"/><path class="cd" d="m723.8 296.1l30.3 2.9c0 0 7.6-18.2 19.4-28.4h-32.5c0 0-13.5 8.9-17.2 25.5z"/><path class="ce" d="m727.2 296.2c0 0 5.2-18.2 14.4-24.9h31.1c0 0-11.8 11.4-18.6 27.7z"/><path class="aQ" d="m729.3 290.1l26.5 5.4-1.7 3.5-26.9-2.8c0 0 1.7-5.2 2.1-6.1z"/><path class="c4" d="m728.2 284.8l2.8 1.2c0 0 3.6-6.8 7.1-11.4l-1-0.8c0 0-5.1 4.3-8.9 11z"/><path class="aT" d="m717.8 346.9l36 23.5 25.3-18.6-1 24.7-25 4.7-36.8-12.2z"/><path fill-rule="evenodd" class="cf" d="m743.4 333.3l-1.1-0.2-1.3 16.4-10.2-2-1.3-16.9-1.3-0.2-0.4-1.1 16.4 2.6zm-8.6 13.7v-14.1l-4-0.8 1.3 14.4zm6.4-12.9l-4.7-0.9v14.1l3.2 0.6zm-13.1-5.4l0.5-1.1 7.2 0.8 1.4 0.2 6.5 0.7 0.5 1.8zm9.7-2.1l-3.2-0.2 0.3 2 1 0.1 1.3 0.1z"/><path class="cg" d="m716.3 369v31.5h58.9l2.9-24-25 4.7z"/><path class="ch" d="m145.5 335.4l536.4-0.4 4.4-140.9 11-3.6v-5.8l55.8-9.5c0 0-1.1 16.4-3.2 22.5l8.3-0.9-0.7 59.9 2.1-0.2v12.4c0 0-14.9 10.9-21.5 28.7l-1.5 77.8-591.1-15.3z"/><path class="ci" d="m31.2 123.6l1.1-31.9 112.1-57.7 121.9-3.3 2.9 333.1-123.7-3.7-106.2-0.7z"/><path fill-rule="evenodd" class="cj" d="m142 123.6l-3.5 239.7h-112.2l4.9-239.7zm-83.9 129.1h64.1l2.9-91.1-71.1 2.4-12 0.4 1.7 88.3z"/><path class="ck" d="m142 123.6l3 3.4v233.1l-6.5 3.2z"/><path class="cl" d="m42 164.4l4.8-0.2v88.5h-3.1z"/><path class="cm" d="m46.8 164.2l78.3-2.6-2.9 91-75.4 0.1z"/><path class="cn" d="m134.4 279.8c-1.6 4.9-5.4 8.1-8.3 7.1-3-1-4.1-5.8-2.5-10.7 1.7-4.9 5.4-8.1 8.4-7.1 3 1 4 5.8 2.4 10.7z"/><path class="co" d="m134.2 270.6c0 4.7-2.9 8.4-6.5 8.4-3.6 0-6.5-3.7-6.5-8.4 0-4.6 2.9-8.4 6.5-8.4 3.6 0 6.5 3.8 6.5 8.4z"/><path class="cp" d="m132 270.6c0 3.9-2.5 7-5.4 7-3 0-5.4-3.1-5.4-7 0-3.8 2.4-6.9 5.4-6.9 2.9 0 5.4 3.1 5.4 6.9z"/><path class="cq" d="m129.8 270.6c0 2.9-1.8 5.2-4.1 5.2-2.2 0-4-2.3-4-5.2 0-2.9 1.8-5.2 4-5.2 2.3 0 4.1 2.3 4.1 5.2z"/><path class="cr" d="m138.5 363.3h-112.2l4.9-239.7h20.9l1.9 40.4-12 0.4 1.7 88.3h14.4l5.1 107.4z"/><path class="cs" d="m141.6 150.6h3.4v29.7l-3.9 2.6z"/><g style="opacity:.4;mix-blend-mode:multiply"><path class="ct" d="m95.2 383.2l2.4-0.8h12.6l3.2 1.6-9.1 0.6z"/><path class="ct" d="m119.1 384.6l3.1-0.5 3.5 0.1-0.9 0.6-3.6 0.1z"/><path class="ct" d="m438.3 282.6l1.8-0.4 2 0.1-0.5 0.5-2.1 0.1z"/><path class="ct" d="m436.4 291.6l1.8-0.4 2 0.1-0.5 0.5-2.1 0.1z"/><path class="ct" d="m399.3 295.8l1.8-0.5 2.1 0.1-0.6 0.5-2.1 0.2z"/><path class="ct" d="m264.3 331.1h-2.4v2.1l6.6 0.8 5.3-1.4-6-1.5z"/><path class="ct" d="m261.9 330.1v-1l3-0.4 1.4 0.3-2.2 0.4z"/><path class="ct" d="m422.8 277.7v-0.8l1.8-0.3 0.8 0.2-1.3 0.3z"/><path class="ct" d="m464.2 287.6v-0.8l1.8-0.3 0.8 0.2-1.3 0.4z"/><path class="ct" d="m257.7 340l-8.9 3.9 2.8 0.4 1.6 0.9 6.2-1.7v-2.8z"/><path class="ct" d="m113.4 384.6h-2.5v0.3l3.9 0.2v-0.2z"/><path class="ct" d="m354.7 287.7h-2.1v0.3l3.3 0.1v-0.2z"/><path class="ct" d="m170.5 379.7l11.5-4.7 8.7-1.1 4.7 1.6 3.1 2.9-9.1 3.4h-16.7z"/><path class="ct" d="m465.5 292.1l6.7-4.1 5-0.9 2.8 1.3 1.7 2.6-5.2 2.9h-9.7z"/><path class="ct" d="m172.7 377.4l2.1-1-2.1-0.8h-3.4l-3.8 1 3.1 1.3z"/><path class="ct" d="m479.3 356.2l10.2-5.2 8.1-0.2 4.7 3.7-9.3 3.6h-13.7z"/><path class="ct" d="m307 301.6l10.2-3.5 8.2-0.1 4.6 2.5-9.2 2.4h-13.8z"/><path class="ct" d="m479.3 352.2v-1.2l-5.8-0.3-2.9 0.7 4.3 0.8z"/><path class="ct" d="m561 351.7l6.9-1h3.9l7.7 0.9-9.3 1.1z"/><path class="ct" d="m697.2 373.8l4.2-2 13.4-2.1h4.1v2.1l-7.8 1.6-8.6 1.1z"/><path class="ct" d="m702.1 370.5l5.9-1.6 4.1-1.6h-2l-5.6 0.6-2.4 1.4z"/><path class="ct" d="m181.5 373.6l5.9-1 4-1h-2l-5.6 0.4-2.3 0.8z"/><path class="ct" d="m697.2 388.5l4.9-1.1 5 0.5-3.1 1.5-6.8-0.2z"/><path class="ct" d="m488.9 371.2l4.9-1.1 5 0.5-3.1 1.5-6.8-0.2z"/><path class="ct" d="m300.2 379.4l4.9-1.1 5 0.6-3.1 1.4-6.8-0.2z"/><path class="ct" d="m392.8 271.5l1.9-0.4 1.9 0.2-1.2 0.5h-2.6z"/><path class="ct" d="m311.6 382.1l5-1.1 5 0.6-3.2 1.5-6.8-0.3z"/><path class="ct" d="m363.1 281.6l-5.4 0.1-3.5 1.6v1.6h8.9l5.2-1.2-1.2-1.8z"/><path class="ct" d="m363 281.3l-2.5-0.3 0.8-1.1 5.8-0.6 1.2 0.2 0.7 1.7z"/><path class="ct" d="m398.6 272.3l-1.1-0.3 0.4-0.9 2.7-0.5 0.5 0.2 0.3 1.4z"/><path class="ct" d="m428.1 279.9l3.7-1 2.3 0.5 1.4 0.6-6.4 0.4z"/><path class="ct" d="m428.1 279.2l0.7-0.8-1.5-0.4h-2.5l-0.7 0.6z"/><path class="ct" d="m404.8 298.9l0.6-0.8-1.4-0.3h-2.6l-0.7 0.6z"/><path class="ct" d="m371.5 267.3l0.6-0.8-1.4-0.3h-2.4l-0.7 0.5z"/><path class="ct" d="m447.2 279.2l2.7-0.9 4.5-0.3 2.6 0.6-2.9 0.9h-6.9z"/><path class="ct" d="m493.8 359.1l4.7-1.6 7.9-0.4 4.3 1-5 1.5h-11.9z"/><path class="ct" d="m101.8 387.9l4.7-1.1 7.9-0.2 4.3 0.7-5 1h-11.9z"/><path class="ct" d="m437.3 266.4l3.2-0.9 1.4 0.6-1.4 0.7z"/><path class="ct" d="m276.9 304.4l8.1-1.6 3.6 1.1-3.6 1.1z"/><path class="ct" d="m364.7 277.1l-7-1.1 0.7-0.8v-1.9l8.7 0.4v3.4z"/></g><path fill-rule="evenodd" class="cu" d="m331.3 81.9c0 0-8.5 86.2-25.2 73.7-16.7-12.5-14.9-86.9-14.9-86.9 0 0 0.1 14.4 1.2 23.2 1.1 8.7 2 5.2 2.2 4.6 0.2-0.7-2.5-27.8-2.5-27.8h0.3c0 0 1.3 17.2 3.7 36.1-0.1-0.7-0.2-1.3-0.4-1.4 0 0 0.1 2.8 0.6 5.7 0.4 2.7 0.9 3.8 0.9 3.9 2.8 19.5 6.6 38.3 11.2 40 9.8 3.5 12.1-85.7 12.1-85.7l1.3-0.1c0 0-3.7 50.7-1.9 57.8 1.8 7.1 3.6 1 9.7-45.7zm-33 45.6c0 0-2.6-26.3-5.7-27.3-0.9-0.3 1.7 20.3 3.1 25.2 1.5 5 2.6 2.1 2.6 2.1zm-1.1-14.5q-0.6-4.1-1.1-8.2c0.6 2.7 1.1 8.2 1.1 8.2q0 0 0 0zm24.7 17.8c-0.4-2.8-3.2-5-3.7-4.6-0.5 0.4-4.7 23-4.7 23 2.8 2.9 8.7-15.6 8.4-18.4z"/><path fill-rule="evenodd" class="cv" d="m555.2 288.8c-0.2-2.4-4.1-6.6-4.1-6.6l0.1-0.6c4.6 6.1 9.9 5.7 9.9 4.4 0.1-2.2-9.5-13-9.5-13l0.1-1c17.9 27.4 77.1 55 77.1 55l-1.7-0.2c0 0-14.6-7.4-13.9-3.8 0.4 1.7 4.1 3.9 4.1 3.9l-0.2-0.1c0 0-23.8-12.1-22.5-9.5 1.2 2.5 15.9 9.4 15.9 9.4h-1c0 0-31.1-16.9-29.5-13.2 1.6 3.7 19.4 13.1 19.4 13.1h-0.9c0 0-8.4-4.9-11.4-4.2-3 0.8-2.5 4.1-2.5 4.1l-1-0.1c0 0-13.6-5.3-17.5-3.5-1.4 0.7-2.1 3.4-2.1 3.4h-1.3l-12-14-0.1-0.5c2.4 2.4 8.8 3.9 8.2 2.4-0.5-1.6-8.8-7.6-8.8-7.6v-0.4c0 0 21.6 18.1 20.5 10.4-1.1-7.8-20.2-15.8-20.2-15.8v-1.1c0 0 10.4 7.1 9.6 1.6-0.8-5.5-9.1-12.8-9.1-12.8v-0.5c0 0 4.6 3.3 4.4 0.8zm10.2 30.6c-1.1-1.5-8.9-4.1-9-2.8-0.2 1.2 4.9 7.1 6.4 7.5 1.6 0.4 3.7-3.3 2.6-4.7zm1.3 1.1c-0.4 0.3-0.3 1.5 0 1.6 0.3 0.2 2.1-0.1 2.1-0.5-0.1-0.4-1.1-1.6-2.1-1.1zm8.7-13.9c1.6-0.6-0.2-7-7-12.5-6.9-5.5-11.8-7.5-11.9-6.1-0.2 4.6 17.4 19.2 18.9 18.6zm-12.3-0.5c0.7 1.7 7.2 6.4 8.2 5 1-1.4-4.2-7.2-5.9-7.4-2.2-0.2-3 0.6-2.3 2.4zm-2.2-8.7c0.5-1-2.3-4.5-3.6-5.5-1-0.7-3.1-1.9-2.9-1.1 0.1 0.9 6.1 7.6 6.5 6.6z"/><path fill-rule="evenodd" class="cv" d="m98.7-5.1c0 0-4.7 14.8-9.2 23.7-3.7 7.1-50.2 86.9-91.9 109.5l-0.3-0.7c0 0 15-9 15.5-11.9 0.5-2.8-17.3 7.3-17.3 7.3l-0.3-1.1c0 0 4.9-2.1 5.9-3.8 1-1.7-5-4.7-5.8-4.2-0.7 0.6-2.8 1.9-2.8 1.9l-0.1-0.5c0 0 2.6-1.3 3.7-3.3 1.1-2-1.1-5.9-2.1-5.7-1.1 0.2-1.6 0.9-1.6 0.9l-0.3-0.8c0 0 42.2-51.2 57.9-110.1l2.8 0.1c0 0-15.8 37.4-13.4 42.7 2.4 5.3 27.9-37.6 27.9-37.6l1.7 0.3c-0.3 0.4-7.1 11.2-6.9 13.7 0.3 2.7 13.7-9.3 17-20.1l2.4-0.1c0 0-8.7 22.4-7.5 27.9 1.2 5.4 8.2 3.9 14.6-6.6 5.6-9 7.6-21.5 7.6-21.5zm-44.6 67.9c-1-0.9-6-0.8-15.4 6.8-9.3 7.6-15.2 27.5-13.4 27.1 17.5-4 29.8-33 28.8-33.9zm10.6-7.2c-0.5-0.9-1.4-1.7-4.5-0.1-3.1 1.5-5.8 8.9-4.7 9.3 1.9 0.6 9.8-8.3 9.2-9.2zm2.4-22.3c3-7.4 3.9-16 2.4-15.9-2.6 0-10.8 4.1-15.2 11.2-4.3 7.1-9.5 25.1-6.4 25.9 3.1 0.9 16.3-13.9 19.2-21.2zm2.6-5.3c-1.5 1.7-2 10.3-0.7 12 1.2 1.7 5.4-5.2 5.8-8.5 0.4-3.2-1.7-7.6-5.1-3.5zm-68.8 71.1c-1.6 1.5-4.2 10-3 11.8 1.3 1.7 8.8-5.8 10.1-8.6 1.9-4-0.5-9.8-7.1-3.2z"/><path class="cw" d="m80.7 197.8c0 0 0-2.7 0.5-4.4h0.9l1-6.1c0 0 2.5-3.9 5.9-2.5v2.4l0.5-1.1c0 0 0.9 1 1.1 2.9 0 0 1.5-1.6 1.8-2.9 0 0 0.8-0.3 0.6 2.4 0 0-1.9 0.9-2.4 2.6 0 0 1.3 2.5 1.5 4.6 0 0-0.5 3.6-1.3 4.9 0 0-0.1 5.1-0.7 8.8l-1.1 0.5c0 0-0.2-3.1-0.4-4.1 0 0-0.5 18.1-0.1 28.3 0 0-0.2 2.5-1.4 2.1 0 0 0.8-20.5 0.6-29.4 0 0-0.3 3.9-0.5 6.4 0 0-2.1-0.5-4.1-2.7v-4.7h-0.4c0 0-2-3.7-2-8z"/><path class="cw" d="m90.2 199c0.4-0.4 2.1 1.1 2.2 1.3 0 0.1 0 4.8-0.2 5.1-0.1 0.3-2.1 1.4-2.4 1.2-0.4-0.1-1-3.4-1.1-4.1 0-0.6 1.4-3.3 1.5-3.5z"/><path class="cw" d="m71.4 206.2c0.2-0.8 1.8-2.8 1.9-2.8 0.1 0 1.4 3.4 1.4 3.8 0 0.5-1 4.6-1.3 5.1-0.3 0.6-1.7-0.6-2-0.9-0.2-0.4 0-4.7 0-5.2z"/><path class="cw" d="m81.8 172c0.1 0.2 0.1 1.4 0.1 1.4 0 0.1-0.5 0.6-0.6 0.5 0-0.1-0.3-1.1-0.3-1.4-0.1-0.2 0.2-1 0.3-1.1 0-0.1 0.5 0.5 0.5 0.6z"/><path class="cw" d="m83.2 228.8c0 0-0.4 1.2-0.3 1.7 0 0.5 1.1 0.7 1.1 0.7l0.4-1.2-0.2-1.7z"/><path class="cw" d="m74.6 212.8c0 0-0.4 1.2-0.3 1.7 0 0.5 1.1 0.7 1.1 0.7l0.4-1.2-0.2-1.7z"/><path class="cw" d="m82.5 170.3c0 0-0.4 1.2-0.4 1.7 0.1 0.5 1.1 0.7 1.1 0.7l0.4-1.2-0.2-1.7z"/><path class="cw" d="m83.6 237.6l0.5 1.3 0.3-0.7v-1.5z"/><path class="cw" d="m88.7 246.9l0.5 1.2 0.2-0.6v-1.6z"/><path class="cw" d="m68.2 246.6l0.5 1.3 0.3-0.7v-1.5z"/><path class="cw" d="m70.6 232.7l3.2-3 1.9 2.7v3.1l-0.9 1.7-1.8 0.8c0 0-2.3-1.7-2.4-5.3z"/><path fill-rule="evenodd" class="cx" d="m758.7 300.1c0 0 1.8 4.9 4.9 7.5 3.4 3.1 5.4 1.9 5.5 0.1 0.1-1.9-4.7-7.5-4.7-7.5h0.9c2.2 3.4 8.4 5.2 8.3 4.3-0.1-0.8-2.4-4-2.5-4.1h0.8c0 0 12.4 12.4 13.1 10.5 0.6-1.8-5.6-10.7-5.6-10.7l0.7 0.2c11 18.4 36.7 29.1 36.7 29.1l2.2 0.1c0 0-9.3 0.8-9.8 0.8-0.4 0-1.1 1.4-0.5 2 0.6 0.6 6.1 2.3 6.1 2.3h-1.2c0 0-4-1.6-4.4-1.7-0.4-0.1-2.7 1.2-2.2 1.7 0.6 0.5 5.3 1.8 5.3 1.8h-1.6c0 0-9.2-2.8-8.8-1.9 0.4 0.9 9.2 3.5 9.2 3.5h-0.9c-19.4-5.1-45.9-28.9-48-31-2.5-2.6-4.6-6.9-4.6-6.9zm36.6 29.1c0.8 0-3.2-6.2-7.7-8.1-4.6-2-6.7-1.8-7.1-1.4-0.3 0.3 7 9.1 14.8 9.5zm-15.2-8.8c0.4-0.2-1.3-2.4-2.7-2.8-1.4-0.3-1.7 0-1.9 0.3-0.2 0.4 3.8 2.8 4.6 2.5zm2.5-3.8c1.2-0.4-2.3-6-4.7-8.1-2.3-2.1-6.1-3-7.2-2.8-0.7 0 0.3 2.8 2.1 5 1.8 2.3 8.5 6.4 9.8 5.9zm-13.2-6c0.4 1.1 2.7 3.1 3.1 2.5 0.4-0.7-0.4-3.4-1.1-3.9-1.8-1.2-2.3 0.4-2 1.4zm33.6 19.4c0.8 0.9 4.5 2.9 4.9 2.3 0.4-0.6-1.3-3.3-2.1-3.7-3.3-1.8-3.9 0.2-2.8 1.4z"/><path class="cy" d="m659.6 250.3h2l-0.5-5.5z"/><path class="a3" d="m605.1 162.6c0 0-3.2-0.8-4.9-1.7-1.7-0.8-2.5-4.6-2.5-4.6 0 0-4.2-1.3-5.5-2.1-1.2-0.9-15.2-6.3-17.7-9.3-2.5-2.9-8-14.8-8-14.8l1-10.6 0.1-7.9c0 0-3.2 15.6-2.8 17.7 0.4 2.1 9.3 15.6 8.9 17.3-0.5 1.7-1.7 2.1-1.7 2.1l-10.6 5.9-1.8 4.3 1 8.5c0 0 0.4-12 1.7-12.4 1.2-0.4 11.4-6.7 12.6-6.7 1.3 0 5.1 1.2 5.1 1.2 0 0 11.4 5.5 11.8 5.9 0.4 0.5 5.1 1.7 5.1 1.7l2.1 5.5 6.1 3.8z"/><path class="a3" d="m568.2 150l-2.1-3v-1.3l-0.4-2.9 4.6-4.9-1.3-0.7-4.2 5.6 1.7 9.7 1.7-1.3z"/><path class="cz" d="m116.4 0.4l19.4 20.8h6.5 15.3l3.8 5.3h15.8l11 0.7 13.5-1.9 10.2-4.1 19.7 0.8 1.7 2.1 1.8 3.1-2.5 2-7.8 0.9-6.8 1.8 9.4-1.5 6.9-0.3 8.2-3.6h88l2.2 2.5 8.4 6.9 6.6 2.7h75.5l8.1-2.7-1.8-9.4 20.7-9.9 19.8-2.8 78.7 5.7 12 1.7v5.3l-12 4-47.9 5.4 47.9-3.9 6.2-2.7 3.1-0.1 10.8-2.7 70.5-2.6 35.9-17.7 28.7-5.8z"/><path class="cA" d="m677.6 0.4l-12.6 3.3-27.4 12.9-10.5 2.9-66.4 3.4-0.4-6.3-49.2-4.9-38-5.7-22.3 4.3-22.8 10.9 1.5 5.3 0.7 4-9.2 4-29.6 1.4-41.5-1.9-10.3-3-7.3-9.8h-78.3l-15.8 1.5-1.9-4.5-4.6-1.6-19.9-1.8-12.4 6.4-8.9 2-27.5-0.3-1.5-4.7-2.5-3.4-21.1 1.8-3.9-4.8-3-11.4h-14.6l19.4 20.8h21.8l3.8 5.3 26.8 0.7 13.5-1.9 10.2-4.1 19.7 0.8 3.5 5.2 7.4-0.7h88l10.6 9.4 6.6 2.7h75.5l8.1-2.7-1-4.8 0.3-5 11.8-5.9 7.8-3.6 19.8-2.8 88.2 7 2.5 5.7-2.7 2.7 10.8-2.7 70.5-2.6 35.9-17.7 28.7-5.8z"/><path class="cB" d="m330.5 26.5l1.8-5.3 7.3 9.8 10.3 3-2.2 4.6-8.6-1.1z"/><path class="cB" d="m421 34.5l1 4.1 9.3-2.7-1.1-5.4z"/><path class="cB" d="m235.1 27.2l3.1-4.5 9.1-0.9-4.8 4.7-8.2 3.6-6.9 0.3-9.4 1.5 6.8-1.8 7.8-0.9z"/><path class="cA" d="m560.7 26.5l-12 4-47.9 5.4 47.9-3.9 6.2-2.7 3.1-0.1z"/><path class="cC" d="m453.4 103l2.9-0.6 6-3.6 5.3-1.1 1.4-1.6 4.3-3.5 2.8-6.4-3.8 6.2-5.1 3.9-2.6 0.8-3.4 0.6-4.5 3.1-1.4-0.4z"/></g></svg>