<svg version="1.2" xmlns="http://www.w3.org/2000/svg" viewBox="0 0 250 300" width="250" height="300"><defs><clipPath clipPathUnits="userSpaceOnUse" id="cp1"><path d="m575 350h-900v-400h900z"/></clipPath><linearGradient id="P" gradientUnits="userSpaceOnUse"/><linearGradient id="g1" x2="1" href="#P" gradientTransform="matrix(0,-247.071,195.277,0,-41.368,273.068)"><stop stop-color="#a392b8"/><stop offset="1" stop-color="#612c73"/></linearGradient><radialGradient id="g2" cx="0" cy="0" r="1" href="#P" gradientTransform="matrix(195.688,0,0,195.688,114.826,91.91)"><stop stop-color="#896b6b"/><stop offset="1" stop-color="#231050"/></radialGradient><radialGradient id="g3" cx="0" cy="0" r="1" href="#P" gradientTransform="matrix(166.446,0,0,166.446,114.299,118.264)"><stop stop-color="#d8c5b8"/><stop offset=".72" stop-color="#94759a"/><stop offset=".96" stop-color="#ffaeb9"/></radialGradient><linearGradient id="g4" x2="1" href="#P" gradientTransform="matrix(157.047,0,0,10.896,36.947,50.929)"><stop stop-color="#541d5e"/><stop offset="1" stop-color="#8e83c9"/></linearGradient><linearGradient id="g5" x2="1" href="#P" gradientTransform="matrix(0,-84.137,21.384,0,28.996,273.072)"><stop stop-color="#a392b8"/><stop offset="1" stop-color="#612c73"/></linearGradient><linearGradient id="g6" x2="1" href="#P" gradientTransform="matrix(0,-54.373,17.791,0,-52.513,273.41)"><stop stop-color="#a392b8"/><stop offset="1" stop-color="#612c73"/></linearGradient><linearGradient id="g7" x2="1" href="#P" gradientTransform="matrix(0,-1.068,16.821,0,202.695,52.516)"><stop/><stop offset="1" stop-color="#434f67"/></linearGradient><linearGradient id="g8" x2="1" href="#P" gradientTransform="matrix(0,-0.89,17.522,0,28.134,53.008)"><stop/><stop offset="1" stop-color="#434f67"/></linearGradient><linearGradient id="g9" x2="1" href="#P" gradientTransform="matrix(0,-24.93,131.058,0,105.568,50.927)"><stop/><stop offset="1" stop-color="#434f67"/></linearGradient><radialGradient id="g10" cx="0" cy="0" r="1" href="#P" gradientTransform="matrix(89.032,0,0,89.032,118.797,140.092)"><stop stop-color="#8183c8"/><stop offset="1" stop-color="#795e88"/></radialGradient><radialGradient id="g11" cx="0" cy="0" r="1" href="#P" gradientTransform="matrix(45.673,0,0,45.673,109.618,270.894)"><stop stop-color="#4eae45"/><stop offset="1" stop-color="#267826"/></radialGradient><radialGradient id="g12" cx="0" cy="0" r="1" href="#P" gradientTransform="matrix(100.047,0,0,100.047,119.133,105.278)"><stop stop-color="#72ff72"/><stop offset="1" stop-color="#0c780c"/></radialGradient><radialGradient id="g13" cx="0" cy="0" r="1" href="#P" gradientTransform="matrix(32.501,0,0,32.501,114.45,91.154)"><stop offset=".02" stop-color="#ff864e"/><stop offset=".99"/></radialGradient><radialGradient id="g14" cx="0" cy="0" r="1" href="#P" gradientTransform="matrix(23.556,0,0,23.556,114.45,91.154)"><stop offset=".02" stop-color="#ff924e"/><stop offset=".99"/></radialGradient><radialGradient id="g15" cx="0" cy="0" r="1" href="#P" gradientTransform="matrix(20.3,0,0,20.3,112.767,91.154)"><stop offset=".02" stop-color="#ffdea4"/><stop offset=".99"/></radialGradient><radialGradient id="g16" cx="0" cy="0" r="1" href="#P" gradientTransform="matrix(16.143,0,0,16.143,112.767,91.154)"><stop offset=".02" stop-color="#fff"/><stop offset=".99"/></radialGradient><linearGradient id="g17" x2="1" href="#P" gradientTransform="matrix(57.444,0,0,4.203,84.567,195.542)"><stop stop-color="#a392b8"/><stop offset="1" stop-color="#612c73"/></linearGradient><radialGradient id="g18" cx="0" cy="0" r="1" href="#P" gradientTransform="matrix(27.723,0,0,27.723,112.48,194.004)"><stop stop-color="#aae3aa"/><stop offset="1" stop-color="#74a674"/></radialGradient><linearGradient id="g19" x2="1" href="#P" gradientTransform="matrix(0,-56.235,133.483,0,103.344,118.049)"><stop stop-color="#a392b8"/><stop offset="1" stop-color="#612c73"/></linearGradient><clipPath clipPathUnits="userSpaceOnUse" id="cp2"><path d="m84.42 116.39l0.15 76.05 57.09 0.49 2.31-77.5z"/></clipPath><linearGradient id="g20" x2="1" href="#P" gradientTransform="matrix(0,-12.229,133.717,0,114.637,74.043)"><stop stop-color="#a392b8"/><stop offset="1" stop-color="#612c73"/></linearGradient><radialGradient id="g21" cx="0" cy="0" r="1" href="#P" gradientTransform="matrix(37.161,0,0,37.161,115.741,66.963)"><stop stop-color="#cfffcf"/><stop offset="1" stop-color="#8eec8b"/></radialGradient><radialGradient id="g22" cx="0" cy="0" r="1" href="#P" gradientTransform="matrix(37.113,0,0,37.113,115.741,63.694)"><stop stop-color="#6861ab"/><stop offset="1" stop-color="#6e5885"/></radialGradient><linearGradient id="g23" x2="1" href="#P" gradientTransform="matrix(0,-56.897,125.693,0,98.89,266.036)"><stop stop-color="#732c73"/><stop offset="1" stop-color="#fff"/></linearGradient><radialGradient id="g24" cx="0" cy="0" r="1" href="#P" gradientTransform="matrix(152.366,0,0,152.366,164.071,118.267)"><stop stop-color="#896565"/><stop offset="1" stop-color="#231050"/></radialGradient><radialGradient id="g25" cx="0" cy="0" r="1" href="#P" gradientTransform="matrix(152.032,0,0,152.032,63.042,118.267)"><stop stop-color="#896565"/><stop offset="1" stop-color="#231050"/></radialGradient><linearGradient id="g26" x2="1" href="#P" gradientTransform="matrix(0,-222.483,157.088,0,-42.15,273.412)"><stop stop-color="#a392b8"/><stop offset="1" stop-color="#612c73"/></linearGradient><linearGradient id="g27" x2="1" href="#P" gradientTransform="matrix(0,-42.292,40.892,0,41.086,273.295)"><stop stop-color="#a392b8"/><stop offset="1" stop-color="#612c73"/></linearGradient><linearGradient id="g28" x2="1" href="#P" gradientTransform="matrix(0,-81.396,40.198,0,79.439,273.412)"><stop stop-color="#a392b8"/><stop offset="1" stop-color="#612c73"/></linearGradient><linearGradient id="g29" x2="1" href="#P" gradientTransform="matrix(0,-102.981,61.689,0,86.734,273.412)"><stop stop-color="#612c73"/><stop offset=".76" stop-color="#fff"/></linearGradient><linearGradient id="g30" x2="1" href="#P" gradientTransform="matrix(0,-58.079,61.678,0,25.216,273.269)"><stop stop-color="#612c73"/><stop offset=".76" stop-color="#fff"/></linearGradient><linearGradient id="g31" x2="1" href="#P" gradientTransform="matrix(0,-26.668,21.574,0,202.928,179.599)"><stop stop-color="#a392b8"/><stop offset="1" stop-color="#612c73"/></linearGradient><linearGradient id="g32" x2="1" href="#P" gradientTransform="matrix(0,-25.283,21.685,0,206.942,176.995)"><stop stop-color="#413c6b"/><stop offset="1" stop-color="#312770"/></linearGradient><linearGradient id="g33" x2="1" href="#P" gradientTransform="matrix(0,-8.775,11.467,0,218.304,170.289)"><stop stop-color="#a392b8"/><stop offset="1" stop-color="#612c73"/></linearGradient><linearGradient id="g34" x2="1" href="#P" gradientTransform="matrix(159.194,0,0,31.699,33.034,205.493)"><stop stop-color="#a392b8"/><stop offset="1" stop-color="#612c73"/></linearGradient><radialGradient id="g35" cx="0" cy="0" r="1" href="#P" gradientTransform="matrix(83.952,-5.316,5.316,83.952,104.641,94.892)"><stop stop-color="#ff9b36"/><stop offset="1" stop-color="#ff6721"/></radialGradient><radialGradient id="g36" cx="0" cy="0" r="1" href="#P" gradientTransform="matrix(84.683,0,0,84.683,100.928,216.063)"><stop stop-color="#ff9b36"/><stop offset="1" stop-color="#ff6721"/></radialGradient></defs><style>.a{opacity:.8;mix-blend-mode:multiply;fill:url(#g1)}.b{fill:url(#g2)}.c{fill:#0a0520}.d{fill:url(#g3)}.e{opacity:.5;mix-blend-mode:multiply;fill:url(#g4)}.f{fill:#0c0109}.g{opacity:.2;mix-blend-mode:multiply;fill:url(#g5)}.h{opacity:.2;mix-blend-mode:multiply;fill:url(#g6)}.i{opacity:.5;mix-blend-mode:screen;fill:url(#g7)}.j{opacity:.5;mix-blend-mode:screen;fill:url(#g8)}.k{opacity:.5;mix-blend-mode:screen;fill:url(#g9)}.l{fill:#0e0012}.m{fill:#0f0}.n{fill:url(#g10)}.o{fill:url(#g11)}.p{fill:url(#g12)}.q{opacity:.5;mix-blend-mode:multiply;fill:#6e5f85}.r{mix-blend-mode:screen;fill:url(#g13)}.s{mix-blend-mode:screen;fill:url(#g14)}.t{mix-blend-mode:screen;fill:url(#g15)}.u{mix-blend-mode:screen;fill:url(#g16)}.v{opacity:.6;mix-blend-mode:multiply;fill:url(#g17)}.w{fill:url(#g18)}.x{opacity:.6;mix-blend-mode:multiply;fill:url(#g19)}.y{opacity:.6;mix-blend-mode:multiply;fill:url(#g20)}.z{fill:url(#g21)}.A{fill:url(#g22)}.B{fill:#371e46}.C{opacity:.2;mix-blend-mode:multiply;fill:url(#g23)}.D{fill:#0e7d0e}.E{fill:url(#g24)}.F{fill:url(#g25)}.G{fill:#1a0c1b}.H{opacity:.6;mix-blend-mode:multiply;fill:url(#g26)}.I{opacity:.2;mix-blend-mode:multiply;fill:url(#g27)}.J{opacity:.2;mix-blend-mode:multiply;fill:url(#g28)}.K{opacity:.5;mix-blend-mode:multiply;fill:url(#g29)}.L{opacity:.5;mix-blend-mode:multiply;fill:url(#g30)}.M{opacity:.6;mix-blend-mode:multiply;fill:url(#g31)}.N{fill:url(#g32)}.O{opacity:.6;mix-blend-mode:multiply;fill:url(#g33)}.P{fill:#00ad00}.Q{fill:#094f00}.R{opacity:.6;mix-blend-mode:multiply;fill:url(#g34)}.S{fill:url(#g35)}.T{fill:#1f0012}.U{opacity:.2;mix-blend-mode:multiply;fill:#653b74}.V{opacity:.2;mix-blend-mode:soft-light;fill:#8daaa7}.W{fill:url(#g36)}</style><g clip-path="url(#cp1)"><path class="a" d="m17.2 273.1l1.8-247.1h193.5l-7.5 247.1z"/><path class="b" d="m22.4 273.1l-3.4-247.1h193.5l-11.4 247.1z"/><path class="c" d="m39.5 273.4l-2.6-222.5h157.1l-10.4 222.2z"/><path class="d" d="m43.1 273.4v-211.6h143.8l-8.3 211.3z"/><path class="e" d="m194 50.9l-0.3 0.5-6.8 10.4h-143.8l-6.2-10.9z"/><path class="f" d="m36.9 50.9l-17.5 0.8v0.4h17.5z"/><path class="f" d="m194 50.9h17.5v0.5h-17.5z"/><path class="g" d="m205 188.9l-17.7 4.3-3.7 79.9h17.5z"/><path class="h" d="m38.9 219l-17.2 3.7 0.7 50.4 17.1 0.3z"/><path class="i" d="m194 51.4c0 0 9.9 2.5 17.5 0z"/><path class="j" d="m36.9 52.1h-17.5c0 0 4.7 2 17.5 0z"/><path class="k" d="m42.5 26l27.4 24.9h90.6l12.9-24.9z"/><path class="l" d="m93.8 32.2l0.4 13.4h47l0.7-13.4z"/><path class="m" d="m110.2 35.9h1v1h-1zm0 5.7h1v1.1h-1zm1.1-6.9h1.1v1.1h-1.1zm0 1.2h1.1v1h-1.1zm0 1.2h1.1v1h-1.1zm0 1.2h1.1v1.1h-1.1zm0 1.1h1.1v1.1h-1.1zm0 1.1h1.1v1.1h-1.1zm0 1.1h1.1v1.1h-1.1zm1.2 0h1.1v1h-1.1z"/><path class="m" d="m126.5 34.7h1.1v1.1h-1.1z"/><path class="m" d="m125.3 34.7h1.1v1.1h-1.1z"/><path class="m" d="m124 34.7h1.1v1.1h-1.1z"/><path class="m" d="m122.7 34.7h1.1v1.1h-1.1z"/><path class="m" d="m121.4 34.7h1.1v1.1h-1.1z"/><path class="m" d="m125.3 35.9h1.1v1.1h-1.1z"/><path class="m" d="m124 35.9h1.1v1.1h-1.1z"/><path class="m" d="m122.7 35.9h1.1v1.1h-1.1z"/><path class="m" d="m124 37.1h1.1v1.2h-1.1z"/><path class="m" d="m122.7 37.1h1.1v1.2h-1.1z"/><path class="m" d="m122.7 38.4h1.1v1.1h-1.1z"/><path class="m" d="m121.4 37.1h1.1v1.2h-1.1z"/><path class="m" d="m121.4 35.9h1.1v1.1h-1.1z"/><path class="m" d="m120.1 35.9h1.1v1.1h-1.1z"/><path class="m" d="m120.1 34.7h1.1v1.1h-1.1z"/><path class="m" d="m118.9 34.7h1.1v1.1h-1.1z"/><path class="n" d="m46.6 273v-211.2h137l-9 211.2z"/><path class="o" d="m46.6 266.8l16.3-8.1h94l18 8.1-0.3 6.2h-128z"/><path class="p" d="m62.9 258.7l-2.4-184.7h106.5l-10.1 184.7z"/><path class="q" d="m90.6 258.7l-1.7-184.7h0.5l1.7 184.7z"/><path class="r" d="m147 91.2c0 5-14.6 9.1-32.6 9.1-17.9 0-32.5-4.1-32.5-9.1 0-5.1 14.6-9.2 32.5-9.2 18 0 32.6 4.1 32.6 9.2z"/><path class="s" d="m138 91.2c0 3.6-10.5 6.6-23.6 6.6-13 0-23.5-3-23.5-6.6 0-3.7 10.5-6.7 23.5-6.7 13.1 0 23.6 3 23.6 6.7z"/><path class="t" d="m133.1 91.2c0 3.1-9.1 5.7-20.3 5.7-11.2 0-20.3-2.6-20.3-5.7 0-3.2 9.1-5.8 20.3-5.8 11.2 0 20.3 2.6 20.3 5.8z"/><path class="u" d="m128.9 91.2c0 2.5-7.2 4.5-16.1 4.5-8.9 0-16.2-2-16.2-4.5 0-2.6 7.3-4.6 16.2-4.6 8.9 0 16.1 2 16.1 4.6z"/><path class="q" d="m130.8 258.7l-0.5-0.1 6-184.6 0.5 0.1z"/><path class="v" d="m84.6 195.5h57.4l-0.1 4.2-57.3-0.4z"/><path class="w" d="m84.6 192.7h57.4l-0.1 4.1-57.3-0.3z"/><path class="x" d="m49.4 117.4l11.6-0.3c0 0 18.7-35.8 52.7-35.8 34.1 0 51 35.2 51 35.2l14.6 1.5 2.6-56.2h-133.4z"/><g clip-path="url(#cp2)"></g><path class="y" d="m60.5 74l-12-8v-4.2h133.4l-0.2 3.6-14.7 8.6z"/><path class="z" d="m63.3 64.2h104.9l-6.6 5.5h-92z"/><path class="A" d="m168.2 64.2v-1.1h-104.9v1.1z"/><path class="B" d="m48.9 271.1l123.3 0.7-0.1 1.3-123.2-0.1z"/><path class="C" d="m174.6 209.1l-16.7 35.4-95.4 1.7-13.6-21.9v41.3l14-6.9h94l15.3 7.3z"/><path class="D" d="m83.4 273h1.2l-0.2-211.2h-1z"/><path class="D" d="m141.7 273.4h-1.6l5.1-211.6h1.5z"/><path class="E" d="m186.9 61.8l-8.3 211.3v0.1l-36.9 0.2 4.9-206.6 0.1-5z"/><path class="F" d="m83.4 61.8v211.2l-40.3 0.4v-211.6z"/><path class="G" d="m163 273.4l9.1-0.3 1.5-2v-2.5l1-1.1 1.6 3 1.2-1.4-1.1-1.6 1.1-3.3 1.4-3.5-1.4-2 0.5-1.1 0.3-1.6h0.6v-1.3l-0.9-0.4-1 0.9-1.5-0.9 0.5-2.5 1-3.2h0.5l1.7-0.3 0.3 2 0.3-4.1 1.3-1.9 1.5 1 1.1 3.4-0.9 1.7 0.1 0.8 0.2 0.6-0.6 0.7-0.2 1.2 0.5 2.3 0.9 2.1 0.8-0.6v-2.9l1.3-2.3 0.6 1.7-0.5 1.1-0.4 0.3-0.3 2.8v0.7l0.4 0.8 0.1 3.3-0.5 2.1-0.5-0.2-0.3 1 0.4 0.5 0.7 1.2h0.9l1.2 2.1-0.6 0.5v0.6l-1.2 0.3 0.4 1 0.8-0.3 2.7 1.4z"/><path class="G" d="m43.1 273.3v-27.1-25.4l1.9 10.2-0.6 1.4 0.6 1.8 0.8-0.1v1.9l-1.4-0.3-0.6 2.5 1.3 0.7-0.7 1.2-0.7 1.2 0.7 1.6v1.2l-0.9 0.8v-1.7l-0.3 2.8 1.2 0.2 1.4-0.5 1.4 1 2.5 5.4v1.5l-0.5 0.7 0.5 0.5 0.9-0.8 0.6 0.3 1 1.1-1.1 1.2-0.9-0.1-0.2 1 1.1 0.3-0.8 1.3-0.3 2.3 0.3 1.1 0.9 0.7-0.2 1h-0.5-0.6l-0.6 1.4 2 1.5 0.4-0.1-0.1-0.7h1.1l0.5 0.6 0.6 3.7-0.4 0.3-0.5 0.2-0.3 0.2 0.1 0.3 0.5-0.1 0.2-0.3 0.4 0.1 0.5 0.8-0.8 0.1 0.1 0.3 1.2 0.3 1.9 0.2 0.9 0.3z"/><path class="H" d="m194 51.4l-12.1 221.7h-3.3l-2.5-0.1 7.6-207.9-37.1 1.7 0.1-5h-63.3v8l-34.9 1.7 0.4 201.5-5.8 0.3-2.7 0.1-3.5-222.5 156.8 0.5z"/><path class="I" d="m42.5 234.4l40.9-3.4v42l-40.3 0.3z"/><path class="J" d="m143.4 201l38.5-9-3.3 81.2-36.9 0.2z"/><path class="G" d="m141.7 273.4l1.3-54.4 0.4 3.1 1.6 5.8-1.7 3.1 0.1 1 0.7-0.3-0.1 1.7-0.6 0.1v1.6h0.8l1.8-1.3 1.3 1.4v1.7l-1.4 0.7h-1.2l-1.8 0.9 1 1 0.9-0.6 0.5 0.3-0.8 0.8 0.5 0.1 0.8 0.9-0.6 3.2 0.4 4.7-0.4 0.1-0.7 0.4 0.4 0.8 0.7-0.6 0.5 0.7 0.3 0.9-0.3 0.9-1.4 0.3-0.2-0.7-0.4 7h0.4l1.1 1.3 0.6 1.6-1.3 1.7-1.1-0.1-0.4-1.3-0.3 0.1-0.2 1.2-0.4 0.3-0.3 0.4 0.3 1 0.4-0.3 0.5 0.4v1.4l-0.7 1.1z"/><path class="G" d="m83.4 163.9l-1.1 2.4-2.1 2.5 1.6 3.4h1.1l-0.1 1.6-1 0.8v1.6l1 1.9-0.2 1.9 0.2 0.5v1.7 0.6l-0.7 1 0.3 1-1.3 0.5-1.2 0.4v2.3l0.9 0.4h0.5l0.4-0.4-0.6-1.6 1.3-1 0.7-0.6-0.3 1.8h-0.3l-0.2 1.8 0.3 3.1 0.8 2z"/><path class="K" d="m141.7 273.4l1.7-84.5 5.4-3.9v17.8l1.5 16.2-3 4.6 1.5 9.1-1.5 15.6 1.5 17.7 3.5-45.2 2.3-29.6h3.4l11.7 5.6-0.8 12.3-0.7 11.7-3.9 23.5 2.7 14.4v5.5l1.2-19.9 1.5-10.9 2.7-9.8 2.2-23.9 8.5-29.3-2.9 63h5.2l0.1 26.3 5.2 6.2v-10l4.9-24.9 4.8-8.9h3l-2.3 51z"/><path class="L" d="m83.4 273v-55.5h-3.5l-4.3 13.5-1.3 18.5v18.4l-2.4 1.6 1-7.3-1-17.9v-7.6l-9.2-0.5 0.3 3.7-1.1 5.4v20.7l-1.4 6.1-1.1 0.7 1.1-9.5-2.9-0.7-2.9 3.4-1-6-2-19.2-8.7-14.1-3.5-11.5h-1.7l-4.1 7.9-1 31.1-1 4.5-1.8 1.1v-23.5l-1.3 0.1-6.9-6.3 0.7 43.2z"/><path class="M" d="m210.1 152.9l-1.5 26.7h21.4l0.2-26.4z"/><path class="N" d="m210.8 176.6l0.5-24.9h21.2l-1.4 25.3z"/><path class="O" d="m215.9 162.2l0.2 1.6 6 6.5 4.9-7 0.4-1.8z"/><path class="P" d="m216.3 160.9l6.7 7.3 5.2-7.3z"/><path class="Q" d="m223 168.2h-1.4l-5.7-6 0.4-1.3z"/><path class="l" d="m211.3 151.7l-1.2 1.2 0.2 23.7h0.5z"/><path fill-rule="evenodd" class="R" d="m83.4 229l-45.4-3.6-4.5-8.7-0.5-11.2 5 12.8 45.4 3.9zm59-1.7l42.8 3.6 7-12.9-0.8 8.2-6.1 11-43.1-3.4z"/><path class="S" d="m23.9 91.4l0.6 8.6 95.8-1.4 0.2-0.7 2.2-1 0.4-0.2 0.9-1.1 1.1-1.3 0.8-1.1 0.1-0.1 0.1-0.1 0.6-0.6 0.4-0.5 0.3-0.3h0.8l0.9 0.1h1l-1.1 0.4-0.8 0.2-0.5 0.2-0.2 1.2-0.2 0.3-0.2 0.1-0.5 0.5-0.6 0.7-0.3 0.3h0.3l0.9-0.2 1.3-0.2 0.6-0.1 0.6-1 0.3-0.1 1-0.6-1 1-0.1 0.2 0.3 2.1-0.3 0.2-1.9 1.2-0.2 0.4 79.6-1.1-0.7-10.4z"/><path class="T" d="m51.7 92.2l-0.5 6.4-1.2 0.1q0-0.4 0-0.8-0.1-0.3-0.1-0.6 0-0.4-0.1-0.7 0-0.3-0.1-0.6 0-0.3-0.1-0.7 0-0.3-0.1-0.7-0.1 0.5-0.2 1.5-0.1 1-0.3 2.5l-1.3 0.1-0.5-6.5h1.1q0 0.3 0 0.6 0 0.3 0 0.7 0 0.3 0 0.7 0 0.4 0 0.7 0 0.3 0 0.7 0.1 0.3 0.1 0.6 0 0.3 0 0.5l0.5-3.9h1.1l0.5 3.7q0-0.3 0-0.7 0-0.3 0-0.7 0-0.4 0-0.8 0.1-0.3 0.1-0.7 0-0.8 0-1.5z"/><path fill-rule="evenodd" class="T" d="m54 98.5q0-0.3 0-0.7-0.1-0.3-0.1-0.6-0.2 0-0.4 0-0.2 0-0.3 0h-0.1q0 0.3 0 0.6 0 0.3-0.1 0.6h-1.1q0.3-1.6 0.5-3.2 0.2-1.6 0.3-3.2h1.4q0.2 1.6 0.4 3.2 0.3 1.6 0.6 3.2zm-0.6-5.4q0 0.9-0.1 1.7-0.1 0.8-0.1 1.7 0.1 0 0.2 0 0.1 0 0.2 0h0.3q-0.1-0.9-0.2-1.7-0.1-0.8-0.3-1.7z"/><path fill-rule="evenodd" class="T" d="m58 93.8q0 0.3 0 0.6-0.1 0.4-0.2 0.6-0.1 0.3-0.3 0.6-0.2 0.2-0.5 0.4 0.2 0.6 0.6 1.2 0.3 0.6 0.7 1.2h-1.2l-0.8-2.1q0.1 0.5 0.1 1.1 0 0.5 0.1 1h-1.1q0-1 0.1-2 0-1 0-2.1 0-0.6-0.1-1.1 0-0.6 0-1.2 0.2-0.1 0.5-0.2 0.2 0 0.4 0 0.1 0 0.3 0 0.2 0.1 0.3 0.1 0.2 0.1 0.4 0.2 0.2 0.2 0.4 0.4 0.1 0.2 0.2 0.6 0.1 0.3 0.1 0.7zm-1.7 1.8q0.2-0.1 0.3-0.2 0.1-0.1 0.2-0.2 0.1-0.1 0.1-0.2 0.1-0.2 0.1-0.3 0.1-0.3 0.1-0.6 0 0 0-0.1 0-0.1 0-0.3 0-0.1-0.1-0.3 0-0.2-0.1-0.4-0.1-0.1-0.2-0.3-0.1-0.1-0.3-0.1-0.1 0.7-0.1 1.4 0 0.7 0 1.4z"/><path class="T" d="m61.7 91.8q0 0.9 0 1.8-0.1 0.9-0.1 1.8 0.1 0.7 0.1 1.4 0 0.7 0.1 1.4l-0.9-0.1q-0.2-0.5-0.4-1.1-0.2-0.6-0.4-1.2-0.1-0.5-0.3-1.1-0.2-0.6-0.4-1.1 0 1.2 0.1 2.3 0 1.2 0.1 2.4h-1q0-1.5 0-2.9 0-0.9-0.1-1.8 0-0.9 0-1.7h1.2q0.3 1 0.5 2 0.3 1 0.6 2 0-1-0.1-2.1-0.1-1-0.2-2z"/><path class="T" d="m64.2 98.2q-0.2 0-0.4 0-0.2 0-0.4 0-0.3 0-0.6 0-0.3 0.1-0.5 0.1l-0.1-1q0.2 0 0.3 0 0.1 0 0.2 0 0-0.7 0-1.3 0-0.7 0-1.4 0-0.5 0-0.9 0-0.5-0.1-1-0.1 0-0.2 0.1-0.1 0-0.3 0v-1q0.4 0 0.7 0.1 0.4 0 0.7 0 0.2 0 0.3 0 0.1 0 0.2-0.1v0.9q-0.1 0-0.2 0-0.1 0-0.2 0 0 0.8 0 1.6-0.1 0.8-0.1 1.7 0.1 0.7 0.1 1.4 0.1 0 0.3 0 0.1-0.1 0.3-0.1z"/><path class="T" d="m67.8 91.8q-0.1 0.9-0.1 1.7 0 0.9 0 1.8 0 0.7 0.1 1.4 0 0.7 0 1.4h-0.9q-0.2-0.6-0.3-1.2-0.2-0.6-0.4-1.1-0.2-0.6-0.4-1.2-0.1-0.5-0.3-1.1 0 1.2 0 2.3 0.1 1.2 0.2 2.4h-1.1q0.1-1.5 0-2.9 0-0.9 0-1.8 0-0.8-0.1-1.7h1.3q0.2 1 0.5 2 0.3 1 0.6 2-0.1-1-0.1-2-0.1-1.1-0.2-2z"/><path class="T" d="m71 95q-0.1 0.1-0.1 0.3 0 0.2 0 0.5 0 0.2 0 0.5-0.1 0.2-0.1 0.5 0 0.1 0.1 0.2 0 0.1 0 0.2 0 0.1 0 0.3 0 0.1 0 0.3 0 0.1 0.1 0.2 0 0.1 0 0.1-0.2 0.1-0.4 0.1-0.1 0.1-0.3 0.1-0.1 0-0.3 0-0.1 0-0.3 0-0.2-0.1-0.4-0.2-0.2-0.2-0.4-0.4-0.2-0.3-0.3-0.6-0.1-0.4-0.2-0.9-0.1-0.5-0.1-1.2 0-0.7 0.1-1.2 0-0.5 0.2-0.9 0.1-0.4 0.3-0.6 0.2-0.2 0.4-0.4 0.2-0.1 0.4-0.2 0.2 0 0.4 0 0.1 0 0.2 0 0.1 0 0.2 0 0.2 0.1 0.2 0.2v0.9q-0.2-0.1-0.3-0.1-0.1 0-0.2 0-0.2 0-0.3 0.1-0.2 0.1-0.3 0.2-0.1 0.2-0.1 0.4-0.1 0.2-0.1 0.5-0.2 0.5-0.2 1.1 0.1 0.6 0.2 1.1 0 0.2 0.1 0.4 0 0.2 0.1 0.4 0.1 0.1 0.2 0.3 0.2 0.1 0.3 0.1 0-0.6-0.1-1.1 0-0.6-0.1-1.2z"/><path class="T" d="m112.2 91.1l-0.6 6.5h-1.2q0-0.4 0-0.7 0-0.4-0.1-0.7 0-0.3 0-0.6-0.1-0.3-0.1-0.6-0.1-0.4-0.1-0.7-0.1-0.4-0.1-0.7-0.1 0.5-0.3 1.5-0.1 1-0.3 2.5l-1.2 0.1-0.6-6.5h1.2q0 0.2 0 0.6 0 0.2 0 0.6 0 0.4 0 0.8 0 0.3 0 0.7 0 0.3 0 0.6 0 0.3 0 0.6 0 0.4 0 0.6l0.6-3.9h1l0.6 3.7q0-0.3 0-0.7 0-0.4 0-0.8 0-0.3 0-0.7 0-0.4 0-0.7 0-0.8 0-1.6z"/><path fill-rule="evenodd" class="T" d="m114.5 97.4q-0.1-0.3-0.1-0.6 0-0.3 0-0.6-0.2-0.1-0.4-0.1-0.2 0-0.4 0h-0.1q0 0.4 0 0.7 0 0.3 0 0.6h-1.1q0.2-1.6 0.4-3.2 0.2-1.6 0.4-3.2h1.3q0.2 1.6 0.5 3.1 0.2 1.6 0.6 3.2zm-0.6-5.3q-0.1 0.8-0.2 1.6 0 0.9-0.1 1.7 0.1 0 0.2 0 0.1 0 0.2 0h0.3q-0.1-0.8-0.2-1.7-0.1-0.8-0.2-1.6z"/><path fill-rule="evenodd" class="T" d="m118.4 92.8q0.1 0.3 0 0.6-0.1 0.3-0.2 0.6-0.1 0.3-0.3 0.5-0.2 0.3-0.5 0.5 0.3 0.6 0.6 1.2 0.3 0.6 0.7 1.1l-1.1 0.1-0.8-2.2q0 0.6 0 1.1 0.1 0.6 0.1 1.1h-1.1q0.1-1 0.1-2 0-1.1 0-2.1 0-0.6 0-1.2 0-0.6-0.1-1.2 0.3-0.1 0.5-0.1 0.3 0 0.4 0 0.1 0 0.3 0 0.2 0 0.4 0.1 0.2 0.1 0.4 0.2 0.2 0.1 0.3 0.4 0.2 0.2 0.2 0.5 0.1 0.3 0.1 0.8zm-1.6 1.7q0.1 0 0.2-0.1 0.2-0.1 0.2-0.2 0.1-0.2 0.2-0.3 0-0.1 0.1-0.2 0.1-0.3 0.1-0.7 0 0 0-0.1 0-0.1-0.1-0.2 0-0.2 0-0.4-0.1-0.1-0.1-0.3-0.1-0.2-0.3-0.3-0.1-0.1-0.3-0.2 0 0.7 0 1.4-0.1 0.7 0 1.4z"/><path class="T" d="m122.2 90.8q-0.1 0.9-0.1 1.8 0 0.9 0 1.8 0 0.7 0 1.3 0.1 0.7 0.1 1.4h-0.9q-0.2-0.6-0.4-1.2-0.1-0.5-0.3-1.1-0.2-0.6-0.4-1.1-0.2-0.6-0.4-1.2 0.1 1.2 0.1 2.4 0.1 1.1 0.1 2.3h-1q0-1.4 0-2.9 0-0.9 0-1.7 0-0.9-0.1-1.8h1.3q0.2 1 0.5 2 0.3 1 0.6 2-0.1-1-0.2-2 0-1-0.1-2z"/><path class="T" d="m124.2 90.8q-0.1 0-0.2 0-0.4 0-0.7 0-0.4 0-0.7 0v0.9h0.2q0.2 0 0.3 0 0 0.5 0 0.9 0 0.5 0 0.9 0.1 0.7 0 1.4 0 0.7 0 1.4-0.1 0-0.2 0-0.1 0-0.2 0v0.6l0.4-0.2 0.9-1.1q0-0.3 0-0.7 0-0.8 0-1.6 0-0.8 0.1-1.6 0.1 0 0.2 0 0.1 0 0.2 0v-0.9q-0.1 0-0.3 0z"/><path fill-rule="evenodd" class="T" d="m126 95.3v0.3h-0.3zm0.7-2.9l-0.6 0.6q-0.1-0.3-0.2-0.6 0 0.4 0 0.8l-0.8 1q0-0.9 0-1.8-0.1-0.8-0.1-1.7h1.2q0.3 0.8 0.5 1.7zm1.5-0.1q0 0.1 0 0.2 0 0.9 0 1.7 0 0.5 0 1l-1.3 0.2q-0.1-0.4-0.2-0.7 0-0.1-0.1-0.1l0.6-0.5q0 0.3 0.1 0.6 0-0.4 0-0.8l0.2-0.2 0.2-1.2zm0.1-1.6q-0.1 0.5-0.1 0.9h-0.8l-0.2 0.3q-0.1-0.6-0.1-1.2z"/><path class="T" d="m130.3 94q0.1 0.5 0.2 1.1 0 0.6 0 1.2-0.1-0.1-0.2-0.2-0.1-0.1-0.2-0.3-0.1-0.2-0.2-0.4-0.1-0.2-0.1-0.4-0.1-0.3-0.1-0.6l-0.1 0.2 0.3 2.1-0.3 0.2q0.1 0.1 0.1 0.1 0.2 0.2 0.4 0.2 0.2 0.1 0.4 0.1 0.1 0 0.3-0.1 0.1 0 0.3 0 0.1-0.1 0.3-0.2 0 0 0-0.1 0-0.1 0-0.2 0-0.1-0.1-0.3v-0.2q0-0.2 0-0.3 0-0.1 0-0.2 0-0.2 0-0.5 0-0.2 0-0.5 0-0.2 0.1-0.4 0-0.2 0-0.4zm-0.6 0.1v-0.1q0-0.6 0.1-1.1 0-0.2 0.1-0.5 0-0.2 0.2-0.3 0.1-0.2 0.2-0.3 0.1-0.1 0.3-0.1 0.1 0 0.2 0 0.2 0 0.3 0.1l0.1-0.9q-0.1-0.1-0.3-0.1-0.1-0.1-0.2-0.1-0.1 0-0.2 0-0.2 0-0.4 0-0.2 0.1-0.4 0.2-0.2 0.2-0.4 0.4-0.1 0.2-0.2 0.4l1 0.1-1.2 0.3q-0.1 0.3-0.1 0.7-0.1 0.5-0.1 1.2 0 0.7 0.1 1.2l0.6-1z"/><path class="T" d="m179.8 89.8l-0.5 6.5h-1.2q0-0.4-0.1-0.8 0-0.3 0-0.6 0-0.4-0.1-0.7 0-0.3-0.1-0.6 0-0.3-0.1-0.7 0-0.3-0.1-0.7-0.1 0.5-0.2 1.5-0.2 1-0.4 2.5l-1.2 0.1-0.5-6.4 1.1-0.1q0 0.3 0 0.6 0 0.3 0 0.7 0 0.3 0 0.7 0 0.4 0 0.7 0 0.4 0 0.7 0 0.3 0.1 0.6 0 0.3 0 0.6l0.5-4h1.1l0.5 3.7q0-0.3 0-0.7 0-0.3 0-0.7 0-0.4 0-0.8 0-0.3 0-0.7 0.1-0.8 0.1-1.5z"/><path fill-rule="evenodd" class="T" d="m182.1 96.1q0-0.3 0-0.7-0.1-0.3-0.1-0.6-0.2 0-0.4 0-0.2 0-0.4 0 0 0.3 0 0.6-0.1 0.3-0.1 0.7l-1.1-0.1q0.3-1.6 0.5-3.2 0.2-1.6 0.3-3.2h1.4q0.2 1.6 0.4 3.2 0.3 1.6 0.6 3.2zm-0.6-5.3q-0.1 0.8-0.1 1.6-0.1 0.8-0.1 1.7 0 0 0.1 0 0.1 0 0.3 0h0.2q0-0.9-0.2-1.7-0.1-0.8-0.2-1.6z"/><path fill-rule="evenodd" class="T" d="m186.1 91.4q0 0.3-0.1 0.7 0 0.3-0.1 0.5-0.1 0.3-0.3 0.6-0.2 0.2-0.5 0.4 0.2 0.7 0.5 1.2 0.4 0.6 0.7 1.2h-1.1l-0.8-2.1q0 0.5 0.1 1.1 0 0.5 0.1 1l-1.1 0.1q0-1.1 0-2.1 0.1-1 0.1-2-0.1-0.6-0.1-1.2 0-0.6 0-1.2 0.2-0.1 0.5-0.1 0.2-0.1 0.4-0.1 0.1 0 0.3 0 0.1 0.1 0.3 0.1 0.2 0.1 0.4 0.3 0.2 0.1 0.3 0.3 0.2 0.2 0.3 0.6 0.1 0.3 0.1 0.7zm-1.7 1.8q0.2-0.1 0.3-0.2 0.1-0.1 0.2-0.2 0.1-0.1 0.1-0.2 0.1-0.1 0.1-0.3 0.1-0.3 0.1-0.6 0 0 0-0.1 0-0.1 0-0.3 0-0.1-0.1-0.3 0-0.2-0.1-0.4-0.1-0.1-0.2-0.3-0.1-0.1-0.3-0.1-0.1 0.7-0.1 1.4 0 0.7 0 1.4z"/><path class="T" d="m189.8 89.4q0 0.9-0.1 1.8 0 0.9 0 1.8 0 0.7 0.1 1.4 0 0.7 0.1 1.4h-0.9q-0.2-0.6-0.4-1.2-0.2-0.6-0.4-1.2-0.1-0.5-0.3-1.1-0.2-0.5-0.4-1.1 0 1.2 0.1 2.3 0 1.2 0.1 2.4h-1q0-1.5 0-2.9 0-0.9-0.1-1.8 0-0.9 0-1.7h1.2q0.3 1 0.5 2 0.3 1 0.6 2 0-1-0.1-2.1-0.1-1-0.2-1.9z"/><path class="T" d="m192.2 95.8q-0.1 0-0.3 0-0.2 0-0.4 0-0.3 0-0.6 0-0.3 0.1-0.6 0.1v-1q0.1 0 0.2 0 0.1 0 0.3 0.1 0-0.7 0-1.4 0-0.7 0-1.4 0-0.5 0-0.9-0.1-0.5-0.1-0.9-0.1 0-0.2 0-0.1 0-0.3 0v-1q0.4 0.1 0.7 0.1 0.4 0 0.7 0 0.2 0 0.3 0 0.1 0 0.2-0.1v0.9q-0.1 0-0.2 0-0.1 0-0.2 0 0 0.9-0.1 1.7 0 0.7 0 1.6 0 0.7 0.1 1.4 0.1 0 0.3 0 0.1 0 0.3-0.1z"/><path class="T" d="m195.9 89.4q-0.1 0.9-0.1 1.8 0 0.8 0 1.7 0 0.7 0 1.4 0.1 0.7 0.1 1.4h-0.9q-0.2-0.6-0.3-1.2-0.2-0.6-0.4-1.1-0.2-0.6-0.4-1.2-0.2-0.5-0.4-1.1 0.1 1.2 0.1 2.3 0.1 1.2 0.2 2.4h-1.1q0.1-1.5 0-2.9 0-0.9 0-1.8 0-0.8-0.1-1.7h1.3q0.2 1 0.5 2 0.3 1 0.6 2-0.1-1-0.1-2-0.1-1.1-0.2-2z"/><path class="T" d="m199 92.6q0 0.1 0 0.3 0 0.3 0 0.5 0 0.2-0.1 0.5 0 0.2 0 0.5 0 0.1 0 0.2 0.1 0.1 0.1 0.2 0 0.2 0 0.3 0 0.1 0 0.3 0 0.1 0 0.2 0.1 0.1 0.1 0.1-0.2 0.1-0.4 0.1-0.2 0.1-0.3 0.1-0.1 0-0.3 0-0.2 0-0.3 0-0.2-0.1-0.4-0.2-0.2-0.2-0.4-0.4-0.2-0.2-0.3-0.6-0.2-0.4-0.2-0.9-0.1-0.5-0.1-1.2 0-0.7 0-1.2 0.1-0.5 0.3-0.9 0.1-0.4 0.3-0.6 0.2-0.2 0.4-0.4 0.2-0.1 0.4-0.2 0.2 0 0.3 0 0.2 0 0.3 0 0.1 0 0.2 0.1 0.1 0 0.2 0.1v0.9q-0.2-0.1-0.3-0.1-0.1 0-0.2 0-0.2 0-0.3 0.1-0.2 0.1-0.3 0.2-0.1 0.2-0.1 0.4-0.1 0.2-0.2 0.5-0.1 0.5-0.1 1.1 0.1 0.6 0.1 1.1 0.1 0.2 0.2 0.4 0 0.2 0.1 0.4 0.1 0.1 0.2 0.3 0.1 0.1 0.3 0.1 0-0.6-0.1-1.1 0-0.6-0.1-1.2z"/><path class="U" d="m89.5 91.8c0.5 0.1-0.4 1.9-0.6 2.1-0.3 0.2-4-0.3-4.3-0.6-0.4-0.2 1.2-1.9 2.1-2.1 0.8-0.2 2.3 0.4 2.8 0.6z"/><path class="U" d="m80.2 95.6c0.3 0.1-0.1 1-0.3 1.1-0.1 0.1-1.9-0.2-2.1-0.3-0.2-0.1 0.6-1 1-1.1 0.5-0.1 1.2 0.2 1.4 0.3z"/><path class="U" d="m88.9 94.1c-0.3 0.1-0.5 0.5-0.4 0.7 0.1 0.2 0.8 0.3 1.3 0.3 0.4-0.1 0.3-0.8 0.2-0.9-0.1-0.1-0.9-0.1-1.1-0.1z"/><path class="U" d="m83.7 96.7c-0.2 0-0.4 0.3-0.3 0.4 0.1 0.2 0.6 0.2 0.8 0.2 0.3 0 0.2-0.5 0.2-0.6-0.1 0-0.6-0.1-0.7 0z"/><path class="U" d="m139.3 91.6c0.5 0.1-0.4 2-0.6 2.2-0.3 0.2-4.1-0.4-4.5-0.6-0.3-0.2 1.3-2 2.2-2.2 0.9-0.3 2.4 0.4 2.9 0.6z"/><path class="U" d="m138.1 93.1c-0.4 0.1-0.8 0.7-0.6 0.9 0.1 0.3 1.2 0.5 1.7 0.4 0.6 0 0.5-1.1 0.3-1.2-0.2-0.1-1.2-0.2-1.4-0.1z"/><path class="V" d="m96.8 97.5c-0.3 0.4-1.4 0.6-1.6 0.6-0.2 0.1-1.9-0.2-1.9-0.2 0 0 0.1-0.6 0.2-0.6 0-0.1 1.1-0.2 1.5-0.3 0.4 0 1.8 0.5 1.8 0.5z"/><path class="W" d="m203.5 218.9l-1 8.5-58.9-3.8 1.2-1.1 0.8-1.3 4.4-0.5 1.3-2 0.4-1.3-2.1 2.4-5.1 0.8-3.5 1.1-0.9 1.2-1.3 0.3-118.6-7.7 1.2-10.3 61.7 4.7 1.3 2.2-0.5 2.5 1 1.7-0.2-2.6 3.4-1.9-0.1-1.6z"/><path class="T" d="m52.6 209.3l-1.2 6.4-1.1-0.1q0-0.4 0-0.7 0-0.4 0-0.7 0-0.3 0-0.6 0-0.3 0-0.7-0.1-0.3-0.1-0.6 0-0.4 0-0.8-0.2 0.5-0.4 1.5-0.2 1-0.6 2.5h-1.2v-6.5h1.2q0 0.3-0.1 0.6 0 0.3 0 0.7-0.1 0.3-0.1 0.8 0 0.3 0 0.6-0.1 0.4-0.1 0.7 0 0.3 0 0.6-0.1 0.3-0.1 0.6l1-3.9 1 0.1 0.2 3.7q0-0.3 0.1-0.7 0-0.3 0-0.7 0.1-0.4 0.1-0.7 0.1-0.4 0.1-0.8 0.1-0.7 0.1-1.5z"/><path fill-rule="evenodd" class="T" d="m54.3 215.8q0-0.3 0-0.6 0-0.4 0-0.7-0.2 0-0.4 0-0.2-0.1-0.3-0.1h-0.1q0 0.3-0.1 0.7 0 0.3-0.1 0.6l-1.1-0.1q0.4-1.6 0.8-3.2 0.3-1.6 0.6-3.2l1.3 0.2q0.1 1.6 0.2 3.2 0.1 1.6 0.3 3.2zm-0.1-5.4q-0.1 0.8-0.3 1.7-0.1 0.8-0.3 1.6 0.1 0 0.2 0 0.1 0 0.2 0l0.3 0.1q0-0.9 0-1.7-0.1-0.8-0.1-1.7z"/><path fill-rule="evenodd" class="T" d="m58.7 211.5q0 0.3-0.1 0.6-0.1 0.3-0.2 0.6-0.2 0.3-0.4 0.5-0.2 0.2-0.5 0.4 0.2 0.7 0.4 1.3 0.3 0.6 0.6 1.2l-1.1-0.1-0.6-2.2q0 0.6 0 1.1-0.1 0.5-0.1 1.1l-1-0.1q0.1-1 0.2-2 0.1-1.1 0.2-2.1 0.1-0.6 0.1-1.2 0-0.6 0-1.2 0.3 0 0.5 0 0.3 0 0.5 0 0.1 0 0.2 0 0.2 0.1 0.4 0.1 0.2 0.1 0.4 0.3 0.1 0.1 0.3 0.4 0.1 0.2 0.2 0.6 0 0.3 0 0.7zm-1.9 1.6q0.2 0 0.3-0.1 0.2-0.1 0.3-0.2 0.1-0.1 0.1-0.2 0.1-0.2 0.1-0.3 0.2-0.3 0.2-0.6 0 0 0-0.1 0-0.1 0-0.3 0-0.1 0-0.3-0.1-0.2-0.1-0.4-0.1-0.1-0.2-0.3-0.1-0.1-0.3-0.2-0.1 0.7-0.2 1.4-0.1 0.7-0.1 1.4z"/><path class="T" d="m62.6 209.9q-0.2 0.9-0.3 1.8-0.1 0.8-0.1 1.7-0.1 0.7-0.1 1.4 0 0.7-0.1 1.4l-0.9-0.1q-0.1-0.6-0.2-1.2-0.1-0.6-0.3-1.2-0.1-0.6-0.2-1.1-0.2-0.6-0.3-1.2-0.1 1.2-0.1 2.3-0.1 1.2-0.1 2.4l-1.1-0.1q0.2-1.4 0.3-2.9 0.1-0.9 0.1-1.7 0.1-0.9 0.1-1.8l1.3 0.1q0.1 1 0.3 2.1 0.2 1 0.4 2 0-1 0.1-2 0-1 0-2z"/><path class="T" d="m64.4 216.5q-0.2-0.1-0.3-0.1-0.2 0-0.4 0-0.3 0-0.6 0-0.3-0.1-0.6-0.1l0.1-0.9q0.1 0 0.2 0 0.1 0 0.2 0.1 0.1-0.7 0.2-1.4 0-0.7 0.1-1.4 0-0.5 0.1-0.9 0-0.5 0-0.9-0.1 0-0.2 0-0.2-0.1-0.3-0.1l0.1-0.9q0.3 0.1 0.7 0.1 0.3 0 0.7 0.1 0.1 0 0.2 0 0.2 0 0.3 0l-0.1 0.9q-0.1 0-0.2 0-0.1 0-0.2-0.1-0.1 0.8-0.2 1.6-0.1 0.8-0.2 1.6 0 0.7-0.1 1.4 0.2 0.1 0.3 0.1 0.2 0 0.3 0z"/><path class="T" d="m68.6 210.3q-0.1 0.9-0.2 1.8-0.1 0.9-0.2 1.8 0 0.7-0.1 1.4 0 0.7 0 1.3h-0.9q-0.1-0.6-0.3-1.2-0.1-0.6-0.2-1.2-0.1-0.6-0.3-1.2-0.1-0.6-0.3-1.1 0 1.1-0.1 2.3-0.1 1.2-0.1 2.3h-1q0.2-1.5 0.3-2.9 0-0.9 0.1-1.8 0-0.9 0.1-1.7l1.2 0.1q0.2 1 0.4 2 0.1 1.1 0.4 2.1 0-1 0-2 0-1.1 0-2.1z"/><path class="T" d="m71.5 213.8q-0.1 0.2-0.1 0.4 0 0.2-0.1 0.4 0 0.3 0 0.5-0.1 0.3-0.1 0.6 0 0 0 0.1 0 0.1 0 0.3 0 0.1 0 0.2 0 0.2 0 0.3 0 0.1 0 0.2 0 0.1 0 0.1-0.2 0.1-0.3 0.1-0.2 0.1-0.4 0.1-0.1 0-0.3 0-0.1 0-0.3-0.1-0.2-0.1-0.4-0.2-0.1-0.2-0.3-0.4-0.2-0.3-0.3-0.7-0.1-0.4-0.1-0.9 0-0.5 0-1.2 0.1-0.7 0.2-1.2 0.1-0.5 0.3-0.8 0.2-0.4 0.4-0.6 0.2-0.2 0.4-0.4 0.3-0.1 0.4-0.1 0.2-0.1 0.4 0 0.1 0 0.2 0 0.1 0 0.3 0.1 0.1 0 0.2 0.1l-0.2 0.9q-0.1 0-0.2-0.1-0.1 0-0.2 0-0.2 0-0.4 0-0.1 0.1-0.3 0.3-0.1 0.2-0.2 0.4-0.1 0.2-0.1 0.4-0.2 0.5-0.2 1.1-0.1 0.6 0 1.1 0 0.2 0.1 0.4 0 0.2 0.1 0.4 0.1 0.2 0.2 0.3 0.1 0.1 0.2 0.2 0.1-0.6 0.1-1.2 0-0.5-0.1-1.1z"/><path class="T" d="m112.9 213.7l-1.2 6.4h-1.1q0-0.4 0-0.8 0-0.3 0-0.7 0-0.3 0-0.6 0-0.3 0-0.6-0.1-0.3-0.1-0.7 0-0.3-0.1-0.7-0.1 0.5-0.3 1.5-0.2 0.9-0.6 2.4h-1.2v-6.5l1.2 0.1q-0.1 0.2-0.1 0.6 0 0.3 0 0.6-0.1 0.4-0.1 0.8 0 0.3-0.1 0.7 0 0.3 0 0.6 0 0.4 0 0.7-0.1 0.3-0.1 0.5l0.9-3.9 1.1 0.1 0.2 3.8q0-0.3 0.1-0.7 0-0.4 0-0.8 0.1-0.3 0.1-0.7 0-0.4 0.1-0.7 0.1-0.8 0.1-1.6z"/><path fill-rule="evenodd" class="T" d="m114.6 220.2q0-0.3 0-0.6 0-0.3 0-0.6-0.2-0.1-0.4-0.1-0.2 0-0.4 0-0.1 0.3-0.1 0.6 0 0.3-0.1 0.6l-1.1-0.1q0.4-1.6 0.7-3.1 0.4-1.6 0.7-3.2l1.3 0.1q0.1 1.6 0.2 3.2 0.1 1.6 0.3 3.2zm-0.1-5.3q-0.2 0.8-0.3 1.6-0.1 0.8-0.3 1.6 0.1 0.1 0.2 0.1 0.1 0 0.2 0h0.3q0-0.8 0-1.7-0.1-0.8-0.1-1.6z"/><path fill-rule="evenodd" class="T" d="m119 216q0 0.3-0.1 0.6-0.1 0.3-0.3 0.5-0.1 0.3-0.3 0.5-0.2 0.3-0.5 0.4 0.2 0.7 0.4 1.3 0.3 0.6 0.6 1.2h-1.1l-0.6-2.2q0 0.5 0 1-0.1 0.6-0.1 1.1l-1.1-0.1q0.2-1 0.3-2 0.1-1 0.2-2 0-0.6 0.1-1.2 0-0.6 0-1.2 0.3-0.1 0.5-0.1 0.3 0 0.4 0 0.2 0 0.3 0.1 0.2 0 0.4 0.1 0.2 0.1 0.3 0.2 0.2 0.2 0.3 0.4 0.2 0.3 0.2 0.6 0.1 0.3 0.1 0.8zm-1.9 1.5q0.2 0 0.3-0.1 0.1-0.1 0.2-0.2 0.1-0.1 0.2-0.2 0.1-0.1 0.1-0.2 0.1-0.3 0.2-0.7 0 0 0-0.1 0-0.1 0-0.2 0-0.2 0-0.4-0.1-0.1-0.1-0.3-0.1-0.2-0.2-0.3-0.1-0.2-0.3-0.2-0.1 0.7-0.2 1.3-0.1 0.7-0.1 1.5z"/><path class="T" d="m122.9 214.3q-0.2 0.9-0.3 1.8-0.1 0.9-0.1 1.8-0.1 0.7-0.1 1.4-0.1 0.6-0.1 1.3l-0.9-0.1q-0.1-0.6-0.2-1.2-0.2-0.6-0.3-1.1-0.1-0.6-0.2-1.2-0.2-0.6-0.3-1.2-0.1 1.2-0.2 2.4 0 1.2 0 2.3l-1.1-0.1q0.2-1.4 0.3-2.8 0.1-0.9 0.1-1.8 0.1-0.9 0.1-1.8l1.3 0.2q0.1 1 0.3 2 0.2 1 0.4 2.1 0-1.1 0.1-2.1 0-1 0-2z"/><path class="T" d="m124.7 220.9q-0.2 0-0.4 0-0.1-0.1-0.3-0.1-0.3 0-0.6 0-0.3 0-0.6 0l0.1-1q0.1 0 0.2 0.1 0.1 0 0.2 0 0.1-0.7 0.2-1.4 0-0.7 0.1-1.4 0-0.4 0-0.9 0.1-0.4 0.1-0.9-0.1 0-0.3 0-0.1 0-0.2 0l0.1-0.9q0.3 0 0.7 0 0.3 0.1 0.7 0.1 0.1 0 0.2 0 0.1 0 0.3 0l-0.1 0.9q-0.1 0-0.2 0-0.1 0-0.2 0-0.2 0.8-0.2 1.6-0.1 0.8-0.2 1.6-0.1 0.7-0.1 1.4 0.2 0 0.3 0 0.2 0 0.3 0z"/><path class="T" d="m128.9 214.8q-0.1 0.9-0.2 1.8-0.1 0.9-0.2 1.7 0 0.7-0.1 1.4 0 0.7 0 1.4l-0.9-0.1q-0.2-0.6-0.3-1.2-0.1-0.6-0.2-1.2-0.2-0.6-0.3-1.1-0.1-0.6-0.3-1.2 0 1.2-0.1 2.4-0.1 1.1-0.1 2.3l-1-0.1q0.1-1.4 0.3-2.9 0-0.9 0.1-1.7 0-0.9 0.1-1.8l1.2 0.1q0.2 1 0.3 2.1 0.2 1 0.4 2 0.1-1 0.1-2 0-1 0-2z"/><path class="T" d="m131.8 218.3q-0.1 0.1-0.1 0.3 0 0.3-0.1 0.5 0 0.2-0.1 0.5 0 0.2 0 0.5 0 0.1 0 0.2 0 0.1 0 0.2 0 0.1 0 0.3 0 0.1 0 0.2 0 0.2 0 0.3 0 0.1 0 0.1-0.2 0.1-0.4 0.1-0.1 0-0.3 0-0.1 0-0.3 0-0.1 0-0.3-0.1-0.2 0-0.4-0.2-0.2-0.1-0.3-0.4-0.2-0.3-0.3-0.6-0.1-0.4-0.1-0.9-0.1-0.6 0-1.3 0-0.6 0.2-1.1 0.1-0.5 0.3-0.9 0.2-0.4 0.4-0.6 0.2-0.2 0.4-0.3 0.2-0.1 0.4-0.2 0.2 0 0.4 0 0.1 0 0.2 0 0.1 0.1 0.2 0.1 0.2 0.1 0.2 0.2l-0.1 0.9q-0.1-0.1-0.2-0.1-0.2-0.1-0.3-0.1-0.1 0-0.3 0.1-0.1 0.1-0.3 0.2-0.1 0.2-0.2 0.4-0.1 0.2-0.1 0.4-0.2 0.5-0.2 1.2-0.1 0.6 0 1 0 0.2 0 0.5 0.1 0.2 0.2 0.3 0 0.2 0.2 0.4 0.1 0.1 0.2 0.1 0-0.5 0-1.1 0-0.6 0-1.2z"/><path class="T" d="m180.4 218.5l-1.2 6.5-1.2-0.1q0.1-0.4 0.1-0.8 0-0.3 0-0.7 0-0.3 0-0.6 0-0.3-0.1-0.6 0-0.3 0-0.7 0-0.3-0.1-0.7-0.1 0.5-0.3 1.5-0.2 1-0.6 2.4h-1.2v-6.5l1.2 0.1q-0.1 0.3-0.1 0.6 0 0.3-0.1 0.6 0 0.4 0 0.8 0 0.3-0.1 0.7 0 0.3 0 0.6 0 0.4-0.1 0.7 0 0.3 0 0.5l0.9-3.9 1.1 0.1 0.2 3.8q0-0.3 0-0.7 0.1-0.4 0.1-0.8 0.1-0.3 0.1-0.7 0-0.4 0.1-0.7 0-0.8 0.1-1.6z"/><path fill-rule="evenodd" class="T" d="m182.1 225q0-0.3 0-0.6 0-0.3 0-0.6-0.2-0.1-0.4-0.1-0.2 0-0.4 0-0.1 0.3-0.1 0.6-0.1 0.3-0.1 0.6l-1.1-0.1q0.4-1.6 0.7-3.1 0.4-1.6 0.7-3.2l1.3 0.1q0.1 1.6 0.2 3.2 0.1 1.6 0.3 3.2zm-0.1-5.3q-0.2 0.8-0.3 1.6-0.2 0.8-0.3 1.7 0.1 0 0.2 0 0.1 0 0.2 0h0.3q0-0.8 0-1.7-0.1-0.8-0.1-1.6z"/><path fill-rule="evenodd" class="T" d="m186.5 220.8q-0.1 0.3-0.1 0.6-0.1 0.3-0.3 0.6-0.1 0.2-0.3 0.5-0.2 0.2-0.5 0.3 0.2 0.7 0.4 1.3 0.3 0.6 0.6 1.2h-1.1l-0.6-2.2q0 0.5-0.1 1.1 0 0.5 0 1l-1.1-0.1q0.2-1 0.3-2 0.1-1 0.2-2 0-0.6 0.1-1.2 0-0.6 0-1.2 0.3-0.1 0.5-0.1 0.3 0 0.4 0 0.2 0 0.3 0.1 0.2 0 0.4 0.1 0.2 0.1 0.3 0.2 0.2 0.2 0.3 0.4 0.2 0.3 0.2 0.6 0.1 0.3 0.1 0.8zm-1.9 1.5q0.2 0 0.3-0.1 0.1-0.1 0.2-0.2 0.1-0.1 0.2-0.2 0.1-0.1 0.1-0.2 0.1-0.3 0.2-0.7 0 0 0-0.1 0-0.1 0-0.2 0-0.2-0.1-0.4 0-0.1-0.1-0.3 0-0.2-0.1-0.3-0.2-0.2-0.3-0.2-0.1 0.7-0.2 1.4-0.1 0.7-0.2 1.4z"/><path class="T" d="m190.3 219.1q-0.1 0.9-0.2 1.8-0.1 0.9-0.1 1.8-0.1 0.7-0.1 1.4-0.1 0.6-0.1 1.3l-0.9-0.1q-0.1-0.6-0.2-1.2-0.2-0.5-0.3-1.1-0.1-0.6-0.3-1.2-0.1-0.6-0.2-1.1-0.1 1.1-0.2 2.3 0 1.2 0 2.3l-1.1-0.1q0.2-1.4 0.3-2.8 0.1-0.9 0.1-1.8 0.1-0.9 0.1-1.8l1.3 0.2q0.1 1 0.3 2 0.2 1.1 0.4 2.1 0-1 0-2.1 0.1-1 0.1-2z"/><path class="T" d="m192.2 225.7q-0.2 0-0.4 0-0.1 0-0.3-0.1-0.3 0-0.6 0-0.3 0-0.6 0l0.1-1q0.1 0.1 0.2 0.1 0.1 0 0.2 0 0.1-0.7 0.1-1.4 0.1-0.7 0.2-1.4 0-0.4 0-0.9 0.1-0.4 0.1-0.9-0.1 0-0.3 0-0.1 0-0.2 0l0.1-0.9q0.3 0 0.7 0 0.3 0.1 0.7 0.1 0.1 0 0.2 0 0.1 0 0.3 0l-0.1 0.9q-0.1 0-0.2 0-0.1 0-0.2 0-0.2 0.8-0.3 1.6 0 0.8-0.1 1.6-0.1 0.7-0.1 1.4 0.2 0 0.3 0 0.2 0 0.3 0z"/><path class="T" d="m196.4 219.6q-0.1 0.9-0.2 1.8-0.1 0.9-0.2 1.8-0.1 0.6-0.1 1.3 0 0.7 0 1.4l-0.9-0.1q-0.2-0.6-0.3-1.2-0.1-0.6-0.2-1.2-0.2-0.5-0.3-1.1-0.1-0.6-0.3-1.2-0.1 1.2-0.1 2.4-0.1 1.1-0.1 2.3l-1-0.1q0.1-1.4 0.2-2.9 0.1-0.9 0.2-1.7 0-0.9 0-1.8l1.3 0.1q0.2 1 0.3 2.1 0.2 1 0.4 2 0.1-1 0.1-2 0-1 0-2z"/><path class="T" d="m199.3 223.1q-0.1 0.2-0.1 0.4-0.1 0.2-0.1 0.4 0 0.2-0.1 0.5 0 0.2 0 0.5 0 0.1 0 0.2 0 0.1 0 0.2 0 0.1 0 0.3 0 0.1 0 0.3 0 0.1 0 0.2 0 0.1 0 0.1-0.2 0.1-0.4 0.1-0.1 0-0.3 0-0.1 0-0.3 0-0.1 0-0.3-0.1-0.2 0-0.4-0.2-0.2-0.1-0.3-0.4-0.2-0.3-0.3-0.6-0.1-0.4-0.1-0.9-0.1-0.6 0-1.2 0-0.7 0.2-1.2 0.1-0.5 0.3-0.9 0.2-0.3 0.4-0.6 0.2-0.2 0.4-0.3 0.2-0.1 0.4-0.2 0.2 0 0.4 0 0.1 0 0.2 0.1 0.1 0 0.2 0 0.1 0.1 0.2 0.2l-0.1 0.9q-0.2-0.1-0.3-0.1-0.1-0.1-0.2-0.1-0.2 0-0.3 0.1-0.2 0.1-0.3 0.2-0.1 0.2-0.2 0.4-0.1 0.2-0.1 0.4-0.2 0.5-0.3 1.2 0 0.6 0.1 1 0 0.3 0 0.5 0.1 0.2 0.2 0.3 0 0.2 0.1 0.4 0.1 0.1 0.3 0.2 0-0.6 0-1.2 0-0.6 0-1.2z"/><path class="U" d="m96.3 213.7c-0.5-0.1-3.9-0.5-4.1-0.5-0.3 0-1.9 2.4-1.8 2.8 0.1 0.4 4.3 1.3 4.7 1.2 0.5 0 2.8-1 2.9-1.4 0.2-0.4-1.2-2-1.7-2.1z"/><path class="U" d="m69.6 212.7c-0.5-0.1-3.8-0.5-4.1-0.5-0.2 0-1.8 2.4-1.8 2.8 0.1 0.4 4.3 1.3 4.8 1.2 0.4 0 2.7-1 2.9-1.4 0.1-0.4-1.3-2-1.8-2.1z"/><path class="V" d="m103.5 215.6c-0.2 0.2-1.8 0.4-2.7 0.2-0.5-0.2-0.5-1.1-0.3-1.2 0.4-0.2 1.6-0.3 2.1-0.2 0.5 0.1 1.1 0.9 0.9 1.2z"/><path class="U" d="m94.9 219c0 0-0.2 0-0.3 0-0.1 0-0.1 0.1 0 0.2 0 0 0.3 0 0.4 0 0 0 0-0.2-0.1-0.2z"/><path class="U" d="m95.4 217.4c-0.1-0.1-0.5-0.2-0.7-0.1-0.1 0-0.2 0.2-0.1 0.4 0.1 0.1 0.8 0 0.8 0 0.1-0.1 0-0.3 0-0.3z"/><path class="U" d="m65.3 212.9c-0.1-0.1-0.5-0.1-0.7-0.1-0.1 0.1-0.2 0.3-0.1 0.4 0.1 0.1 0.8 0.1 0.8 0 0.1 0 0-0.2 0-0.3z"/><path class="U" d="m92.8 217.9c-0.1 0-0.3-0.1-0.3-0.1-0.1 0.1 0 0.2 0 0.2 0 0 0.3 0.1 0.3 0z"/><path class="U" d="m96.7 213.2c-0.1 0-0.2 0.2-0.2 0.3 0.1 0.1 0.5 0.2 0.7 0.2 0.2-0.1 0.2-0.5 0.1-0.5-0.1-0.1-0.5-0.1-0.6 0z"/><path class="V" d="m93.6 217.2c0.3 0.2 0.3 0.4 0.3 0.5l-0.5 0.3c0 0-0.4-0.2-0.5-0.2-0.1 0 0-0.2 0-0.3 0-0.1 0.7-0.3 0.7-0.3z"/><path class="V" d="m93.7 212c0.3 0.2 0.3 0.4 0.3 0.4 0 0.1-0.5 0.4-0.5 0.4l-0.5-0.2c-0.1 0 0-0.3 0-0.4 0-0.1 0.7-0.2 0.7-0.2z"/><path fill-rule="evenodd" class="U" d="m171.3 218.8c-0.1 0.4-2.7 1.3-3.2 1.3-0.5 0.1-5.4-0.3-5.5-0.7-0.1-0.3 1.4-2.3 1.7-2.3 0.3 0 4.1 0.1 4.7 0.2 0.6 0 2.4 1.2 2.3 1.5zm-9.1 0.9c0.4 0.1-0.1 1.3-0.3 1.5-0.2 0.1-3.6 0.1-4-0.1-0.4-0.1 0.8-1.3 1.6-1.5 0.7-0.2 2.1 0.1 2.7 0.1zm10 1.4c-0.2 0.2-2 0.4-3 0.3-0.7-0.1-0.8-0.8-0.5-0.9 0.4-0.2 1.8-0.4 2.3-0.3 0.6 0.1 1.4 0.6 1.2 0.9zm-9.3 0.1c0.2 0.1 0.4 0.6 0 0.6-0.4 0.1-1.1 0.1-1.2-0.1-0.1-0.1 0-0.4 0.3-0.4 0.1-0.1 0.8-0.1 0.9-0.1zm5.3 0.5c-0.1 0-0.4 0.1-0.5 0-0.1 0 0-0.1 0-0.1 0.1 0 0.4 0 0.4 0 0.1 0 0.1 0.1 0.1 0.1zm0.3-1.2c0 0-0.8 0.1-0.9 0-0.1-0.1-0.1-0.2 0.1-0.3 0.1 0 0.6 0 0.7 0.1 0.1 0 0.2 0.2 0.1 0.2zm-2.9 0.4c0 0.1-0.4 0.1-0.4 0.1 0 0-0.1-0.2 0-0.2h0.3c0.1 0 0.1 0.1 0.1 0.1zm-7.4 2.4c0.1 0 0.2 0.4 0 0.4-0.3 0-0.7 0-0.8-0.1-0.1 0 0-0.2 0.2-0.3 0.1 0 0.5 0 0.6 0zm8.2-3.1c0.3 0.1 0.4 0.3 0.4 0.4l-0.5 0.3-0.6-0.1c-0.1-0.1-0.1-0.2-0.1-0.3 0-0.1 0.8-0.3 0.8-0.3zm3.3 2.6c-0.3 0.2-1.2 0.5-1.4 0.5-0.2 0-1.8 0-1.8 0 0 0 0-0.4 0.1-0.4 0-0.1 0.9-0.2 1.3-0.3 0.4 0 1.8 0.2 1.8 0.2z"/></g></svg>