<svg version="1.2" xmlns="http://www.w3.org/2000/svg" viewBox="0 0 250 300" width="250" height="300"><defs><clipPath clipPathUnits="userSpaceOnUse" id="cp1"><path d="m604 350h-900v-400h900z"/></clipPath><linearGradient id="P" gradientUnits="userSpaceOnUse"/><radialGradient id="g1" cx="0" cy="0" r="1" href="#P" gradientTransform="matrix(195.688,0,0,195.688,114.497,91.767)"><stop stop-color="#797289"/><stop offset="1" stop-color="#231050"/></radialGradient><radialGradient id="g2" cx="0" cy="0" r="1" href="#P" gradientTransform="matrix(166.446,0,0,166.446,113.97,118.122)"><stop stop-color="#797289"/><stop offset="1" stop-color="#231050"/></radialGradient><linearGradient id="g3" x2="1" href="#P" gradientTransform="matrix(157.051,0,0,10.897,36.616,50.785)"><stop stop-color="#541d5e"/><stop offset="1" stop-color="#8e83c9"/></linearGradient><linearGradient id="g4" x2="1" href="#P" gradientTransform="matrix(0,-211.602,4.017,0,-5450.705,273.274)"><stop/><stop offset="1" stop-color="#434f67"/></linearGradient><linearGradient id="g5" x2="1" href="#P" gradientTransform="matrix(0,-116.698,140.698,0,64.119,273.274)"><stop stop-color="#a392b8"/><stop offset="1" stop-color="#612c73"/></linearGradient><linearGradient id="g6" x2="1" href="#P" gradientTransform="matrix(0,-84.138,21.51,0,28.667,272.93)"><stop stop-color="#a392b8"/><stop offset="1" stop-color="#612c73"/></linearGradient><linearGradient id="g7" x2="1" href="#P" gradientTransform="matrix(0,-54.373,17.791,0,-52.843,273.268)"><stop stop-color="#a392b8"/><stop offset="1" stop-color="#612c73"/></linearGradient><linearGradient id="g8" x2="1" href="#P" gradientTransform="matrix(0,-1.068,17.622,0,202.366,52.374)"><stop/><stop offset="1" stop-color="#434f67"/></linearGradient><linearGradient id="g9" x2="1" href="#P" gradientTransform="matrix(0,-0.89,17.622,0,27.804,52.866)"><stop/><stop offset="1" stop-color="#434f67"/></linearGradient><linearGradient id="g10" x2="1" href="#P" gradientTransform="matrix(0,-24.93,131.058,0,105.239,50.785)"><stop/><stop offset="1" stop-color="#434f67"/></linearGradient><linearGradient id="g11" x2="1" href="#P" gradientTransform="matrix(0,-120.532,48.613,0,-59.671,258.521)"><stop stop-color="#a392b8"/><stop offset="1" stop-color="#612c73"/></linearGradient><linearGradient id="g12" x2="1" href="#P" gradientTransform="matrix(21.286,0,0,10.593,87.568,200.263)"><stop stop-color="#413c84"/><stop offset="1" stop-color="#312e54"/></linearGradient><linearGradient id="g13" x2="1" href="#P" gradientTransform="matrix(0,-36.535,32.932,0,75.28,258.522)"><stop stop-color="#413c84"/><stop offset="1" stop-color="#312e54"/></linearGradient><linearGradient id="g14" x2="1" href="#P" gradientTransform="matrix(44.959,0,0,53.67,68.053,138.976)"><stop stop-color="#efecf3"/><stop offset="1" stop-color="#612c73"/></linearGradient><linearGradient id="g15" x2="1" href="#P" gradientTransform="matrix(21.286,0,0,21.786,87.568,206.655)"><stop stop-color="#efecf3"/><stop offset="1" stop-color="#612c73"/></linearGradient><linearGradient id="g16" x2="1" href="#P" gradientTransform="matrix(0,-222.489,157.092,0,-42.455,273.274)"><stop stop-color="#a392b8"/><stop offset="1" stop-color="#612c73"/></linearGradient><linearGradient id="g17" x2="1" href="#P" gradientTransform="matrix(0,72.01,-73.91,0,114.567,61.672)"><stop stop-color="#612c73"/><stop offset=".76" stop-color="#fff"/></linearGradient><linearGradient id="g18" x2="1" href="#P" gradientTransform="matrix(0,-73.742,17.786,0,-122.607,273.268)"><stop stop-color="#612c73"/><stop offset=".76" stop-color="#fff"/></linearGradient><linearGradient id="g19" x2="1" href="#P" gradientTransform="matrix(0,-99.131,25.808,0,.586,272.926)"><stop stop-color="#612c73"/><stop offset=".76" stop-color="#fff"/></linearGradient><linearGradient id="g20" x2="1" href="#P" gradientTransform="matrix(0,47.471,-69.304,0,60.824,61.672)"><stop stop-color="#612c73"/><stop offset=".76" stop-color="#fff"/></linearGradient><linearGradient id="g21" x2="1" href="#P" gradientTransform="matrix(0,-26.668,21.474,0,201.377,179.599)"><stop stop-color="#a392b8"/><stop offset="1" stop-color="#612c73"/></linearGradient><linearGradient id="g22" x2="1" href="#P" gradientTransform="matrix(0,-25.283,21.785,0,205.391,176.995)"><stop stop-color="#413c6b"/><stop offset="1" stop-color="#312770"/></linearGradient><linearGradient id="g23" x2="1" href="#P" gradientTransform="matrix(0,-8.775,11.368,0,216.753,170.289)"><stop stop-color="#a392b8"/><stop offset="1" stop-color="#612c73"/></linearGradient></defs><style>.a{fill:url(#g1)}.b{fill:#0a0520}.c{fill:url(#g2)}.d{opacity:.5;mix-blend-mode:multiply;fill:url(#g3)}.e{fill:#0c0109}.f{opacity:.5;mix-blend-mode:screen;fill:url(#g4)}.g{opacity:.2;mix-blend-mode:multiply;fill:url(#g5)}.h{opacity:.2;mix-blend-mode:multiply;fill:url(#g6)}.i{opacity:.2;mix-blend-mode:multiply;fill:url(#g7)}.j{opacity:.5;mix-blend-mode:screen;fill:url(#g8)}.k{opacity:.5;mix-blend-mode:screen;fill:url(#g9)}.l{opacity:.5;mix-blend-mode:screen;fill:url(#g10)}.m{fill:#0e0012}.n{mix-blend-mode:multiply;fill:url(#g11)}.o{fill:url(#g12)}.p{fill:url(#g13)}.q{opacity:.6;mix-blend-mode:multiply;fill:url(#g14)}.r{opacity:.6;mix-blend-mode:multiply;fill:url(#g15)}.s{fill:#1a0c1b}.t{opacity:.6;mix-blend-mode:multiply;fill:url(#g16)}.u{opacity:.5;mix-blend-mode:multiply;fill:url(#g17)}.v{opacity:.5;mix-blend-mode:multiply;fill:url(#g18)}.w{opacity:.5;mix-blend-mode:multiply;fill:url(#g19)}.x{opacity:.5;mix-blend-mode:multiply;fill:url(#g20)}.y{fill:#af514f}.z{opacity:.6;mix-blend-mode:multiply;fill:url(#g21)}.A{fill:url(#g22)}.B{opacity:.6;mix-blend-mode:multiply;fill:url(#g23)}.C{opacity:.3;fill:#adcce3}</style><g clip-path="url(#cp1)"><path class="a" d="m22.1 272.9l-3.4-247h193.5l-11.4 247z"/><path class="b" d="m39.2 273.3l-2.6-222.5h157.1l-10.5 222.1z"/><path class="c" d="m42.8 273.3v-211.6h143.8l-8.3 211.2z"/><path class="d" d="m36.6 50.8l6.2 10.9h143.8l7.1-10.9z"/><path class="e" d="m36.6 50.8l-17.6 0.8v0.4h17.6z"/><path class="e" d="m193.7 50.8h17.5v0.5h-17.6z"/><path class="f" d="m115.4 61.7l-3.4 211.6c0 0 5.9-113.2 3.4-211.6z"/><path class="g" d="m42.2 230.5l56.2-4.1v17.1h22.5l-1.3-80.5 63.3-6.4-4.6 116.3-135.5 0.4z"/><path class="h" d="m204.7 188.8l-17.7 4.3-3.8 79.8h17.6z"/><path class="i" d="m38.5 218.9l-17.1 3.7 0.7 50.3 17.1 0.4z"/><path class="j" d="m193.6 51.3c0 0 10 2.4 17.6 0z"/><path class="k" d="m36.6 52h-17.6c0 0 4.8 2 17.6 0z"/><path class="l" d="m42.2 25.9l27.4 24.9h90.6l12.9-24.9z"/><path class="m" d="m93.5 32l0.4 13.5h47l0.6-13.5z"/><path class="n" d="m114 138l-23.6 22.9-22.3 31.7-2.7 10 13.7 49.4 25.1 6.5 7.8-3z"/><path class="m" d="m113 139l-5.3 21-1.2 40.3 2.4 10.6-2.4 18.9 5.5 25.7z"/><path class="o" d="m108.9 210.9l-21.3-4.2 18.9-6.4z"/><path class="p" d="m106.6 228.5l-13.9-6.5-13.6 30 25.1 6.5 7.8-3z"/><path class="q" d="m107.7 160l-39.6 32.6 22.3-31.7 22.6-21.9z"/><path class="r" d="m87.6 206.7l5.1 15.3 13.9 6.5 2.3-17.6z"/><path class="s" d="m42.8 273.3v-107-20.3l3.6 14.9-1.8 1.1v3.8l1.8 1.7 1.1 0.7-1.2 4.7-1.2 2.5 1.6 1.6-1.6 6.1-1-0.1-0.9 1.7v2.1l0.6 1.7 0.1 2.1-0.7 2.5 0.4 1.4-0.1 40.7 0.6 0.7 1 4.4v2.3l-1.3 1.4 0.1 2.1 1.2-2.1 2.4-1.5 2.3 1.5v2.1l-2.1 4.8-1.4 0.5v1l0.6 0.6v1.3l-0.6 1.2-1.6 4.6-1 1.5-0.1 3.5 1.1 2.7 2.2 0.5 2.9-1.5 3 0.4 2 3.6 4 0.3 0.7 1.6h2l5.5 0.3z"/><path class="s" d="m102.4 273l1.8-1h2.3 4l-0.7-2.9v-1.7l0.7-1.2v-3.7l1.5-7-0.4 17.8z"/><path class="s" d="m99.4 272.9l-3-1.8-3.8 0.9-4.6 0.9-1.9 0.4z"/><path class="s" d="m183.2 272.9l-1.1-2.9 1.1-4.2-0.3-0.7v-1.7l-0.2-1.8-1.4-1.6v-1.8l0.6-1.9 1-0.6 1 2.2 0.2-2.2-0.9-1.6v-2.6l-0.5-0.3-0.5-1.9 0.5-2.2h0.5l0.9-0.5v-2.5l0.7-3.7v-3.9l0.5-6.6 1.8 7.8-0.5 1.3h-1l0.1 1 0.2 0.5 0.5-0.1 0.2 2.1-0.2 1.2-0.7 0.8-0.4 1 0.1 2.3 0.9 1.6 0.3 1.7 0.3 0.3 0.2 0.9-0.2 1-0.3 0.1v1l0.5-0.4 0.4-0.8 1.2 0.4 0.4 0.9-0.2 0.9-0.7 0.9-0.4 0.1 1.1 0.9 1.3 1.4 1.2 2.1-0.5 2.5-0.7 0.6 0.4 0.8 0.4-0.8 0.4 0.5 0.3 1.7 1.6 2.1 3.4-0.9 1-2-0.3-2-0.1-1.7 1.5-2.2-0.5-0.7 0.5-1.2 0.4-0.1 0.7 0.8 0.7-1.7-0.6-0.7 0.2-1.8 1.1-3.1-0.7-1.8 0.2-0.7 0.5-1.2 0.7-1-1.2 26.7z"/><path class="s" d="m38.3 195.2l-1.7-3.4v-3.5l0.8-1.7 0.7-3.1-1.5-1-0.4-2.3 1-3.5-0.6-0.9-0.4-0.8v-2.3l1-2.4 0.5 0.4 0.3-1.1-0.5-1 0.1-0.9-0.4-2 0.7-2.9 0.5 7.9v1.1l-0.3 0.2v1.8l0.3 2.2 0.4 0.6 0.5-0.3 0.3-0.7 0.9 1-0.2 2.6h-0.9l-0.1-1.1-0.4 0.3-0.2-0.2v15.8l0.1 0.6z"/><path class="s" d="m127.2 273l11-1.5 3.4 0.7 0.8 0.4h1.8l-0.6-1.1 1.7-0.9 5.5 0.5 0.7 1.1v0.5l2-0.1v-0.8h1.4l1.2 0.4 1.1-1.1 1.7-1.2h3.5v1.2l-1.3 0.4h2.8v-1.1l-0.7-2.4 0.7-0.9 1.6-0.6 1.3 2.4 0.9-1.5-1.2-0.9v-0.9l2.1-1.2 3.4-2.6 2.5 0.8 1 0.8 1.1-0.8 1.1 1.8 0.5-2-0.8-1.4v-1.3l0.8-1.2v-2.4l-1.1-0.6-0.3-2.8 0.6-2.5 0.8-2.4-0.6-1-1-1.7 0.6-2.1 1 1-0.8 0.8 0.8 0.1 0.4-1-0.8-0.9-0.2-1.7 0.7-2.3 1.4-1.3-1.4 35.2z"/><path class="t" d="m181.3 272.9l12.4-222.1h-157.1l2.6 222.5h9.1l-3.5-206.3 135.5 0.5-6.1 205.5z"/><path class="s" d="m149.3 269.4v-1.9l1.8-1 1.7 1.9-2.4 1.6z"/><path class="s" d="m163.3 263.7v-2.1h2.3l0.7 2.1-0.9 0.7z"/><path class="s" d="m173.5 245.5l-1.9-1.6 0.3-1.2 0.8 0.7z"/><path class="u" d="m186.6 61.7l-6 66.7-9.3 5.3-8.3-10.6 1.5-11.1-3.5-29.5-2.8-3.9v14.6 18.8l-9.2 7-18.6-12.8 3.3-13-3.3-10.7-0.9-19.5-2.6-0.1 2.6 49.1-3.8 1.3-1.5-30.8-2.6-15h-3.2v6.2l-2.7 26-3 19.3 2.7-57.3z"/><path class="v" d="m39.2 273.3l-0.5-42.4-0.4-31.4-2.1 7.2-2 17.6v12.1 11.6l-3 1.8v8.7l-2.6 4v-4-15.7l-1.3-17-5.9-8.4 0.7 55.5z"/><path class="w" d="m178.3 272.9l3.7-93.3 5.9-5.8-1.3 34.2 1.3 4.5v13.3l2 19.7 1.7-12.2v-33l6.2-5.1 1.6 2v20.4l2.6 1.3 0.9-15.4 1.2-1.8-3.3 71.2z"/><path class="x" d="m42.5 61.7v40l14.1 7.4 11.2-11.8 1.7-25.3 2.8-1.4v9l3.4 14.6 3.1-11.3 7-6.5v-14.7l16.3 0.2v8.7l9.6 5.8-0.4-14.7z"/><path class="m" d="m102.5 102.2c-2.4 0.2-4.7-0.5-6.5-2-1.4-1.2-3.2-3.4-3.5-7.5-0.5-8 5.2-12.2 9.5-12.6 1.5-0.2 2.7 0.1 3.5 0.8 0.6 0.5 1 1.2 1.1 2 0.1 1.3-0.3 4.2-2 5.1l-0.6 0.3-0.6-0.3q-1-0.3-1.9-0.3c-2.3 0.3-3.9 2.9-3.8 5q0 0.6 0.9 1.5c0.8 0.7 1.9 1 3 0.9 2.8-0.3 4.5-3.3 4.5-4.1-0.1-1.4 0.8-1.9 1.4-2 0.5 0 1.2 0.1 1.8 1.1l0.1 0.1 0.1 0.2c1 2.7 0.9 5.6-0.5 7.9-1.4 2.2-3.7 3.6-6.5 3.9z"/><path class="y" d="m102.2 99.3c-3.7 0.4-7.9-2-8.4-8.1-0.7-10.7 10.9-13.2 11.2-9.6 0.1 1.2-0.4 3.2-1.2 3.7-4.7-1.8-7.9 2.6-7.7 6.1 0.1 1.7 2.5 4 5.5 3.7 3.6-0.4 5.9-4.2 5.8-5.6-0.1-1 0.6 0 0.6 0 1.8 4.7-0.9 9.3-5.8 9.8z"/><path class="m" d="m107.8 101.4c-0.1-0.4-0.3-1.8-0.7-5.5-0.6-4.9-1.6-12.3-2.2-14.2-0.3-0.9 0.3-1.9 1.2-2.3 0.4-0.1 1-0.4 1.8-0.5 1.2-0.1 2.3 0.2 3.1 0.9q1.6 1.4 1.9 4.6c0.1 1.4 0.2 3 0.3 4.9q0.5-0.1 1-0.2 0.4 0 0.7 0c-0.5-4-0.6-7.7-0.5-9.1v-0.8l0.7-0.4c0.6-0.3 1.5-0.6 2.4-0.7 2.1-0.2 3.6 0.4 4.1 1.7 0.5 1 0.4 2.2 0.4 4.3v0.7c-0.2 5.8 0.4 11.1 0.4 11.1l0.1 0.3-0.4 1.3-0.1 1.2h-0.5l-0.3 2.7-1.2-0.8q-0.1 0.1-0.3 0.2c-0.2 0.1-0.5 0.2-0.6 0.2l-1 0.1-0.5-0.9q-0.9-1.8-1.6-4.8c-0.8 0.1-1.7 0.4-2.6 0.6 0 0.6 0.2 4.7 0.2 4.7l-1.2-1.2-0.9 0.8-1 1.6h-0.1c-0.2 0.3-0.5 0.4-0.7 0.5l-1.4 0.5z"/><path class="y" d="m121.4 83.3c-0.2 6 0.4 11.3 0.4 11.3v0.3h-0.2l-0.1 0.9h-0.2l-0.2-0.1-0.2 1.8-0.3-0.2-0.2 0.2-0.3 0.1c0 0 0 0.4-0.1 0.5q-0.1 0-0.2 0c-0.8-1.5-1.4-3.6-1.9-6q-0.1 0.2-0.3 0.2c-1.1 0.1-3.3 0.8-4.8 1.2 0 1.3 0.1 2.1 0.1 2.1l-0.3-0.3v0.8l-0.4 0.1-0.2 1.1-0.8 0.6-0.4 0.7-0.2-0.2-0.2 0.8c0 0-0.2 0.3-0.3 0.4-0.3-1.1-1.9-16.6-2.9-19.8-0.1-0.1 0-0.4 0.3-0.5 1.2-0.5 4.4-1.4 4.8 3.8 0.1 2.1 0.3 4.4 0.4 6.5 1.5-0.4 3.2-0.6 4.7-0.6-0.6-4.4-0.8-8.7-0.7-10.4 1.1-0.6 3.9-0.9 4.5 0.4 0.3 0.7 0.2 1.9 0.2 4.3z"/><path class="m" d="m123 101.4c-1 0.1-1.9-0.3-2.5-1.1-0.9-1.1-1.1-3-0.6-4.7l0.1-0.4c0 0 0.5-0.3 0.5-0.4q-0.4-0.5-0.6-1.2l-1.1 0.2 0.6-2.1c0.8-3 1.8-7.1 1.9-12.2v-1.1l1.1-0.3q1.5-0.4 2.5-0.5c1-0.1 1.7 0 2.3 0.2 1.9-0.1 3.2 0.8 3.7 2.5 0.4 1.8 1.7 6.6 4.4 12l1 1.9-1.4 0.1 0.7 0.6-0.1 0.2 1.4 1.3-1 0.4q0 0-0.1 0.1c0 0.2-0.1 1.1-0.1 1.1l-0.3 1.9-1.8-0.8q-0.7 0-1.7 0.1c-3 0.3-6.5 1.2-8 1.9q-0.5 0.2-0.9 0.3z"/><path fill-rule="evenodd" class="y" d="m134.3 95.2c-0.1 0.2-0.2 1.2-0.2 1.2l-0.3-0.1c-3-0.2-8.4 1-10.6 2-1.9 0.9-2.7-1.7-2.1-3.6 2.8-2 11.6-2.2 12.6-0.8 0.1 0.1-0.1 0-0.1 0l0.4 0.4-0.2 0.1c0 0 0.5 0.6 0.5 0.8zm-13.7-4.5c1-3.4 1.9-7.5 2-12.6 2.3-0.6 3.6-0.6 4.2-0.3 1.1-0.1 2.2 0.1 2.5 1.4 0.4 1.8 1.8 6.7 4.6 12.3l-0.5-0.4-0.2 0.3-0.3-0.1-0.3-0.2-0.2 0.3c0 0-0.2-0.2-0.3-0.4-0.1 0.2-0.4 1.1-0.4 1.1l-0.2-0.2c-3-0.5-6.2 0.2-8.5 0.9-1.3 0.4-1.9-0.6-2-1.8-0.1-0.2-0.2-0.3-0.4-0.3zm8-2.5c-0.8-1.3-1.5-2.7-2.1-4q-0.6 2-1.3 3.8c1.1 0 2.3 0.1 3.4 0.2z"/><path class="m" d="m132.8 99c-0.1-0.5-0.3-2-0.7-6-0.5-4.8-1.3-12.9-1.8-14.2l-0.5-1.2 1.1-0.6c0.1-0.1 0.6-0.3 1.3-0.5q1-0.4 2.1-0.6c1.9-0.2 3.5 0.6 4.2 2.2 0.9 1.8 1.9 3.8 2.9 5.7 0-3.6 0.2-7.1 0.4-8.5l0.4-2.5 1.9 1.6 0.5 0.3q0.2 0.3 0.4 0.6l0.2-0.1 0.7 1c0 0.1 0.9 1.4 1.5 2.8q0.1 0.1 0.1 0.4l0.1 0.2v0.2c0.5 10.2 1.3 13.3 1.6 14.4 0.1 0.6 0.2 1.1 0.1 1.6-0.3 1.3-1.8 2.5-3.3 2.6-1.6 0.2-3-0.7-3.7-2.5-1.3-1.6-2.6-3.6-3.9-5.6 0.1 2.5 0.1 4.2 0.1 4.3l-0.1 2-0.7-0.3-0.2 0.7-0.3 0.2-0.6 2.6-0.5-0.4-0.7 0.1-1.7 2.9z"/><path class="y" d="m147.7 94.1c-0.3 1.1-3.1 2.8-4.3-0.4-2.2-2.8-4.5-6.6-6.7-10 0.2 4.8 0.2 9.4 0.2 9.4l-0.2-0.1-0.6 1.6-0.4 0.2-0.2 1.1-0.4-0.3-0.2 1.1c0 0-0.4 0-0.5 0.1-0.1 0.1-0.2 0.1-0.3 0.4-0.3-1.2-1.7-18-2.6-20.4 0 0 0.4-0.2 1.1-0.3 1.5-0.9 3.6-1 4.5 0.8 1.7 3.7 4.2 8.1 5.7 10.8-0.1-5.3-0.1-12.1 0.3-14 0.1 0.1 0.1 0.6 0.2 0.7 0.1 0 0.2-0.4 0.2-0.4 0.1 0.1 0.4 1 0.5 1.2 0.2 0.1 0.5 0 0.5 0 0 0 0.9 1.3 1.4 2.5q0.1 0.2 0.1 0.3c0.7 14.2 1.9 14.8 1.7 15.7z"/><path fill-rule="evenodd" class="m" d="m155.1 96.7c-2.4 0.3-4.8-0.4-6.6-1.9-1.4-1.2-3.1-3.5-3.4-7.5-0.6-8 5.2-12.2 9.5-12.7 1.4-0.1 2.7 0.2 3.5 0.9 0.6 0.5 0.9 1.2 1 2 0.1 1-0.1 3.1-1.2 4.4q0.8-0.1 1.4-0.1c0.5 0 1.2 0.2 1.8 0.9 1 1 1.5 2.8 1.4 4 0.5 2.4 0 4.8-1.4 6.7-1.4 1.9-3.5 3.1-6 3.3zm-4.9-9.4c0.1 0.3 0.4 0.9 1 1.4 0.8 0.7 1.9 1.1 3 0.9q0.9-0.1 1.7-0.5-0.5 0-0.9 0c-0.6 0-1.1 0-1.2 0h-0.4c-1.2-0.3-2.3-1.1-3.2-1.9q0 0.1 0 0.1zm3.8-5q-0.9 0.1-1.6 0.6c0.8-0.2 1.7-0.4 2.6-0.6q-0.5-0.1-1 0z"/><path class="y" d="m154.8 93.8c-3.8 0.4-8-1.9-8.4-8.1-0.7-10.6 10.8-13.1 11.1-9.6 0.1 1.3-0.3 3.3-1.2 3.7-4.6-1.8-7.9 2.7-7.6 6.1 0.1 1.8 2.4 4 5.5 3.7 2.3-0.2 4.1-1.9 5-3.5-2 0.1-5.5 0.1-5.7 0.1-1.1-0.2-2.2-1.2-3-2.1-0.1 0 1.1-0.4 3.6-1-1.7 0.1-4 0.7-4.1 0.7q-0.3-0.1-0.3-0.2c1.8-0.4 7-1.9 9.4-1.8 1.2 0 1.9 2.4 1.8 3.6 0.9 4.2-1.7 8-6.1 8.4z"/><path class="m" d="m162.8 96.6c-1.6 0.1-2.7-1.7-3.1-2.8-0.5-1.6-0.3-2.9 0.6-3.6q0-0.8-0.1-1.7c-0.4-4-1.1-10.6-1.6-11.9l-0.4-1.2 1.1-0.6c0.1-0.1 1.1-0.6 2.3-0.7q0.2 0 0.4 0 2.1-0.5 6.7-1c1.6-0.1 3.1-0.3 4-0.3l2.3-0.2-0.3 1.7q0 0.1 0 0.2l3.1-0.1-4.7 3v0.4l-0.8 0.5q-1.1 0.6-1.3 0.7l-0.2 0.1h-0.2c-0.3 0.1-1.4 0.4-2.5 0.7 1.3-0.3 2.6-0.5 3.5-0.6h0.4l1.4-0.1 0.1 1.4c0 0.1 0 0.2 0 0.5l2.2-0.1-3.5 2.9 0.1 0.6-1.6 0.6-0.1 0.2-0.4 0.2c-0.1 0.1-1 0.6-1.4 0.8l-0.2 0.1h-0.2c-0.1 0.1-0.5 0.2-0.9 0.4q-0.4 0.1-0.9 0.3 0 0.1 0 0.2c2.2-0.9 5.3-1.9 8.1-2.2q1.3-0.2 2.4-0.1l1.2 0.1 0.1 1.2c0 0.4 0 0.9-0.6 1.6l-0.2 0.6-0.9 0.5 0.1 0.5c-0.2 0.1-0.6 0.3-0.8 0.5-0.1 0.1-0.2 0.2-0.2 0.3-0.2 0.3-0.5 0.7-1 0.9l-0.3 0.2h-0.1c-0.8 0.2-6 2-10.9 5q-0.3 0.2-0.7 0.3z"/><path class="y" d="m176.8 84.9c0 0.2-0.5 0.8-0.5 0.8l-0.1 0.3-1 0.6h0.8c0 0-0.7 0.4-1.1 0.8-0.5 0.4-0.6 0.8-0.9 1-0.3 0-6.1 2-11.4 5.3-0.8 0.5-2.7-3-1.4-3.9q0.2-0.1 0.5-0.3c-0.5-4.7-1.2-13.1-1.9-14.9 0 0 1.1-0.5 2.2-0.5 2.9-0.7 9.3-1.2 11.1-1.4 0 0.2 0 0.7 0 0.7 0 0-0.4 0.3-0.8 0.7 0 0.1-0.5 0.6-0.5 0.6h0.5l-0.9 0.5 0.1 0.4c0 0-1.1 0.5-1.3 0.6-0.1 0-2.9 0.8-5.3 1.4q0 0.4 0 0.7 0.1 1.1 0.1 2.1c2.4-0.6 5.4-1.1 6.9-1.2 0.1 0.2-0.1 0.6-0.1 0.6l-0.1 0.7-0.8 0.6h0.4l-0.9 0.6 0.1 0.3-1 0.4-0.2 0.3c0 0-0.9 0.6-1.3 0.8-0.1 0-1.6 0.6-3 1.1 0 1.5 0 2.6-0.1 3.3 3.7-1.6 8.6-3.3 11.9-3z"/><path class="m" d="m124 130.6c-0.7 0-1.4-0.3-1.7-0.9q-2.1-3.2-3.1-7.6-0.2 0.3-0.5 0.6-0.6 0.6-1.9 0.7-0.3 0.1-0.8 0.1c-4.9-0.2-5.6-6.4-6.1-11.5-0.2-2.1-0.5-4.6-1.1-5.5l-0.7-0.3v-0.8c-0.1-1.6 0.9-2.8 2.7-3q0.4 0 0.9 0c3.8 0.1 4.2 3.1 4.7 7.2 0.8-1.9 1.6-4.1 2.3-5.4q0-0.1 0.1-0.3c0-0.5 0.2-2.4 3-2.6 0.4-0.1 0.7-0.1 0.9-0.1 2.8 0.1 3.8 2.6 3.8 3.7v0.1q0 0.1-0.1 0.6c-1.1 6.8-1.2 13.1-0.2 17.8v0.1 0.5q0 0.4 0 0.8v1.2h-0.1c0 0.1 0 0.7 0 0.7 0.1 0.8 0.1 1.1 0.2 1.2q0 0.2 0 0.3l0.2 1.4-0.9 0.1q0 0.1-0.1 0.2c-0.4 0.3-0.9 0.6-1.5 0.7z"/><path class="y" d="m124.9 103.5c0 0.3-2 10.4-0.3 18.7q0 0.7 0 1.2l-0.8-2.9c0 0 0.7 3.4 0.7 3.5q0 0.5 0 1l-0.1-0.4c0 0 0.1 0.7 0.1 0.8 0.1 1.1 0.2 1.4 0.2 1.5 0 0.1 0 0-0.1-0.1 0 0.1-0.1 0.5-0.2 0.5-0.3 0.3-0.9 0.5-1.1 0.2-2.7-4.2-3.5-9.4-3.6-14.2-1 3.5-1.6 6.4-2.1 6.9-0.4 0.3-1 0.4-1.8 0.4-5.5-0.2-3.8-13.1-5.9-16.3-0.2-0.3-0.5-0.5-0.5-0.5-0.1-1 0.7-1.5 2.1-1.4 3.5 0.1 2.8 3.6 4 11.1 0.4 0 3-7.6 4.5-10.4 0.1-0.2 0-0.3 0.1-0.5 0-1.3 1.7-1.4 2.4-1.4 2.1 0.1 2.4 2 2.4 2.3z"/><path fill-rule="evenodd" class="m" d="m128.1 123.5c-0.9 0.1-1.8-0.3-2.4-1-0.9-1.2-1.2-3.1-0.6-4.7l0.1-0.5 0.4-0.2q0.7-0.6 1.6-0.9c-2.2-1.7-3.6-4.7-3.8-6.6-0.4-4.2 1.4-7.6 2.4-8.2q0.6-0.3 1.2-0.4c0.8-0.1 1.6 0.2 2.3 0.5q0.5-0.2 1.1-0.3c2.4-0.2 6.4 1.4 7 6.6 0.3 3.1-0.5 5.8-2 7.6 1.1 0.2 2 0.6 2.6 1.3l0.2 0.4 1.5 1.5-0.9 0.3q0 0.1-0.1 0.2c0 0.2-0.1 1.1-0.1 1.1l-0.3 1.9-1.8-0.8q-0.6 0-1.2 0.1c-1.8 0.2-3.8 0.8-6.2 1.8q-0.5 0.2-1 0.3zm2.3-18c-0.3 0.6-0.5 1.4-0.4 2.6 0.1 1.2 0.4 1.9 0.7 2.3 0.3-0.6 0.5-1.5 0.3-2.8-0.1-1.1-0.3-1.7-0.6-2.1z"/><path fill-rule="evenodd" class="y" d="m126.4 101.2c1.1-0.7 2.8 0.5 3 1q0 0 0 0.1c0.1-0.1 0.1-0.2 0.1-0.2 0 0-0.2-0.1-0.2-0.2 0-0.1 0-0.3 0.3-0.4 1.3-0.8 5.6 0 6.2 5.1 0.4 4.1-1.4 7.8-4.6 8-3.6 0.4-6.2-4.2-6.5-6.6-0.4-3.9 1.4-6.6 1.7-6.8zm2.8 1.7c-0.4 0.8-1 2-0.8 3.9 0.3 3.1 2 4 2.4 4 0.5 0 1.9-1.6 1.5-4.8-0.4-4.1-2.9-3.7-2.9-3.7 0 0.2 0 0.6-0.2 0.6zm-2.9 13.9c2.7-2 9.3-2.1 10.3-0.7 0.1 0.1-0.1 0-0.1 0l0.4 0.4-0.2 0.1c0 0 0.5 0.6 0.5 0.8-0.1 0.2-0.2 1.2-0.2 1.2l-0.3-0.2c-3-0.1-6.1 1.1-8.3 2.1-1.9 0.8-2.7-1.8-2.1-3.7zm3.1-14.5q-0.1 0-0.1 0z"/><path fill-rule="evenodd" class="m" d="m139.3 122.2c-1 0.1-1.8-0.3-2.4-1-0.9-1.1-1.2-3-0.6-4.6l0.1-0.5 0.4-0.2q0.8-0.6 1.7-1c-2.2-1.5-3.6-4.4-3.8-6.7-0.4-2.7-0.3-7 1.1-7.9q0.5-0.3 1.2-0.3c1.3-0.2 2.8 0.4 3.6 1.1l0.5-0.2c0.1-0.5 0.5-0.9 0.9-1.1q0.5-0.3 1.2-0.3c0.9-0.1 1.9 0.2 2.7 0.9 1.5 1.2 2.4 3.3 2.7 6.1 0.3 3.2-0.6 6-2.2 7.7 0.9 0.2 1.8 0.6 2.3 1.2l0.6 0.5v0.2l1.2 1.3-0.9 0.3q0 0.1 0 0.2v0.1c-0.1 0.1-0.1 0.6-0.2 0.9l-0.2 1.9-1.8-0.7q-0.6 0-1.2 0c-2.2 0.3-4.5 1.2-6 1.8q-0.5 0.2-0.9 0.3zm2-19c-0.5 4.2 0.1 5.9 0.5 6.5 0.4-0.5 0.8-1.3 0.6-2.8-0.2-2-0.5-3.1-0.8-3.6z"/><path fill-rule="evenodd" class="y" d="m136.4 100.1c1.1-0.6 3.4 0.5 3.3 1.1-1 7.9 1.6 8.7 1.9 8.7 0.6 0 2.5-1.4 2.1-4.6-0.4-3.9-1.3-4.8-1.3-4.8h-0.1c0 0 0.2-0.1 0.2-0.3-0.1 0-0.2-0.1-0.2-0.1 0-0.1 0-0.3 0.3-0.5 1.3-0.7 3.9 0.7 4.4 5.6 0.3 4.1-1.4 7.8-4.6 8-3.6 0.4-6.1-3.6-6.5-6.6-0.4-3.9 0.2-6.3 0.5-6.5zm1.1 15.5c2.6-1.9 9-2 10-0.6l-0.1-0.1 0.4 0.5h-0.2c0 0 0.5 0.6 0.4 0.8 0 0.2-0.2 1.1-0.2 1.1l-0.2-0.1c-3-0.1-5.9 1-8.1 2-1.8 0.8-2.6-1.8-2-3.6z"/><path fill-rule="evenodd" class="m" d="m151.8 121.3q-0.2 0.1-0.4 0.1l-1.2 0.1-0.3-1.1c-0.2-0.5-0.4-2-0.9-6.2l-0.1-0.7c-1-0.7-1.8-1.7-2.3-2.9q-0.5-1.2-0.3-1.8h0.2q-0.1-0.4 0-0.7l0.2-2c-1.1-0.5-1.8-1.7-2.1-2.7-0.3-1.2-0.2-2.3 0.5-3.1 0.9-1 4.6-2.2 7.9-2.5 3.7-0.4 6.7 0.3 8.8 2q2.5 2 2.9 5.9c0.2 2.5-0.7 4.6-2.7 6.2 1 1.8 1.4 3.9 1.2 5.6h-0.2q0 0.2 0 0.5l-0.5 2.3-1-0.8q-0.1 0-0.2 0c-0.1 0.1-0.6 0.3-0.6 0.3l-0.8 0.3-1.2-1.1-0.1-0.4c-0.5-1.3-1.4-2.7-2.8-4.2q-0.3 0-0.6 0.1c0 1 0.1 1.9 0.1 1.9l-0.2 0.3c0 0-0.1 0.4-0.4 0.9-0.1 0.1-0.2 0.6-0.4 1l-0.2 0.6-0.4 0.2-0.3 1.2h-0.4l-0.6 1.1zm2.9-16.7q0.2 1.6 0.2 3.3c2.4-0.6 4.4-1.9 4.7-2.6-0.3-0.3-1.8-0.9-4.9-0.7z"/><path fill-rule="evenodd" class="y" d="m159.9 110c1.3 1.8 2 4.1 1.8 5.9-0.1-2.6-1.5-4.3-1.5-4.3 0 0 1.4 3.4 1.2 4.6-0.1 0-0.1-0.1-0.1-0.1 0 0-0.3 0.6-0.5 0.6-0.2 0.1-0.7 0.3-0.7 0.3l-0.3-0.3c-0.8-2.1-2.2-3.9-3.6-5.4-1 0.3-1.9 0.4-2.5 0.5q-0.1 0-0.1 0c0 1.7 0.1 2.9 0.1 2.9 0 0-0.2 0.3-0.4 0.8-0.2 0.3-0.5 1.2-0.5 1.2 0 0-0.3 0.1-0.5 0.4 0 0.1-0.1 0.6-0.1 0.6h-0.3l-0.2 0.5c0 0-0.2-0.1-0.3-0.1-0.1 0.1-0.2 0.4-0.3 0.4-0.1-0.4-0.5-3.7-1-7.4-1-0.4-1.8-1.2-2.3-2.5-0.1-0.1-0.3-0.7-0.2-1.1 0.2 0.7 0.7 1.7 1 2-0.6-1-0.9-2.1-0.8-2.7 0.1 0.4 0.8 0.9 1.9 1.1-0.3-1.8-0.6-3.6-0.8-5.1q-0.8 0.2-1.7 0.5c-0.9-0.2-2-2.5-1.1-3.5 0.8-1 16-6.1 17 4.6 0.2 2.8-1.3 4.5-3.2 5.6zm-7-8.1q0.1 0.4 0.2 1 0.1 2.7 0.3 5.4c3.4-0.4 7.5-2.6 7.4-4.5 0-1.5-2.9-2.6-7.9-1.9z"/><path class="m" d="m121.1 148.4c-0.9 0.1-1.8-0.3-2.4-1-0.9-1.1-1.2-3-0.7-4.7l0.2-0.5v-0.2c-0.5-4.9-1.2-12.3-1.8-14.4-0.2-0.8 0.3-1.8 1.2-2.2h0.1c0.3-0.2 0.8-0.3 1.5-0.4 1.3-0.1 2.4 0.2 3.3 1q1.6 1.4 1.8 4.7c0.2 3.6 0.2 7.1 0.2 9.5 1.4-0.2 5.2-0.3 6.5 1.5l0.2 0.3 1.5 1.6-1 0.3q0 0.1 0 0.2c-0.1 0.2-0.2 1.1-0.2 1.1l-0.3 1.6-1.6-0.5q-0.7 0-1.3 0c-1.8 0.2-3.8 0.8-6.2 1.9q-0.5 0.2-1 0.2z"/><path class="y" d="m130.2 142.3c-0.1 0.2-0.3 1.2-0.3 1.2l-0.2-0.1c-3-0.1-6.1 1-8.3 2-1.9 0.8-2.7-1.8-2.1-3.7q0.1-0.1 0.3-0.2c-0.5-5.1-1.3-13.4-1.9-15.7-0.1-0.1 0-0.4 0.3-0.5 1.2-0.4 4.5-1.1 4.7 4 0.2 4.6 0.2 9.1 0.2 11.1 2.8-0.6 6-0.3 6.7 0.7 0.1 0-0.1 0-0.1 0l0.4 0.4-0.2 0.1c0 0 0.5 0.5 0.5 0.7z"/><path class="m" d="m129.4 148.1l-0.3-1.2c-0.2-0.5-0.3-1.9-0.8-5.7-0.6-5-1.4-12.4-2-14.4-0.2-0.3-0.1-0.8 0.1-1.2 0.2-0.5 0.7-0.8 1.2-1 0.4-0.2 0.9-0.3 1.4-0.3 1.2-0.2 2.4 0.2 3.2 0.9q1.8 1.4 2 4.7c0.4 5.8 0.5 12.6 0.5 12.7v3.7l-1.1-1.1-0.9 0.6-1.1 1.8-0.1-0.1c-0.2 0.2-0.5 0.4-0.9 0.4z"/><path class="y" d="m132.6 128.6c0.4 5.8 0.5 12.6 0.5 12.6l-0.2-0.2-0.1 0.7-0.3 0.1-0.3 1.1-0.8 0.5-0.4 0.7-0.2-0.2-0.1 0.8c0 0-0.3 0.3-0.4 0.3-0.3-1.1-1.8-16.8-2.8-20 0-0.1 0.1-0.4 0.4-0.5 1.1-0.4 4.3-1.1 4.7 4.1z"/><path class="m" d="m135.3 146.8l-0.3-1.2c-0.2-0.4-0.4-1.8-0.9-5.7-0.3-2.7-0.8-6.1-1.2-9l-1.2-0.1 0.2-0.4-1.9-0.2 0.8-1c0 0-0.2-0.3-0.3-0.3l-0.3-0.2 0.1-0.1q-0.2-0.4-0.3-0.8l-0.1-1.3 1.3-0.3q0.1 0 0.8-0.2-0.1-0.1-0.1-0.1c-0.3-0.8 0.3-1.9 1.2-2.3q0.9-0.3 1.8-0.4c1.4-0.2 2.5 0.2 3.4 1.1 5.2-1.4 6.5-1.9 6.7-2l0.8-0.3 0.7 0.4c0.9 0.7 1.9 2.9 1.5 4.7-0.1 0.5-0.6 1.6-1.9 2.1l0.2 1.1c0 0.1 0 0.3-0.1 0.5h2.1l-3.4 2.7 0.2 0.7-1.6 0.6-0.1 0.2-0.4 0.2c-0.1 0-1 0.6-1.4 0.8l-0.3 0.1-0.1 0.1c-0.2 0-0.5 0.1-0.8 0.3 0.1 2.6 0.1 4.6 0.1 4.7l0.1 3.4-1.1-1v0.1l-0.9 0.8-0.9 1.6-0.1-0.1c-0.2 0.3-0.6 0.6-1.1 0.6z"/><path class="y" d="m144.6 126.6c-0.2 0.1-3.5 0.6-6.3 1.1q0.1 1.1 0.2 2.3c2.3-0.5 4.8-0.8 6.2-1 0 0.2-0.2 0.6-0.2 0.6v0.7l-0.8 0.6h0.3l-0.8 0.6v0.3l-0.9 0.4-0.2 0.3c0 0-0.9 0.6-1.3 0.8-0.1 0-1.1 0.4-2.1 0.7 0.2 3.3 0.2 5.8 0.2 5.8l-0.2-0.2v0.7l-0.4 0.1-0.2 1.1-0.8 0.6-0.4 0.7-0.2-0.1-0.2 0.7c0 0-0.2 0.4-0.3 0.4-0.3-0.9-1.3-9.8-2.2-15.6h-0.3l0.1-0.4-0.5-0.1-0.8-0.1 0.2-0.3-0.4-0.3 0.4-0.4-1.1 0.1c0 0-0.2-0.4-0.3-0.5 0.3-0.1 1.1-0.3 2.2-0.6q-0.1-1-0.3-1.6c-0.1-0.1 0-0.4 0.3-0.5 0.9-0.3 3-0.9 4.1 1 3.4-0.9 7-1.9 7.9-2.3 0.6 0.4 2.3 4.1-0.9 4.4z"/><path class="m" d="m148.1 145.4c-1.5 0.2-2.6-1.7-3-2.8-0.6-1.5-0.3-2.9 0.6-3.6q-0.1-0.8-0.2-1.7c-0.4-4-1-10.6-1.5-11.9l-0.5-1.2 1.2-0.6c0.1 0 1.1-0.6 2.3-0.7q0.1 0 0.3 0 2.1-0.5 6.7-1c1.6-0.1 3.1-0.2 4-0.3l2.4-0.2-0.4 1.8q0 0 0.1 0.1l3-0.1-4.7 3.1v0.4l-0.7 0.4q-1.2 0.6-1.4 0.7l-0.2 0.1h-0.1c-0.3 0.1-1.5 0.4-2.6 0.7 1.4-0.3 2.7-0.4 3.5-0.5l0.4-0.1 1.4-0.1 0.2 1.4c0 0.1 0 0.3 0 0.5h2.2l-3.6 2.8 0.2 0.6-1.6 0.6-0.1 0.2-0.4 0.2c-0.2 0.1-1 0.6-1.5 0.8l-0.2 0.1-0.1 0.1q-0.3 0-0.9 0.3-0.5 0.2-0.9 0.3 0 0.1 0 0.2c2.2-0.9 5.3-1.9 8.1-2.2q1.3-0.1 2.3-0.1l1.2 0.1 0.1 1.2c0.1 0.4 0 0.9-0.6 1.6l-0.1 0.6-0.9 0.6 0.1 0.4c-0.2 0.1-0.6 0.3-0.8 0.5q-0.1 0.1-0.3 0.3c-0.2 0.3-0.5 0.7-1 1l-0.2 0.1h-0.2c-0.8 0.2-6 2-10.8 5q-0.4 0.3-0.8 0.3z"/><path class="y" d="m162.1 133.7c0.1 0.2-0.4 0.8-0.4 0.8l-0.1 0.3-1 0.7h0.8c0 0-0.8 0.3-1.2 0.7-0.4 0.5-0.5 0.9-0.9 1-0.2 0.1-6 2-11.3 5.3-0.8 0.5-2.8-3-1.5-3.9q0.2-0.1 0.6-0.3c-0.5-4.7-1.2-13.1-1.9-14.8 0 0 1-0.6 2.2-0.6 2.9-0.7 9.2-1.2 11.1-1.4-0.1 0.2 0 0.8 0 0.8 0 0-0.5 0.2-0.8 0.7-0.1 0.1-0.6 0.5-0.6 0.5h0.6l-0.9 0.5v0.4c0 0-1.1 0.6-1.2 0.6-0.2 0-2.9 0.8-5.4 1.5q0.1 0.3 0.1 0.6 0 1.1 0.1 2.1c2.4-0.6 5.4-1 6.9-1.2 0 0.2-0.2 0.6-0.2 0.6v0.7l-0.8 0.6h0.3l-0.8 0.6v0.3l-0.9 0.4-0.2 0.3c0 0-1 0.6-1.3 0.8-0.2 0-1.7 0.6-3 1.1 0 1.5-0.1 2.6-0.1 3.3 3.6-1.6 8.6-3.2 11.8-3z"/><path class="m" d="m111.6 273.3l2.3-211.6h1.5l-3.4 211.6z"/><path class="m" d="m150.5 144.2c0 0 1.2 0 1.2 0.5 0 0.6-2.4 42-1.2 42 1.2 0 1.5-41.6 1.7-42.5 0.2-1 1.4-1.6 1.4-1.6 0 0-2 0.5-3.1 1.6z"/><path class="m" d="m154.9 142c0 0 1 0.2 1 1.3 0 1.2-0.6 6.9 0 6.9 0.7 0 0.2-6.4 0.4-7.6 0.1-1.3 0.9-1.6 0.9-1.6z"/><path class="m" d="m170 93c0 0 1-0.6 1.6-0.1 0.5 0.5-2.2 47.8-1 48.1 1.2 0.3 1.5-48.1 1.8-48.6 0.3-0.5 1.3-0.9 1.3-0.9 0 0-2.6 0.4-3.7 1.5z"/><path class="z" d="m208.5 152.9l-1.4 26.7h21.3l0.2-26.4z"/><path class="A" d="m209.2 176.6l0.6-24.9h21.2l-1.4 25.3z"/><path class="B" d="m214.4 162.2l0.2 1.6 5.9 6.5 5-7 0.3-1.8z"/><path class="b" d="m214.8 160.9l6.7 7.3 5.2-7.3z"/><path class="m" d="m221.5 168.2h-1.5l-5.6-6 0.4-1.3z"/><path class="m" d="m209.8 151.7l-1.3 1.2 0.2 23.7h0.5z"/><path fill-rule="evenodd" class="C" d="m71.4 78.5c-3.7-1.6-34.7-0.5-34.7-0.5l0.1-2.2c41.7 3.2 96.9-25 96.9-25h0.8c0 0-13.4 10.3-8.6 11.5 4.8 1.3 28.1-11.6 28.1-11.6h1c0 0-3.8 19 4.7 16.6 8.5-2.4 28.2-16.4 28.2-16.4l1.2-0.1c-54.5 42.8-151.8 62.3-151.8 62.3l0.1-1.3c0 0 11.3-3.6 9.8-6.1-1.5-2.5-4.4-2.5-4.4-2.5v-1.1c0 0 15.3-5.1 14-8-1.1-2.4-14.2-1.7-14.2-1.7l0.1-1.6c0 0 32.9-10.5 28.7-12.3zm57.1-15.4c-7.9-0.3-22.7 8.5-21.8 9.9 1 1.5 10.1 0.2 12.9-1.3 2.8-1.4 9.9-8.6 8.9-8.6zm-20.7 28.5c1.8 1.2 34.4-12.1 33.8-15.5-0.3-1.5-19.4 1.5-24 3.1-4.5 1.5-11.5 11.2-9.8 12.4zm45.2-24.2c1.1-2.9 1-13.5 0-13.6-4.5-0.5-36.8 18.3-33.6 22.3 3.1 4.1 32.4-5.8 33.6-8.7zm-41.1 13.2c0.9 0.1 4-1.6 3.8-2.7-0.1-1.2-3.3-1.8-4.3-0.8-1 0.9-0.5 3.5 0.5 3.5zm-42.8 11.1c1.6 2.2 22.4 4.1 29.1 0 6.8-4.2 10.3-16.3 8.5-16.5-7.1-0.7-39.2 14.2-37.6 16.5zm12.7-13.2c0.7 1 7.7-0.1 15.3-2.4 7.5-2.3 19.6-12 18.6-12-0.9 0-34.5 13.5-33.9 14.4z"/></g></svg>