<svg version="1.2" xmlns="http://www.w3.org/2000/svg" viewBox="0 0 250 300" width="250" height="300"><defs><clipPath clipPathUnits="userSpaceOnUse" id="cp1"><path d="m575 350h-900v-400h900z"/></clipPath><linearGradient id="P" gradientUnits="userSpaceOnUse"/><linearGradient id="g1" x2="1" href="#P" gradientTransform="matrix(0,-247.071,195.277,0,-41.368,273.068)"><stop stop-color="#a392b8"/><stop offset="1" stop-color="#612c73"/></linearGradient><radialGradient id="g2" cx="0" cy="0" r="1" href="#P" gradientTransform="matrix(195.688,0,0,195.688,114.826,91.91)"><stop stop-color="#896b6b"/><stop offset="1" stop-color="#231050"/></radialGradient><radialGradient id="g3" cx="0" cy="0" r="1" href="#P" gradientTransform="matrix(166.446,0,0,166.446,114.299,118.264)"><stop stop-color="#d8c5b8"/><stop offset=".72" stop-color="#94759a"/><stop offset=".96" stop-color="#ffaeb9"/></radialGradient><linearGradient id="g4" x2="1" href="#P" gradientTransform="matrix(157.047,0,0,10.896,36.947,50.929)"><stop stop-color="#541d5e"/><stop offset="1" stop-color="#8e83c9"/></linearGradient><linearGradient id="g5" x2="1" href="#P" gradientTransform="matrix(0,-84.137,21.384,0,28.996,273.072)"><stop stop-color="#a392b8"/><stop offset="1" stop-color="#612c73"/></linearGradient><linearGradient id="g6" x2="1" href="#P" gradientTransform="matrix(0,-54.373,17.791,0,-52.513,273.41)"><stop stop-color="#a392b8"/><stop offset="1" stop-color="#612c73"/></linearGradient><linearGradient id="g7" x2="1" href="#P" gradientTransform="matrix(0,-1.068,16.821,0,202.695,52.516)"><stop/><stop offset="1" stop-color="#434f67"/></linearGradient><linearGradient id="g8" x2="1" href="#P" gradientTransform="matrix(0,-0.89,17.522,0,28.134,53.008)"><stop/><stop offset="1" stop-color="#434f67"/></linearGradient><linearGradient id="g9" x2="1" href="#P" gradientTransform="matrix(0,-24.93,131.058,0,105.568,50.927)"><stop/><stop offset="1" stop-color="#434f67"/></linearGradient><radialGradient id="g10" cx="0" cy="0" r="1" href="#P" gradientTransform="matrix(89.032,0,0,89.032,118.797,140.092)"><stop stop-color="#8183c8"/><stop offset="1" stop-color="#795e88"/></radialGradient><radialGradient id="g11" cx="0" cy="0" r="1" href="#P" gradientTransform="matrix(45.673,0,0,45.673,109.618,270.894)"><stop stop-color="#aeae45"/><stop offset=".82" stop-color="#695568"/><stop offset="1" stop-color="#533a73"/></radialGradient><radialGradient id="g12" cx="0" cy="0" r="1" href="#P" gradientTransform="matrix(100.047,0,0,100.047,119.133,105.278)"><stop stop-color="#ffff72"/><stop offset="1" stop-color="#78780c"/></radialGradient><radialGradient id="g13" cx="0" cy="0" r="1" href="#P" gradientTransform="matrix(32.501,0,0,32.501,114.45,91.154)"><stop offset=".02" stop-color="#ff864e"/><stop offset=".99"/></radialGradient><radialGradient id="g14" cx="0" cy="0" r="1" href="#P" gradientTransform="matrix(23.556,0,0,23.556,114.45,91.154)"><stop offset=".02" stop-color="#ff924e"/><stop offset=".99"/></radialGradient><radialGradient id="g15" cx="0" cy="0" r="1" href="#P" gradientTransform="matrix(20.3,0,0,20.3,112.767,91.154)"><stop offset=".02" stop-color="#ffdea4"/><stop offset=".99"/></radialGradient><radialGradient id="g16" cx="0" cy="0" r="1" href="#P" gradientTransform="matrix(16.143,0,0,16.143,112.767,91.154)"><stop offset=".02" stop-color="#fff"/><stop offset=".99"/></radialGradient><linearGradient id="g17" x2="1" href="#P" gradientTransform="matrix(0,-56.235,133.483,0,103.344,118.049)"><stop stop-color="#a392b8"/><stop offset="1" stop-color="#612c73"/></linearGradient><linearGradient id="g18" x2="1" href="#P" gradientTransform="matrix(0,-12.229,133.717,0,114.637,74.043)"><stop stop-color="#a392b8"/><stop offset="1" stop-color="#612c73"/></linearGradient><radialGradient id="g19" cx="0" cy="0" r="1" href="#P" gradientTransform="matrix(37.161,0,0,37.161,115.741,66.963)"><stop stop-color="#ffffcf"/><stop offset="1" stop-color="#ecec8b"/></radialGradient><radialGradient id="g20" cx="0" cy="0" r="1" href="#P" gradientTransform="matrix(37.113,0,0,37.113,115.741,63.694)"><stop stop-color="#6861ab"/><stop offset="1" stop-color="#6e5885"/></radialGradient><linearGradient id="g21" x2="1" href="#P" gradientTransform="matrix(0,-56.897,125.693,0,98.89,266.036)"><stop stop-color="#732c73"/><stop offset="1" stop-color="#fff"/></linearGradient><linearGradient id="g22" x2="1" href="#P" gradientTransform="matrix(0,-222.483,157.088,0,-42.15,273.412)"><stop stop-color="#a392b8"/><stop offset="1" stop-color="#612c73"/></linearGradient><linearGradient id="g23" x2="1" href="#P" gradientTransform="matrix(0,-26.668,21.574,0,202.928,179.599)"><stop stop-color="#a392b8"/><stop offset="1" stop-color="#612c73"/></linearGradient><linearGradient id="g24" x2="1" href="#P" gradientTransform="matrix(0,-25.283,21.685,0,206.942,176.995)"><stop stop-color="#413c6b"/><stop offset="1" stop-color="#312770"/></linearGradient><linearGradient id="g25" x2="1" href="#P" gradientTransform="matrix(0,-8.775,11.368,0,216.129,168.711)"><stop stop-color="#a392b8"/><stop offset="1" stop-color="#612c73"/></linearGradient><linearGradient id="g26" x2="1" href="#P" gradientTransform="matrix(94.062,0,0,4.401,64.633,196.142)"><stop stop-color="#a392b8"/><stop offset="1" stop-color="#612c73"/></linearGradient><radialGradient id="g27" cx="0" cy="0" r="1" href="#P" gradientTransform="matrix(49.808,0,0,49.808,110.205,194.19)"><stop stop-color="#e5d9e3"/><stop offset="1" stop-color="#a787ae"/></radialGradient><radialGradient id="g28" cx="0" cy="0" r="1" href="#P" gradientTransform="matrix(38.183,0,0,38.183,114.588,91.769)"><stop offset=".02" stop-color="#ffdea4"/><stop offset=".99"/></radialGradient><radialGradient id="g29" cx="0" cy="0" r="1" href="#P" gradientTransform="matrix(30.365,0,0,30.365,114.588,91.769)"><stop offset=".02" stop-color="#fff"/><stop offset=".99"/></radialGradient></defs><style>.a{opacity:.8;mix-blend-mode:multiply;fill:url(#g1)}.b{fill:url(#g2)}.c{fill:#0a0520}.d{fill:url(#g3)}.e{opacity:.5;mix-blend-mode:multiply;fill:url(#g4)}.f{fill:#0c0109}.g{opacity:.2;mix-blend-mode:multiply;fill:url(#g5)}.h{opacity:.2;mix-blend-mode:multiply;fill:url(#g6)}.i{opacity:.5;mix-blend-mode:screen;fill:url(#g7)}.j{opacity:.5;mix-blend-mode:screen;fill:url(#g8)}.k{opacity:.5;mix-blend-mode:screen;fill:url(#g9)}.l{fill:#0e0012}.m{fill:#ff0}.n{fill:url(#g10)}.o{fill:url(#g11)}.p{fill:url(#g12)}.q{opacity:.5;mix-blend-mode:multiply;fill:#6e5f85}.r{mix-blend-mode:screen;fill:url(#g13)}.s{mix-blend-mode:screen;fill:url(#g14)}.t{mix-blend-mode:screen;fill:url(#g15)}.u{mix-blend-mode:screen;fill:url(#g16)}.v{opacity:.6;mix-blend-mode:multiply;fill:url(#g17)}.w{opacity:.6;mix-blend-mode:multiply;fill:url(#g18)}.x{fill:url(#g19)}.y{fill:url(#g20)}.z{fill:#371e46}.A{opacity:.2;mix-blend-mode:multiply;fill:url(#g21)}.B{opacity:.6;mix-blend-mode:multiply;fill:url(#g22)}.C{opacity:.6;mix-blend-mode:multiply;fill:url(#g23)}.D{fill:url(#g24)}.E{opacity:.6;mix-blend-mode:multiply;fill:url(#g25)}.F{fill:#adad00}.G{fill:#4f4f00}.H{opacity:.6;mix-blend-mode:multiply;fill:url(#g26)}.I{fill:url(#g27)}.J{mix-blend-mode:screen;fill:url(#g28)}.K{mix-blend-mode:screen;fill:url(#g29)}</style><g clip-path="url(#cp1)"><path class="a" d="m17.2 273.1l1.8-247.1h193.5l-7.5 247.1z"/><path class="b" d="m22.4 273.1l-3.4-247.1h193.5l-11.4 247.1z"/><path class="c" d="m39.5 273.4l-2.6-222.5h157.1l-10.4 222.2z"/><path class="d" d="m43.1 273.4v-211.6h143.8l-8.3 211.3z"/><path class="e" d="m194 50.9l-0.3 0.5-6.8 10.4h-143.8l-6.2-10.9z"/><path class="f" d="m36.9 50.9l-17.5 0.8v0.4h17.5z"/><path class="f" d="m194 50.9h17.5v0.5h-17.5z"/><path class="g" d="m205 188.9l-17.7 4.3-3.7 79.9h17.5z"/><path class="h" d="m38.9 219l-17.2 3.7 0.7 50.4 17.1 0.3z"/><path class="i" d="m194 51.4c0 0 9.9 2.5 17.5 0z"/><path class="j" d="m36.9 52.1h-17.5c0 0 4.7 2 17.5 0z"/><path class="k" d="m42.5 26l27.4 24.9h90.6l12.9-24.9z"/><path class="l" d="m93.8 32.2l0.4 13.4h47l0.7-13.4z"/><path class="m" d="m110.2 35.9h1v1h-1zm0 5.7h1v1.1h-1zm1.1-6.9h1.1v1.1h-1.1zm0 1.2h1.1v1h-1.1zm0 1.2h1.1v1h-1.1zm0 1.2h1.1v1.1h-1.1zm0 1.1h1.1v1.1h-1.1zm0 1.1h1.1v1.1h-1.1zm0 1.1h1.1v1.1h-1.1zm1.2 0h1.1v1h-1.1z"/><path class="m" d="m120 39.2h-1.1v-1.1h1.1zm1.2 0h-1.1v-1.1h1.1zm1.3 0h-1.1v-1.1h1.1zm1.3 0h-1.1v-1.1h1.1zm1.3 0h-1.1v-1.1h1.1zm-3.9-1.2h-1.1v-1.1h1.1zm1.3 0h-1.1v-1.1h1.1zm1.3 0h-1.1v-1.1h1.1zm-1.3-1.2h-1.1v-1.2h1.1zm1.3 0h-1.1v-1.1h1.1zm0-1.2h-1.1v-1.1h1.1zm1.3 1.2h-1.1v-1.1h1.1zm0 1.3h-1.1v-1.2h1.1zm1.3 0h-1.1v-1.1h1.1zm0 1.3h-1.1v-1.1h1.1zm1.2 0h-1.1v-1.2h1.1z"/><path class="n" d="m46.6 273v-211.2h137l-9 211.2z"/><path class="o" d="m46.6 266.8l16.3-8.1h94l18 8.1-0.3 6.2h-128z"/><path class="p" d="m62.9 258.7l-2.4-184.7h106.5l-10.1 184.7z"/><path class="q" d="m90.6 258.7l-1.7-184.7h0.5l1.7 184.7z"/><path class="r" d="m147 91.2c0 5-14.6 9.1-32.6 9.1-17.9 0-32.5-4.1-32.5-9.1 0-5.1 14.6-9.2 32.5-9.2 18 0 32.6 4.1 32.6 9.2z"/><path class="s" d="m138 91.2c0 3.6-10.5 6.6-23.6 6.6-13 0-23.5-3-23.5-6.6 0-3.7 10.5-6.7 23.5-6.7 13.1 0 23.6 3 23.6 6.7z"/><path class="t" d="m133.1 91.2c0 3.1-9.1 5.7-20.3 5.7-11.2 0-20.3-2.6-20.3-5.7 0-3.2 9.1-5.8 20.3-5.8 11.2 0 20.3 2.6 20.3 5.8z"/><path class="u" d="m128.9 91.2c0 2.5-7.2 4.5-16.1 4.5-8.9 0-16.2-2-16.2-4.5 0-2.6 7.3-4.6 16.2-4.6 8.9 0 16.1 2 16.1 4.6z"/><path class="q" d="m130.8 258.7l-0.5-0.1 6-184.6 0.5 0.1z"/><path class="v" d="m49.4 117.4l11.6-0.3c0 0 18.7-35.8 52.7-35.8 34.1 0 51 35.2 51 35.2l14.6 1.5 2.6-56.2h-133.4z"/><path class="w" d="m60.5 74l-12-8v-4.2h133.4l-0.2 3.6-14.7 8.6z"/><path class="x" d="m63.3 64.2h104.9l-6.6 5.5h-92z"/><path class="y" d="m168.2 64.2v-1.1h-104.9v1.1z"/><path class="z" d="m48.9 271.1l123.3 0.7-0.1 1.3-123.2-0.1z"/><path class="A" d="m174.6 209.1l-16.7 35.4-95.4 1.7-13.6-21.9v41.3l14-6.9h94l15.3 7.3z"/><path class="B" d="m194 51.4l-12.1 221.7h-3.3l-2.5-0.1 7.6-207.9-37.1 1.7 0.1-5h-63.3v8l-34.9 1.7 0.4 201.5-5.8 0.3-2.7 0.1-3.5-222.5 156.8 0.5z"/><path class="C" d="m210.1 152.9l-1.5 26.7h21.4l0.2-26.4z"/><path class="D" d="m210.8 176.6l0.5-24.9h21.2l-1.4 25.3z"/><path class="E" d="m225.2 168l-0.2-1.5-5.9-6.6-5 7-0.3 1.8z"/><path class="F" d="m227.9 166.3l-6.8-7.2-5.2 7.2z"/><path class="G" d="m221.1 159.1h1.5l5.6 5.9-0.3 1.3z"/><path class="l" d="m211.3 151.7l-1.2 1.2 0.2 23.7h0.5z"/></g><path class="H" d="m65 196.1c0 0-0.8 2 0 3.9l93.1 0.5c0 0 1.3-2.9 0-4.4z"/><path class="I" d="m60.3 192.8c0 0-0.9 2 0 3.9l102.5 0.4c0 0 1.5-2.8 0-4.3z"/><path class="J" d="m152.8 91.8c0 5.9-17.1 10.8-38.2 10.8-21.1 0-38.2-4.9-38.2-10.8 0-6 17.1-10.8 38.2-10.8 21.1 0 38.2 4.8 38.2 10.8z"/><path class="K" d="m145 91.8c0 4.7-13.6 8.5-30.4 8.5-16.8 0-30.4-3.8-30.4-8.5 0-4.8 13.6-8.6 30.4-8.6 16.8 0 30.4 3.8 30.4 8.6z"/></svg>